<svg width="430" height="267" viewBox="0 0 430 267" fill="none" xmlns="http://www.w3.org/2000/svg" xmlns:xlink="http://www.w3.org/1999/xlink">
<g clip-path="url(#clip0_3177_6228)">
<rect width="440" height="340" rx="16" fill="#F4F6FE"/>
<rect width="440" height="337" rx="8" fill="url(#pattern0_3177_6228)" fill-opacity="0.4"/>
<g filter="url(#filter0_f_3177_6228)">
<path d="M-9 24C21.3757 24 46 117.125 46 232C46 315.358 33.0326 387.263 14.3115 420.444C45.8495 399.723 126.047 385 220 385C341.503 385 440 409.624 440 440C440 470.376 341.503 495 220 495C98.4974 495 0 470.376 0 440C0 439.001 0.107132 438.009 0.317383 437.023C-2.71177 438.979 -5.82347 440 -9 440C-39.3757 440 -64 346.875 -64 232C-64 117.125 -39.3757 24 -9 24ZM460 24C490.376 24 515 117.125 515 232C515 346.875 490.376 440 460 440C429.624 440 405 346.875 405 232C405 117.125 429.624 24 460 24ZM220 -46C341.503 -46 440 -21.3757 440 9C440 39.3757 341.503 64 220 64C98.4974 64 0 39.3757 0 9C0 -21.3757 98.4974 -46 220 -46Z" fill="white"/>
</g>
<g clip-path="url(#clip1_3177_6228)">
<path d="M329.301 45.2799L150.986 18.6394C144.926 17.734 139.28 21.908 138.375 27.9623L100.638 280.553C99.7333 286.607 103.913 292.249 109.973 293.155L288.288 319.795C294.348 320.701 299.995 316.527 300.899 310.472L338.636 57.8816C339.541 51.8273 335.361 46.1853 329.301 45.2799Z" fill="white"/>
<path d="M154.569 48.8149C151.314 48.3286 149.604 45.7008 150.155 42.0075C150.704 38.3382 153.126 36.3115 156.365 36.7954C158.921 37.1773 160.642 39.0186 160.683 41.3886L158.874 41.1185C158.702 39.6891 157.629 38.6177 156.126 38.3932C154.021 38.0786 152.397 39.6007 151.996 42.2824C151.592 44.9882 152.686 46.9002 154.816 47.2184C156.367 47.4501 157.597 46.8622 158.2 45.6308L160.009 45.901C159.167 48.1229 157.173 49.204 154.569 48.8149ZM164.861 50.2951C162.442 49.9336 161.099 48.0339 161.506 45.312C161.911 42.5982 163.759 41.1751 166.17 41.5353C168.581 41.8955 169.932 43.7965 169.527 46.5103C169.12 49.2322 167.28 50.6565 164.861 50.2951ZM165.075 48.8659C166.441 49.07 167.478 48.125 167.758 46.2462C168.038 44.3754 167.315 43.1674 165.956 42.9645C164.598 42.7616 163.553 43.7054 163.274 45.5762C162.993 47.455 163.716 48.663 165.075 48.8659ZM173.569 51.596C171.592 51.3007 170.363 50.1238 170.443 48.5434L172.155 48.7991C172.222 49.5562 172.805 50.0537 173.778 50.199C174.887 50.3647 175.582 49.9433 175.694 49.1966C175.82 48.3535 175.307 47.8829 174.158 47.7112L172.92 47.5263L173.111 46.2496L174.324 46.4309C175.297 46.5762 175.858 46.2825 175.969 45.5438C176.066 44.8935 175.668 44.3662 174.679 44.2185C173.747 44.0792 173.06 44.387 172.849 45.0286L171.186 44.7801C171.587 43.305 172.989 42.5541 174.878 42.8363C176.927 43.1425 177.9 44.2235 177.69 45.6286C177.561 46.4877 176.922 47.1391 176.071 47.2254L176.061 47.2896C177.101 47.6994 177.567 48.4832 177.423 49.4467C177.183 51.0525 175.667 51.9094 173.569 51.596ZM184.571 51.672L185.423 45.9714L182.482 45.532L181.766 48.7248C181.553 49.7108 181.215 50.5467 180.748 51.0351L180.738 51.0993L184.571 51.672ZM179.229 54.543L177.63 54.3041L178.166 50.715L178.849 50.8171C179.526 50.5242 179.959 49.5465 180.21 48.4184L181.192 43.9356L187.357 44.8566L186.3 51.9302L187.61 52.1259L187.073 55.7149L185.466 55.4748L185.797 53.2587L179.56 52.327L179.229 54.543ZM191.892 52.9134C193.105 53.0947 194.178 52.4014 194.343 51.3014L194.442 50.635L192.342 50.4525C191.294 50.3699 190.639 50.7398 190.531 51.4625C190.421 52.2012 190.96 52.7741 191.892 52.9134ZM191.204 54.2143C189.549 53.967 188.545 52.7664 188.772 51.2489C188.993 49.7716 190.261 49.0335 192.287 49.2213L194.622 49.4306L194.719 48.7803C194.86 47.8409 194.309 47.184 193.248 47.0255C192.243 46.8754 191.544 47.2635 191.279 47.9954L189.639 47.7505C189.964 46.2394 191.434 45.3098 193.523 45.622C195.573 45.9281 196.721 47.2079 196.468 48.902L195.598 54.7231L193.934 54.4745L194.142 53.0855L194.102 53.0794C193.471 53.9456 192.314 54.3801 191.204 54.2143ZM199.299 55.2759L197.587 55.0202L198.849 46.5736L200.561 46.8294L199.677 52.7468L199.741 52.7564L204.531 47.4226L206.243 47.6783L204.981 56.1249L203.269 55.8691L204.156 49.9357L204.091 49.9261L199.299 55.2759ZM200.552 43.0359L201.726 43.2112C201.598 44.1196 202.074 44.8966 202.982 45.0323C203.898 45.1692 204.58 44.5651 204.724 43.6591L205.897 43.8344C205.67 45.3519 204.44 46.2187 202.84 45.9797C201.249 45.742 200.326 44.5534 200.552 43.0359ZM214.702 48.942L214.497 50.315L211.845 49.9188L210.788 56.9924L209.06 56.7342L210.116 49.6606L207.464 49.2644L207.669 47.8914L214.702 48.942ZM219.334 50.9064C218.121 50.7251 217.13 51.5211 216.851 52.7845L221.079 53.4161C221.232 52.1175 220.547 51.0877 219.334 50.9064ZM220.694 55.9361L222.342 56.1822C221.87 57.6878 220.243 58.5693 218.306 58.2798C215.823 57.9089 214.57 56.0061 214.969 53.3405C215.365 50.6909 217.156 49.1527 219.543 49.5093C221.89 49.8599 223.105 51.7324 222.722 54.2937L222.634 54.8879L216.662 53.9958L216.647 54.1001C216.427 55.5694 217.166 56.673 218.556 56.8807C219.545 57.0284 220.351 56.6399 220.694 55.9361ZM230.376 58.663C231.59 58.8443 232.663 58.151 232.827 57.051L232.927 56.3846L230.826 56.2021C229.778 56.1195 229.123 56.4895 229.015 57.2121C228.905 57.9508 229.444 58.5238 230.376 58.663ZM229.689 59.964C228.033 59.7166 227.03 58.516 227.256 56.9985C227.477 55.5212 228.745 54.7831 230.772 54.9709L233.107 55.1802L233.204 54.5299C233.344 53.5905 232.793 52.9337 231.732 52.7751C230.728 52.625 230.029 53.0131 229.763 53.745L228.124 53.5001C228.448 51.989 229.918 51.0594 232.008 51.3716C234.057 51.6778 235.206 52.9575 234.952 54.6516L234.083 60.4727L232.419 60.2241L232.626 58.8351L232.586 58.8291C231.956 59.6952 230.798 60.1297 229.689 59.964ZM240.173 56.8023L243.394 61.8637L241.215 61.5383L238.446 57.1435L238.381 57.1339L237.799 61.028L236.072 60.7698L237.334 52.3232L239.061 52.5814L238.522 56.1945L238.586 56.2041L242.437 53.0857L244.511 53.3955L240.173 56.8023ZM248.744 58.0829L251.965 63.1442L249.787 62.8189L247.017 58.4241L246.953 58.4145L246.371 62.3086L244.643 62.0504L245.905 53.6038L247.633 53.862L247.093 57.4751L247.158 57.4847L251.008 54.3663L253.082 54.6761L248.744 58.0829ZM256.155 62.5144C257.368 62.6957 258.441 62.0023 258.605 60.9023L258.705 60.2359L256.604 60.0534C255.557 59.9708 254.902 60.3408 254.794 61.0634C254.683 61.8021 255.222 62.3751 256.155 62.5144ZM255.467 63.8153C253.812 63.5679 252.808 62.3673 253.035 60.8498C253.255 59.3725 254.524 58.6345 256.55 58.8223L258.885 59.0316L258.982 58.3812C259.122 57.4418 258.571 56.7849 257.511 56.6264C256.506 56.4764 255.807 56.8645 255.542 57.5964L253.902 57.3514C254.227 55.8403 255.696 54.9107 257.786 55.2229C259.835 55.5291 260.983 56.8087 260.73 58.5029L259.861 64.3239L258.197 64.0754L258.405 62.6864L258.365 62.6804C257.734 63.5466 256.576 63.981 255.467 63.8153ZM262.223 67.8946C262.087 67.8742 261.647 67.7921 261.522 67.7487L261.732 66.3437C261.856 66.3951 262.146 66.4383 262.29 66.4599C263.102 66.5811 263.578 66.3076 263.973 65.4801C263.975 65.464 264.202 64.989 264.203 64.981L262.412 56.0701L264.293 56.3511L265.412 63.5445L265.437 63.5482L268.609 56.9958L270.442 57.2696L265.939 65.6835C264.91 67.6229 263.984 68.1576 262.223 67.8946ZM276.055 66.7434L276.605 63.0661L272.779 62.4945L272.229 66.1718L270.501 65.9137L271.763 57.4671L273.491 57.7253L272.983 61.1296L276.809 61.7012L277.317 58.2969L279.045 58.555L277.783 67.0016L276.055 66.7434ZM287.52 59.8212L287.315 61.1942L284.663 60.7979L283.606 67.8715L281.878 67.6134L282.935 60.5398L280.282 60.1435L280.488 58.7705L287.52 59.8212Z" fill="#0C1421"/>
<path d="M148.137 72.9575C146.36 72.692 145.427 71.2349 145.732 69.1964C146.034 67.1756 147.367 66.0435 149.13 66.307C150.501 66.5118 151.429 67.4802 151.481 68.7511L150.66 68.6284C150.546 67.7998 149.904 67.1795 149.02 67.0474C147.761 66.8593 146.792 67.754 146.558 69.3198C146.322 70.8988 146.979 72.0276 148.252 72.2177C149.167 72.3545 149.891 72.0298 150.256 71.3315L151.077 71.4543C150.578 72.6292 149.53 73.1656 148.137 72.9575ZM153.733 73.7665C152.447 73.5744 151.719 72.5214 151.94 71.0451C152.161 69.5643 153.164 68.7747 154.45 68.9668C155.732 69.1583 156.461 70.2067 156.239 71.6875C156.019 73.1638 155.015 73.958 153.733 73.7665ZM153.835 73.0841C154.657 73.2068 155.286 72.662 155.449 71.5695C155.612 70.4764 155.17 69.772 154.348 69.6492C153.527 69.5265 152.893 70.0702 152.73 71.1632C152.567 72.2558 153.014 72.9614 153.835 73.0841ZM158.383 74.4613C157.365 74.3092 156.703 73.6994 156.74 72.9022L157.526 73.0196C157.555 73.439 157.903 73.733 158.479 73.819C159.154 73.9198 159.577 73.6542 159.644 73.2039C159.722 72.6823 159.409 72.3936 158.708 72.2889L158.011 72.1848L158.106 71.5513L158.803 71.6554C159.392 71.7434 159.729 71.5659 159.797 71.1109C159.855 70.7227 159.62 70.4004 159.022 70.311C158.472 70.229 158.053 70.4082 157.935 70.7688L157.181 70.6561C157.394 69.9034 158.136 69.5175 159.118 69.6642C160.177 69.8223 160.677 70.4168 160.565 71.1618C160.495 71.6345 160.128 72.0085 159.648 72.0464L159.643 72.082C160.234 72.3073 160.493 72.747 160.413 73.2823C160.283 74.1474 159.473 74.624 158.383 74.4613ZM164.364 74.6208L164.867 71.2571L163.125 70.997L162.691 72.9297C162.565 73.4987 162.369 73.985 162.106 74.2465L162.101 74.2825L164.364 74.6208ZM161.268 76.0643L160.545 75.9563L160.824 74.0918L161.212 74.1498C161.585 73.9771 161.836 73.4222 161.974 72.8045L162.538 70.2573L165.735 70.7349L165.137 74.7362L165.873 74.8462L165.595 76.7107L164.872 76.6027L165.055 75.3758L161.452 74.8375L161.268 76.0643ZM168.189 75.251C168.921 75.3604 169.56 74.9315 169.66 74.2628L169.717 73.8832L168.464 73.774C167.833 73.7204 167.435 73.9438 167.369 74.3809C167.303 74.8226 167.631 75.1676 168.189 75.251ZM167.916 75.8854C166.992 75.7474 166.454 75.0969 166.579 74.2629C166.698 73.469 167.384 73.0607 168.465 73.1582L169.807 73.2812L169.865 72.8934C169.949 72.3266 169.625 71.9316 168.982 71.8355C168.384 71.7462 167.967 71.971 167.801 72.4113L167.05 72.2992C167.224 71.5047 168.003 70.9917 169.102 71.1558C170.191 71.3186 170.791 72.0101 170.653 72.9336L170.174 76.1406L169.437 76.0305L169.556 75.2321L169.539 75.2294C169.182 75.7188 168.541 75.9788 167.916 75.8854ZM172.105 76.4291L171.337 76.3144L172.03 71.6755L172.798 71.7902L172.282 75.2424L172.318 75.2478L175.156 72.1424L175.924 72.2571L175.23 76.896L174.462 76.7813L174.978 73.3286L174.943 73.3233L172.105 76.4291ZM172.924 69.7567L173.495 69.8421C173.418 70.3596 173.692 70.8157 174.224 70.8951C174.755 70.9745 175.15 70.6184 175.228 70.1009L175.799 70.1863C175.677 71.0071 175.008 71.482 174.155 71.3546C173.302 71.2272 172.801 70.5775 172.924 69.7567ZM180.502 72.9412L180.407 73.5789L178.907 73.3547L178.309 77.3559L177.541 77.2412L178.139 73.24L176.639 73.0158L176.734 72.3782L180.502 72.9412ZM183.001 73.9211C182.273 73.8124 181.681 74.2936 181.516 75.0582L184.039 75.4351C184.137 74.6564 183.733 74.0305 183.001 73.9211ZM183.814 76.8196L184.578 76.9337C184.323 77.7254 183.447 78.2058 182.434 78.0544C181.103 77.8556 180.433 76.8113 180.651 75.3528C180.866 73.9122 181.833 73.0579 183.115 73.2494C184.37 73.4368 185.006 74.4621 184.797 75.8672L184.753 76.1618L181.421 75.6641L181.415 75.7088C181.282 76.5963 181.717 77.2586 182.552 77.3833C183.141 77.4714 183.62 77.2374 183.814 76.8196ZM188.98 78.3571C189.712 78.4666 190.351 78.0376 190.451 77.3689L190.508 76.9894L189.255 76.8803C188.624 76.8266 188.226 77.05 188.16 77.4871C188.094 77.9288 188.422 78.2738 188.98 78.3571ZM188.707 78.9916C187.783 78.8535 187.246 78.2031 187.37 77.3691C187.489 76.5752 188.175 76.1669 189.256 76.2644L190.598 76.3874L190.656 75.9996C190.74 75.4327 190.416 75.0378 189.773 74.9417C189.175 74.8523 188.758 75.0772 188.591 75.5175L187.841 75.4054C188.015 74.6109 188.795 74.0979 189.893 74.262C190.982 74.4248 191.582 75.1163 191.444 76.0399L190.965 79.2468L190.228 79.1367L190.347 78.3383L190.329 78.3356C189.973 78.825 189.332 79.085 188.707 78.9916ZM194.069 77.2114L195.936 79.9895L194.936 79.8401L193.265 77.3102L193.229 77.3049L192.896 79.5353L192.128 79.4205L192.821 74.7816L193.589 74.8964L193.282 76.9482L193.318 76.9535L195.607 75.1979L196.567 75.3413L194.069 77.2114ZM198.617 77.8908L200.484 80.6689L199.484 80.5195L197.812 77.9896L197.777 77.9843L197.443 80.2147L196.675 80.0999L197.368 75.461L198.136 75.5758L197.83 77.6276L197.865 77.6329L200.155 75.8773L201.115 76.0207L198.617 77.8908ZM202.712 80.4087C203.444 80.5181 204.083 80.0892 204.183 79.4205L204.24 79.041L202.987 78.9318C202.356 78.8781 201.958 79.1016 201.892 79.5387C201.826 79.9804 202.153 80.3253 202.712 80.4087ZM202.439 81.0432C201.515 80.9051 200.977 80.2547 201.102 79.4206C201.22 78.6268 201.907 78.2185 202.988 78.316L204.33 78.4389L204.388 78.0511C204.472 77.4843 204.148 77.0894 203.505 76.9933C202.907 76.9039 202.489 77.1287 202.323 77.5691L201.573 77.457C201.747 76.6624 202.526 76.1494 203.624 76.3135C204.714 76.4763 205.314 77.1678 205.176 78.0914L204.697 81.2983L203.96 81.1883L204.079 80.3899L204.061 80.3872C203.705 80.8766 203.064 81.1366 202.439 81.0432ZM205.989 83.2654C205.895 83.2513 205.74 83.2189 205.658 83.1884L205.755 82.5371C205.838 82.568 205.957 82.5901 206.056 82.6048C206.489 82.6695 206.761 82.4959 207.02 81.9831L207.176 81.6735L206.156 76.7738L206.986 76.8979L207.695 80.9529L207.708 80.9549L209.571 77.2841L210.388 77.4063L207.82 82.0979C207.261 83.1225 206.828 83.3908 205.989 83.2654ZM213.537 82.6191L213.849 80.5317L211.559 80.1895L211.247 82.2769L210.479 82.1622L211.172 77.5233L211.94 77.638L211.654 79.5514L213.945 79.8936L214.23 77.9803L214.998 78.0949L214.305 82.7338L213.537 82.6191ZM219.582 78.7797L219.486 79.4174L217.986 79.1932L217.388 83.1944L216.62 83.0798L217.218 79.0785L215.718 78.8543L215.813 78.2167L219.582 78.7797ZM219.686 84.8466L219.038 84.7499L219.811 82.5441L220.637 82.6675L219.686 84.8466ZM226.861 84.6097L226.093 84.4949L226.392 82.492L226.325 82.482C226.043 82.6589 225.65 82.7506 225.145 82.6751C224.034 82.5091 223.55 81.7485 223.698 80.7582L223.897 79.4244L224.665 79.5391L224.467 80.8637C224.376 81.4703 224.644 81.9073 225.269 82.0007C225.845 82.0867 226.257 81.9292 226.507 81.7205L226.786 79.856L227.554 79.9708L226.861 84.6097ZM232.137 80.6555L232.042 81.2931L230.541 81.069L229.944 85.0703L229.176 84.9555L229.773 80.9543L228.273 80.7301L228.368 80.0925L232.137 80.6555ZM234.081 85.7706C232.796 85.5786 232.067 84.5255 232.288 83.0493C232.509 81.5684 233.513 80.7789 234.798 80.971C236.08 81.1624 236.809 82.2109 236.588 83.6917C236.367 85.168 235.363 85.9621 234.081 85.7706ZM234.183 85.0882C235.005 85.211 235.634 84.6662 235.797 83.5736C235.961 82.4806 235.518 81.7761 234.697 81.6534C233.875 81.5307 233.242 82.0743 233.078 83.1674C232.915 84.26 233.362 84.9655 234.183 85.0882ZM239.174 86.5315C237.75 86.3187 237.142 85.2519 237.417 83.4098C237.8 80.8492 238.638 79.8845 240.452 80.0873L240.797 80.1255C241.247 80.1698 241.761 80.155 242.045 80.0564L241.943 80.7342C241.776 80.846 241.268 80.8887 240.729 80.831L240.383 80.7929C239.085 80.649 238.616 81.1585 238.222 82.5176L238.257 82.523C238.643 82.0198 239.266 81.821 239.98 81.9277C241.235 82.1152 241.902 83.1175 241.696 84.5006C241.478 85.959 240.518 86.7322 239.174 86.5315ZM239.277 85.8445C240.147 85.9745 240.742 85.4479 240.901 84.3819C241.052 83.3692 240.634 82.7183 239.763 82.5882C238.888 82.4575 238.297 82.9576 238.146 83.9702C237.987 85.0363 238.401 85.7137 239.277 85.8445ZM246.287 87.512L246.98 82.8731L247.749 82.9879L247.056 87.6268L246.287 87.512ZM244.324 84.6421L243.458 84.5126L243.177 86.3954L244.043 86.5249C244.646 86.6149 245.09 86.298 245.175 85.7316C245.26 85.1606 244.922 84.7314 244.324 84.6421ZM242.314 86.9184L243.007 82.2795L243.774 82.3942L243.553 83.875L244.433 84.0064C245.495 84.1652 246.087 84.8784 245.943 85.8463C245.798 86.8141 245.024 87.3232 243.961 87.1645L242.314 86.9184ZM253.217 88.5473L253.815 84.5461L251.569 84.2105L250.971 88.2118L250.203 88.097L250.896 83.4581L254.682 84.0238L253.989 88.6627L253.217 88.5473ZM257.087 89.2077C255.801 89.0156 255.073 87.9626 255.294 86.4864C255.515 85.0055 256.518 84.2159 257.804 84.4081C259.086 84.5995 259.815 85.6479 259.593 87.1287C259.373 88.605 258.369 89.3992 257.087 89.2077ZM257.189 88.5253C258.011 88.6481 258.64 88.1033 258.803 87.0107C258.967 85.9177 258.524 85.2132 257.702 85.0905C256.881 84.9677 256.247 85.5114 256.084 86.6044C255.92 87.697 256.368 88.4026 257.189 88.5253ZM261.568 87.7021C261.284 88.968 260.855 89.7295 259.877 89.5835C259.743 89.5635 259.658 89.5231 259.607 89.4927L259.712 88.7925C259.75 88.8122 259.832 88.8469 259.944 88.8635C260.404 88.9323 260.658 88.4188 260.843 87.5756L261.407 85.0284L264.447 85.4827L263.754 90.1216L262.986 90.0069L263.584 86.0056L262.004 85.7695L261.568 87.7021ZM265.073 92.0926C264.979 92.0786 264.824 92.0461 264.742 92.0157L264.84 91.3643C264.922 91.3952 265.042 91.4174 265.14 91.4321C265.573 91.4968 265.846 91.3232 266.105 90.8104L266.261 90.5008L265.24 85.6011L266.07 85.7252L266.779 89.7801L266.792 89.7822L268.655 86.1114L269.472 86.2335L266.905 90.9252C266.345 91.9498 265.913 92.218 265.073 92.0926ZM273.104 91.5184L272.336 91.4037L272.635 89.4008L272.568 89.3908C272.286 89.5676 271.894 89.6594 271.389 89.584C270.277 89.4179 269.793 88.6572 269.941 87.6669L270.14 86.3332L270.908 86.448L270.71 87.7726C270.619 88.3792 270.887 88.8161 271.512 88.9095C272.089 88.9956 272.5 88.838 272.75 88.6293L273.029 86.7648L273.797 86.8795L273.104 91.5184ZM275.057 91.8102L274.289 91.6956L274.982 87.0567L275.75 87.1713L275.234 90.6236L275.27 90.629L278.108 87.5236L278.875 87.6383L278.182 92.2772L277.415 92.1625L277.931 88.7098L277.895 88.7045L275.057 91.8102ZM283.455 88.3224L283.359 88.9601L281.859 88.7359L281.261 92.7372L280.493 92.6224L281.091 88.6212L279.591 88.3971L279.686 87.7594L283.455 88.3224ZM285.582 90.8061L284.716 90.6767L284.435 92.5595L285.301 92.6889C285.904 92.779 286.348 92.4619 286.433 91.8956C286.518 91.3246 286.181 90.8955 285.582 90.8061ZM283.572 93.0824L284.265 88.4435L285.033 88.5582L284.812 90.0391L285.691 90.1705C286.754 90.3292 287.346 91.0424 287.201 92.0103C287.056 92.9782 286.282 93.4873 285.219 93.3285L283.572 93.0824ZM293.048 93.8462L293.55 90.4826L291.809 90.2225L291.374 92.1551C291.248 92.7242 291.052 93.2105 290.789 93.4719L290.784 93.508L293.048 93.8462ZM289.952 95.2898L289.228 95.1817L289.507 93.3172L289.896 93.3753C290.268 93.2026 290.52 92.6476 290.658 92.0299L291.221 89.4828L294.418 89.9604L293.82 93.9617L294.557 94.0717L294.278 95.9362L293.555 95.8281L293.738 94.6013L290.135 94.0629L289.952 95.2898ZM297.166 95.1956C295.881 95.0035 295.152 93.9505 295.373 92.4743C295.594 90.9934 296.598 90.2039 297.884 90.3959C299.165 90.5874 299.894 91.6359 299.673 93.1167C299.452 94.593 298.448 95.3871 297.166 95.1956ZM297.268 94.5132C298.09 94.636 298.719 94.0912 298.882 92.9986C299.046 91.9056 298.603 91.2011 297.782 91.0784C296.96 90.9556 296.327 91.4993 296.163 92.5924C296 93.6849 296.447 94.3905 297.268 94.5132ZM304.603 92.9413L303.836 92.8266C303.768 92.3604 303.446 91.9246 302.789 91.8265C301.981 91.7058 301.348 92.3088 301.193 93.3438C301.035 94.4053 301.477 95.1419 302.285 95.2627C302.901 95.3547 303.353 95.1121 303.576 94.6212L304.345 94.736C304.062 95.5916 303.223 96.1005 302.178 95.9444C300.888 95.7517 300.182 94.702 300.403 93.2257C300.619 91.7805 301.601 90.9513 302.886 91.1434C304.007 91.3109 304.583 92.131 304.603 92.9413ZM309.034 92.144L308.939 92.7817L307.439 92.5575L306.841 96.5588L306.073 96.444L306.67 92.4428L305.17 92.2187L305.266 91.581L309.034 92.144ZM309.281 98.6973C309.187 98.6833 309.032 98.6508 308.949 98.6203L309.047 97.9689C309.129 97.9999 309.249 98.022 309.347 98.0367C309.78 98.1014 310.053 97.9278 310.312 97.415L310.468 97.1053L309.447 92.2057L310.277 92.3298L310.986 96.3848L310.999 96.3868L312.863 92.716L313.68 92.8381L311.112 97.5299C310.553 98.5544 310.12 98.8227 309.281 98.6973ZM316.784 98.0443L317.382 94.0431L315.136 93.7075L314.538 97.7088L313.77 97.5941L314.463 92.9552L318.25 93.5209L317.557 98.1598L316.784 98.0443ZM145.406 83.016L147.273 85.7941L146.273 85.6447L144.602 83.1148L144.566 83.1095L144.233 85.3398L143.465 85.2251L144.158 80.5862L144.926 80.7009L144.619 82.7527L144.655 82.758L146.944 81.0024L147.904 81.1459L145.406 83.016ZM151.896 86.5669C150.61 86.3748 149.882 85.3218 150.102 83.8455C150.324 82.3647 151.327 81.5751 152.613 81.7672C153.894 81.9587 154.623 83.0071 154.402 84.4879C154.182 85.9642 153.177 86.7583 151.896 86.5669ZM151.998 85.8845C152.819 86.0072 153.449 85.4624 153.612 84.3699C153.775 83.2768 153.333 82.5724 152.511 82.4496C151.69 82.3269 151.056 82.8706 150.893 83.9636C150.729 85.0562 151.176 85.7618 151.998 85.8845ZM157.278 86.6733L157.791 83.2384C156.796 83.1127 156.07 83.6654 155.913 84.7137C155.758 85.7574 156.291 86.4983 157.278 86.6733ZM159.901 85.3094C160.057 84.2657 159.524 83.5249 158.541 83.3505L158.028 86.7854C159.018 86.9104 159.744 86.3577 159.901 85.3094ZM157.179 87.3333C155.736 87.0902 154.918 86.0289 155.132 84.597C155.346 83.165 156.439 82.3847 157.89 82.5784L158.109 81.1108L158.859 81.2229L158.64 82.6905C160.073 82.9318 160.896 83.9942 160.682 85.4262C160.468 86.8581 159.37 87.6378 157.929 87.4454L157.707 88.9354L156.957 88.8233L157.179 87.3333ZM163.567 87.6129L164.08 84.178C163.085 84.0523 162.359 84.605 162.202 85.6533C162.046 86.697 162.579 87.4378 163.567 87.6129ZM166.19 86.249C166.346 85.2053 165.813 84.4644 164.83 84.2901L164.317 87.7249C165.307 87.85 166.033 87.2973 166.19 86.249ZM163.468 88.2729C162.025 88.0298 161.207 86.9685 161.421 85.5365C161.635 84.1046 162.728 83.3242 164.178 83.518L164.398 82.0504L165.148 82.1625L164.929 83.63C166.362 83.8713 167.185 84.9338 166.971 86.3657C166.757 87.7977 165.659 88.5774 164.218 88.385L163.996 89.8749L163.245 89.7629L163.468 88.2729ZM170.057 85.0622C169.33 84.9535 168.737 85.4347 168.573 86.1993L171.096 86.5762C171.194 85.7974 170.79 85.1716 170.057 85.0622ZM170.871 87.9607L171.634 88.0748C171.379 88.8664 170.504 89.3469 169.49 89.1955C168.16 88.9967 167.489 87.9524 167.707 86.4939C167.922 85.0533 168.89 84.199 170.171 84.3905C171.426 84.5779 172.063 85.6032 171.853 87.0082L171.809 87.3028L168.478 86.8052L168.471 86.8499C168.339 87.7374 168.774 88.3997 169.609 88.5244C170.198 88.6125 170.676 88.3785 170.871 87.9607ZM175.411 85.1733C176.594 85.35 177.257 86.4156 177.039 87.87C176.822 89.3238 175.882 90.1504 174.712 89.9756C174.047 89.8762 173.559 89.4705 173.359 88.9208L173.341 88.9181L172.997 91.2197L172.22 91.1037L173.144 84.9168L173.881 85.0269L173.764 85.8116L173.782 85.8142C174.145 85.3353 174.737 85.0725 175.411 85.1733ZM174.644 89.2679C175.47 89.3913 176.087 88.8041 176.245 87.7512C176.401 86.703 175.983 85.9564 175.157 85.833C174.363 85.7143 173.724 86.3212 173.57 87.3516C173.415 88.3867 173.849 89.1491 174.644 89.2679ZM179.269 89.9812C180.001 90.0906 180.64 89.6617 180.74 88.993L180.797 88.6134L179.544 88.5042C178.913 88.4506 178.515 88.6741 178.449 89.1112C178.383 89.5529 178.71 89.8978 179.269 89.9812ZM178.996 90.6156C178.072 90.4776 177.534 89.8271 177.659 88.9931C177.777 88.1992 178.464 87.7909 179.545 87.8885L180.887 88.0114L180.945 87.6236C181.029 87.0568 180.705 86.6618 180.062 86.5658C179.464 86.4764 179.047 86.7013 178.881 87.1415L178.13 87.0294C178.304 86.2349 179.083 85.7219 180.182 85.8861C181.272 86.0488 181.871 86.7403 181.733 87.6639L181.254 90.8708L180.517 90.7607L180.636 89.9623L180.619 89.9597C180.263 90.4491 179.621 90.709 178.996 90.6156ZM183.185 91.1593L182.417 91.0446L183.11 86.4057L184.052 86.5465L185.164 90.4063L185.2 90.4116L187.401 87.0467L188.307 87.1821L187.614 91.821L186.842 91.7057L187.334 88.4138L187.302 88.4091L185.33 91.343L184.736 91.2543L183.708 87.8721L183.677 87.8674L183.185 91.1593ZM189.095 93.3511L188.447 93.2544L189.22 91.0486L190.046 91.172L189.095 93.3511ZM195.208 88.8561L194.096 88.69L193.902 89.9876L194.898 90.1364C195.482 90.2238 195.796 90.052 195.862 89.6058C195.923 89.1956 195.694 88.9288 195.208 88.8561ZM194.866 90.7705L193.808 90.6125L193.591 92.0709L194.787 92.2497C195.35 92.3338 195.692 92.1247 195.761 91.6565C195.835 91.1614 195.545 90.872 194.866 90.7705ZM192.728 92.5851L193.421 87.9462L195.409 88.2431C196.279 88.3732 196.743 88.9029 196.633 89.6388C196.562 90.112 196.162 90.4991 195.72 90.5241L195.715 90.5597C196.288 90.7275 196.609 91.2088 196.522 91.7884C196.4 92.6092 195.715 93.0314 194.729 92.884L192.728 92.5851ZM201.277 93.8622L201.97 89.2233L202.738 89.3381L202.045 93.977L201.277 93.8622ZM199.314 90.9923L198.448 90.8629L198.166 92.7457L199.032 92.8751C199.635 92.9652 200.08 92.6482 200.164 92.0818C200.249 91.5108 199.912 91.0817 199.314 90.9923ZM197.303 93.2686L197.996 88.6297L198.764 88.7444L198.543 90.2253L199.422 90.3566C200.485 90.5154 201.077 91.2286 200.932 92.1965C200.788 93.1644 200.013 93.6735 198.95 93.5147L197.303 93.2686ZM206.24 94.6037L206.837 90.6025L204.592 90.2669L203.994 94.2682L203.226 94.1534L203.919 89.5145L207.705 90.0802L207.012 94.7191L206.24 94.6037ZM209.74 93.0338C209.455 94.2996 209.026 95.0612 208.048 94.915C207.914 94.895 207.829 94.8548 207.779 94.8244L207.884 94.1242C207.922 94.1439 208.003 94.1784 208.115 94.1951C208.575 94.2638 208.83 93.7504 209.015 92.9072L209.578 90.3601L212.619 90.8143L211.926 95.4532L211.158 95.3385L211.755 91.3372L210.175 91.1011L209.74 93.0338ZM214.738 95.2804C215.47 95.3898 216.11 94.9609 216.21 94.2922L216.266 93.9126L215.014 93.8034C214.383 93.7498 213.984 93.9732 213.918 94.4103C213.852 94.852 214.18 95.197 214.738 95.2804ZM214.465 95.9148C213.541 95.7767 213.004 95.1263 213.128 94.2923C213.247 93.4984 213.933 93.0901 215.014 93.1877L216.356 93.3106L216.414 92.9228C216.499 92.356 216.174 91.961 215.531 91.8649C214.933 91.7756 214.516 92.0004 214.35 92.4407L213.6 92.3286C213.773 91.5341 214.553 91.0211 215.651 91.1852C216.741 91.348 217.34 92.0395 217.202 92.963L216.723 96.17L215.987 96.0599L216.106 95.2615L216.088 95.2589C215.732 95.7482 215.09 96.0082 214.465 95.9148ZM221.888 92.1991L221.793 92.8368L220.292 92.6127L219.695 96.6139L218.927 96.4992L219.524 92.4979L218.024 92.2738L218.119 91.6361L221.888 92.1991ZM223.449 96.5818C224.182 96.6912 224.821 96.2623 224.921 95.5936L224.977 95.214L223.724 95.1049C223.094 95.0512 222.695 95.2747 222.63 95.7118C222.564 96.1535 222.891 96.4984 223.449 96.5818ZM223.176 97.2163C222.252 97.0782 221.715 96.4277 221.839 95.5937C221.958 94.7998 222.644 94.3915 223.725 94.4891L225.067 94.612L225.125 94.2242C225.21 93.6574 224.886 93.2625 224.243 93.1664C223.644 93.077 223.227 93.3019 223.061 93.7421L222.311 93.6301C222.484 92.8355 223.264 92.3225 224.362 92.4867C225.452 92.6494 226.051 93.3409 225.913 94.2645L225.434 97.4714L224.698 97.3614L224.817 96.5629L224.799 96.5603C224.443 97.0496 223.801 97.3096 223.176 97.2163ZM227.365 97.7599L226.597 97.6452L227.29 93.0063L228.233 93.1471L229.345 97.0069L229.38 97.0122L231.581 93.6474L232.488 93.7828L231.794 98.4217L231.022 98.3063L231.514 95.0144L231.482 95.0097L229.511 97.9436L228.917 97.8549L227.888 94.4727L227.857 94.468L227.365 97.7599ZM235.71 99.0067L234.942 98.892L235.635 94.2531L236.403 94.3678L235.887 97.82L235.923 97.8253L238.761 94.72L239.529 94.8347L238.836 99.4736L238.068 99.3589L238.584 95.9062L238.548 95.9008L235.71 99.0067ZM244.997 100.394L245.595 96.3929L243.349 96.0574L242.751 100.059L241.984 99.9439L242.677 95.305L246.463 95.8707L245.77 100.51L244.997 100.394ZM248.867 101.055C247.582 100.862 246.853 99.8094 247.074 98.3332C247.295 96.8523 248.299 96.0628 249.584 96.2549C250.866 96.4463 251.595 97.4948 251.374 98.9756C251.153 100.452 250.149 101.246 248.867 101.055ZM248.969 100.372C249.791 100.495 250.42 99.9501 250.583 98.8575C250.747 97.7645 250.304 97.06 249.482 96.9373C248.661 96.8146 248.028 97.3582 247.864 98.4513C247.701 99.5439 248.148 100.249 248.969 100.372ZM255.067 101.247L255.57 97.8831L253.828 97.623L253.393 99.5557C253.267 100.125 253.072 100.611 252.809 100.872L252.803 100.909L255.067 101.247ZM251.971 102.69L251.248 102.582L251.526 100.718L251.915 100.776C252.288 100.603 252.539 100.048 252.677 99.4305L253.241 96.8833L256.437 97.3609L255.84 101.362L256.576 101.472L256.298 103.337L255.574 103.229L255.758 102.002L252.154 101.463L251.971 102.69ZM260.668 102.084L261.171 98.72L259.43 98.4598L258.995 100.393C258.869 100.962 258.673 101.448 258.41 101.709L258.405 101.745L260.668 102.084ZM257.572 103.527L256.849 103.419L257.128 101.555L257.516 101.613C257.889 101.44 258.141 100.885 258.279 100.267L258.842 97.7201L262.039 98.1978L261.441 102.199L262.178 102.309L261.899 104.174L261.176 104.066L261.359 102.839L257.756 102.3L257.572 103.527ZM265.341 99.2977C264.614 99.189 264.021 99.6702 263.857 100.435L266.38 100.812C266.477 100.033 266.073 99.4071 265.341 99.2977ZM266.154 102.196L266.918 102.31C266.662 103.102 265.788 103.582 264.774 103.431C263.443 103.232 262.773 102.188 262.991 100.729C263.206 99.2888 264.174 98.4345 265.455 98.626C266.71 98.8134 267.346 99.8387 267.136 101.244L267.092 101.538L263.761 101.041L263.755 101.085C263.622 101.973 264.058 102.635 264.892 102.76C265.482 102.848 265.959 102.614 266.154 102.196ZM270.695 99.4088C271.878 99.5855 272.54 100.651 272.323 102.105C272.106 103.559 271.165 104.386 269.996 104.211C269.331 104.112 268.843 103.706 268.642 103.156L268.624 103.154L268.281 105.455L267.504 105.339L268.428 99.1523L269.165 99.2624L269.047 100.047L269.065 100.05C269.429 99.5708 270.021 99.3081 270.695 99.4088ZM269.928 103.503C270.754 103.627 271.371 103.04 271.528 101.987C271.685 100.938 271.267 100.192 270.441 100.068C269.646 99.9498 269.008 100.557 268.854 101.587C268.699 102.622 269.133 103.385 269.928 103.503ZM277.095 102.69L278.828 105.449L277.833 105.3L276.29 102.789L276.255 102.784L275.921 105.014L275.153 104.9L275.487 102.669L275.455 102.665L273.247 104.615L272.265 104.468L274.713 102.349L273.007 99.8364L273.962 99.9791L275.509 102.308L275.54 102.312L275.846 100.261L276.615 100.375L276.308 102.427L276.344 102.432L278.503 100.658L279.45 100.799L277.095 102.69ZM281.517 103.351L283.385 106.129L282.385 105.98L280.713 103.45L280.677 103.445L280.344 105.675L279.576 105.56L280.269 100.921L281.037 101.036L280.731 103.088L280.766 103.093L283.055 101.338L284.015 101.481L281.517 103.351ZM286.505 102.46C285.777 102.351 285.185 102.832 285.02 103.597L287.543 103.974C287.641 103.195 287.237 102.569 286.505 102.46ZM287.318 105.358L288.082 105.472C287.827 106.264 286.951 106.744 285.938 106.593C284.607 106.394 283.937 105.35 284.155 103.891C284.37 102.451 285.337 101.596 286.619 101.788C287.874 101.975 288.51 103.001 288.3 104.406L288.256 104.7L284.925 104.203L284.918 104.247C284.786 105.135 285.221 105.797 286.056 105.922C286.645 106.01 287.124 105.776 287.318 105.358ZM289.504 107.089C289.218 107.047 289.028 106.79 289.071 106.504C289.114 106.219 289.37 106.029 289.656 106.072C289.941 106.115 290.131 106.371 290.089 106.656C290.046 106.942 289.789 107.132 289.504 107.089Z" fill="#313957"/>
<path d="M142.271 116.227L142.187 116.787L139.433 116.376L139.517 115.815L142.271 116.227ZM140.349 111.201L139.573 116.397L138.883 116.294L139.66 111.098L140.349 111.201ZM142.266 113.771L142.182 114.331L139.792 113.974L139.876 113.414L142.266 113.771ZM142.928 111.586L142.844 112.15L140.125 111.744L140.21 111.18L142.928 111.586ZM144.134 113.915L143.672 117.009L143.007 116.91L143.584 113.049L144.213 113.143L144.134 113.915ZM143.846 114.912L143.541 114.855C143.582 114.592 143.653 114.353 143.753 114.139C143.854 113.923 143.982 113.742 144.138 113.595C144.294 113.448 144.476 113.344 144.685 113.282C144.894 113.219 145.127 113.206 145.384 113.245C145.565 113.272 145.728 113.323 145.873 113.398C146.018 113.471 146.138 113.57 146.233 113.696C146.329 113.823 146.395 113.976 146.431 114.156C146.468 114.337 146.468 114.548 146.431 114.791L146.047 117.364L145.386 117.265L145.766 114.725C145.796 114.522 145.786 114.355 145.735 114.224C145.686 114.092 145.604 113.99 145.488 113.917C145.373 113.841 145.232 113.791 145.065 113.766C144.87 113.737 144.702 113.747 144.561 113.797C144.419 113.846 144.3 113.925 144.204 114.035C144.107 114.145 144.029 114.275 143.97 114.427C143.913 114.577 143.872 114.738 143.846 114.912ZM146.404 114.922L145.941 114.991C145.975 114.78 146.04 114.582 146.136 114.397C146.234 114.212 146.359 114.053 146.51 113.92C146.664 113.787 146.843 113.691 147.046 113.632C147.25 113.57 147.475 113.557 147.72 113.594C147.927 113.625 148.107 113.68 148.258 113.758C148.412 113.837 148.535 113.942 148.628 114.072C148.723 114.201 148.786 114.357 148.817 114.542C148.847 114.727 148.845 114.94 148.809 115.183L148.429 117.72L147.765 117.621L148.145 115.076C148.178 114.86 148.168 114.687 148.117 114.558C148.068 114.426 147.986 114.328 147.869 114.261C147.755 114.193 147.613 114.147 147.444 114.121C147.299 114.1 147.167 114.106 147.047 114.139C146.928 114.172 146.824 114.227 146.734 114.304C146.645 114.378 146.572 114.468 146.515 114.574C146.46 114.68 146.423 114.796 146.404 114.922ZM151.88 117.561L152.177 115.573C152.2 115.421 152.189 115.284 152.144 115.163C152.101 115.04 152.024 114.938 151.912 114.858C151.799 114.778 151.654 114.725 151.475 114.698C151.309 114.674 151.158 114.68 151.023 114.718C150.891 114.757 150.782 114.817 150.697 114.899C150.614 114.982 150.564 115.076 150.548 115.184L149.888 115.085C149.908 114.947 149.964 114.815 150.056 114.69C150.148 114.565 150.268 114.458 150.418 114.369C150.571 114.277 150.746 114.213 150.943 114.177C151.144 114.139 151.361 114.138 151.594 114.173C151.875 114.215 152.116 114.299 152.316 114.426C152.518 114.554 152.666 114.723 152.759 114.934C152.854 115.143 152.88 115.391 152.837 115.679L152.568 117.477C152.549 117.606 152.539 117.744 152.539 117.893C152.541 118.041 152.557 118.171 152.587 118.283L152.578 118.34L151.889 118.237C151.867 118.155 151.856 118.051 151.856 117.922C151.856 117.79 151.864 117.67 151.88 117.561ZM152.246 115.897L152.184 116.362L151.516 116.262C151.328 116.234 151.157 116.224 151.005 116.233C150.853 116.24 150.723 116.265 150.614 116.31C150.505 116.354 150.418 116.418 150.352 116.5C150.286 116.581 150.244 116.68 150.227 116.799C150.209 116.921 150.219 117.035 150.259 117.143C150.299 117.251 150.369 117.343 150.47 117.419C150.573 117.493 150.706 117.542 150.868 117.566C151.07 117.597 151.255 117.58 151.423 117.518C151.591 117.455 151.729 117.369 151.838 117.259C151.949 117.149 152.017 117.036 152.042 116.921L152.276 117.28C152.245 117.378 152.183 117.482 152.091 117.592C151.999 117.702 151.883 117.804 151.742 117.897C151.605 117.989 151.446 118.058 151.266 118.107C151.088 118.154 150.895 118.161 150.685 118.13C150.423 118.091 150.201 118.005 150.019 117.873C149.839 117.742 149.707 117.582 149.623 117.395C149.542 117.205 149.517 117.003 149.549 116.789C149.58 116.582 149.648 116.406 149.752 116.261C149.857 116.114 149.993 115.999 150.161 115.917C150.33 115.833 150.525 115.779 150.748 115.757C150.97 115.734 151.213 115.743 151.478 115.782L152.246 115.897ZM154.85 114.732L154.273 118.593L153.609 118.494L154.186 114.633L154.85 114.732ZM154.289 113.601C154.305 113.494 154.35 113.408 154.426 113.344C154.503 113.28 154.606 113.258 154.735 113.277C154.861 113.296 154.952 113.347 155.008 113.431C155.066 113.515 155.087 113.611 155.071 113.718C155.056 113.82 155.008 113.903 154.928 113.967C154.85 114.028 154.749 114.049 154.623 114.03C154.494 114.011 154.402 113.961 154.346 113.88C154.292 113.796 154.273 113.703 154.289 113.601ZM156.944 113.388L156.125 118.87L155.461 118.77L156.28 113.289L156.944 113.388Z" fill="#0C1421"/>
<path d="M306.734 146.274L143.05 121.819C139.893 121.348 136.953 123.522 136.482 126.675L134.844 137.637C134.373 140.791 136.55 143.729 139.706 144.201L303.39 168.655C306.546 169.127 309.487 166.953 309.958 163.8L311.596 152.837C312.067 149.684 309.89 146.745 306.734 146.274Z" fill="#F7FBFF" stroke="#D4D7E3"/>
<path d="M144.337 135.086L145.805 132.059L146.24 132.124L146.06 132.743L144.567 135.821L144.142 135.758L144.337 135.086ZM144.144 131.811L144.51 135.149L144.474 135.807L144.028 135.741L143.483 131.712L144.144 131.811ZM146.715 135.452L147.998 132.386L148.655 132.485L146.957 136.178L146.514 136.112L146.715 135.452ZM146.337 132.138L146.842 135.406L146.842 136.161L146.421 136.098L145.865 132.706L145.873 132.069L146.337 132.138ZM150.423 136.769C150.154 136.729 149.917 136.647 149.711 136.524C149.508 136.399 149.341 136.241 149.209 136.051C149.079 135.862 148.989 135.646 148.94 135.406C148.891 135.165 148.886 134.909 148.927 134.637L148.949 134.488C148.996 134.174 149.084 133.901 149.214 133.67C149.344 133.436 149.501 133.246 149.686 133.098C149.871 132.951 150.072 132.848 150.287 132.791C150.503 132.733 150.719 132.72 150.936 132.753C151.212 132.794 151.443 132.877 151.629 133.002C151.817 133.127 151.963 133.285 152.066 133.476C152.169 133.664 152.234 133.878 152.262 134.118C152.29 134.356 152.283 134.61 152.243 134.881L152.198 135.177L149.312 134.746L149.393 134.207L151.618 134.54L151.626 134.49C151.642 134.317 151.631 134.145 151.593 133.974C151.558 133.804 151.482 133.656 151.367 133.532C151.252 133.408 151.081 133.329 150.855 133.295C150.705 133.272 150.562 133.284 150.426 133.329C150.291 133.372 150.168 133.449 150.059 133.559C149.95 133.669 149.857 133.81 149.781 133.981C149.704 134.152 149.648 134.354 149.614 134.587L149.591 134.737C149.564 134.92 149.563 135.096 149.589 135.265C149.617 135.433 149.672 135.584 149.751 135.72C149.833 135.857 149.939 135.969 150.069 136.059C150.202 136.15 150.358 136.209 150.539 136.236C150.773 136.271 150.978 136.252 151.154 136.181C151.33 136.111 151.491 136.004 151.636 135.863L151.989 136.24C151.886 136.354 151.762 136.458 151.617 136.553C151.471 136.648 151.299 136.718 151.1 136.761C150.904 136.804 150.678 136.807 150.423 136.769ZM153.598 131.567L154.262 131.666L153.555 136.398L153.386 137.139L152.779 137.048L153.598 131.567ZM156.348 135.575L156.336 135.65C156.294 135.93 156.222 136.186 156.12 136.416C156.017 136.644 155.889 136.836 155.734 136.994C155.579 137.15 155.402 137.263 155.201 137.333C155.001 137.403 154.78 137.42 154.54 137.384C154.295 137.347 154.085 137.274 153.912 137.163C153.741 137.049 153.605 136.904 153.503 136.726C153.4 136.547 153.328 136.339 153.285 136.102C153.245 135.865 153.232 135.603 153.246 135.316L153.295 134.987C153.366 134.706 153.456 134.458 153.563 134.243C153.673 134.028 153.803 133.851 153.953 133.71C154.104 133.567 154.277 133.468 154.472 133.412C154.669 133.354 154.888 133.343 155.131 133.379C155.374 133.416 155.582 133.495 155.756 133.618C155.93 133.739 156.068 133.896 156.168 134.089C156.271 134.281 156.337 134.504 156.368 134.757C156.398 135.007 156.392 135.28 156.348 135.575ZM155.672 135.55L155.683 135.475C155.712 135.283 155.721 135.099 155.711 134.925C155.701 134.749 155.666 134.59 155.606 134.45C155.547 134.307 155.459 134.19 155.342 134.096C155.224 134.001 155.072 133.939 154.883 133.911C154.717 133.886 154.567 133.893 154.435 133.932C154.305 133.971 154.19 134.033 154.089 134.117C153.99 134.2 153.903 134.299 153.83 134.414C153.759 134.528 153.701 134.648 153.655 134.775L153.527 135.635C153.54 135.807 153.578 135.977 153.641 136.144C153.706 136.31 153.804 136.452 153.935 136.571C154.068 136.691 154.243 136.767 154.459 136.799C154.638 136.826 154.796 136.813 154.933 136.76C155.072 136.706 155.191 136.62 155.289 136.504C155.389 136.387 155.471 136.247 155.534 136.084C155.597 135.921 155.643 135.743 155.672 135.55ZM158.083 134.678L157.621 137.771L156.956 137.672L157.533 133.811L158.162 133.905L158.083 134.678ZM157.795 135.674L157.49 135.618C157.531 135.354 157.602 135.115 157.702 134.902C157.803 134.685 157.931 134.504 158.087 134.357C158.243 134.21 158.425 134.106 158.634 134.045C158.843 133.981 159.076 133.969 159.333 134.007C159.514 134.034 159.677 134.085 159.822 134.16C159.967 134.233 160.087 134.332 160.182 134.459C160.278 134.585 160.344 134.738 160.38 134.919C160.417 135.099 160.417 135.311 160.38 135.553L159.996 138.126L159.335 138.028L159.715 135.487C159.745 135.285 159.735 135.118 159.684 134.986C159.635 134.855 159.553 134.753 159.437 134.679C159.322 134.604 159.181 134.553 159.014 134.528C158.819 134.499 158.651 134.509 158.51 134.559C158.368 134.608 158.249 134.688 158.153 134.797C158.056 134.907 157.978 135.037 157.919 135.189C157.862 135.339 157.821 135.501 157.795 135.674ZM160.354 135.684L159.89 135.754C159.924 135.543 159.989 135.344 160.085 135.159C160.183 134.974 160.308 134.815 160.459 134.683C160.613 134.55 160.792 134.453 160.996 134.394C161.199 134.332 161.424 134.32 161.669 134.356C161.877 134.387 162.056 134.442 162.207 134.52C162.361 134.599 162.484 134.704 162.577 134.834C162.672 134.963 162.735 135.12 162.766 135.304C162.797 135.489 162.794 135.702 162.758 135.945L162.379 138.482L161.714 138.383L162.094 135.839C162.127 135.622 162.117 135.449 162.066 135.32C162.017 135.188 161.935 135.09 161.818 135.024C161.704 134.956 161.563 134.909 161.393 134.884C161.248 134.862 161.116 134.868 160.996 134.901C160.877 134.935 160.773 134.989 160.683 135.066C160.594 135.14 160.521 135.23 160.464 135.336C160.409 135.442 160.372 135.558 160.354 135.684ZM165.829 138.323L166.126 136.335C166.149 136.183 166.138 136.046 166.093 135.925C166.05 135.802 165.973 135.701 165.861 135.621C165.749 135.54 165.603 135.487 165.424 135.461C165.258 135.436 165.107 135.442 164.972 135.481C164.84 135.519 164.731 135.579 164.646 135.661C164.563 135.744 164.514 135.839 164.497 135.946L163.837 135.847C163.857 135.709 163.913 135.578 164.005 135.453C164.097 135.328 164.218 135.221 164.367 135.131C164.52 135.04 164.695 134.976 164.893 134.94C165.093 134.902 165.31 134.9 165.543 134.935C165.824 134.977 166.065 135.061 166.265 135.188C166.467 135.316 166.615 135.485 166.708 135.696C166.803 135.905 166.829 136.153 166.786 136.441L166.518 138.239C166.498 138.368 166.489 138.506 166.488 138.655C166.49 138.803 166.506 138.934 166.536 139.045L166.527 139.102L165.838 138.999C165.816 138.918 165.805 138.813 165.805 138.684C165.805 138.553 165.813 138.432 165.829 138.323ZM166.195 136.659L166.133 137.124L165.465 137.025C165.277 136.996 165.106 136.986 164.954 136.995C164.802 137.002 164.672 137.027 164.563 137.072C164.454 137.116 164.367 137.18 164.301 137.263C164.235 137.343 164.194 137.443 164.176 137.561C164.158 137.683 164.169 137.797 164.208 137.906C164.248 138.013 164.318 138.106 164.419 138.181C164.522 138.255 164.655 138.304 164.817 138.329C165.019 138.359 165.204 138.343 165.372 138.28C165.54 138.218 165.678 138.131 165.787 138.021C165.898 137.911 165.966 137.799 165.991 137.683L166.226 138.043C166.194 138.14 166.132 138.244 166.04 138.354C165.948 138.465 165.832 138.567 165.692 138.66C165.554 138.751 165.395 138.821 165.215 138.869C165.037 138.916 164.844 138.923 164.634 138.892C164.372 138.853 164.15 138.767 163.968 138.636C163.788 138.504 163.656 138.345 163.572 138.157C163.491 137.968 163.466 137.765 163.498 137.551C163.529 137.344 163.597 137.169 163.701 137.023C163.806 136.876 163.942 136.762 164.11 136.68C164.279 136.596 164.474 136.542 164.697 136.519C164.919 136.497 165.163 136.505 165.427 136.544L166.195 136.659ZM169.907 138.56C169.922 138.465 169.914 138.374 169.883 138.287C169.855 138.197 169.781 138.109 169.663 138.024C169.547 137.936 169.365 137.848 169.118 137.76C168.91 137.683 168.724 137.6 168.56 137.512C168.397 137.425 168.262 137.328 168.154 137.222C168.048 137.116 167.972 136.999 167.925 136.87C167.879 136.742 167.867 136.598 167.891 136.438C167.914 136.286 167.969 136.147 168.056 136.021C168.145 135.896 168.259 135.79 168.399 135.704C168.541 135.619 168.704 135.559 168.889 135.526C169.074 135.493 169.275 135.493 169.492 135.525C169.802 135.571 170.058 135.665 170.26 135.807C170.463 135.95 170.609 136.121 170.699 136.322C170.788 136.52 170.817 136.73 170.784 136.951L170.122 136.852C170.138 136.745 170.122 136.637 170.073 136.527C170.026 136.416 169.947 136.318 169.835 136.233C169.727 136.148 169.585 136.093 169.411 136.067C169.228 136.04 169.074 136.046 168.952 136.086C168.832 136.124 168.739 136.182 168.674 136.26C168.611 136.338 168.572 136.425 168.558 136.52C168.548 136.591 168.55 136.657 168.565 136.718C168.583 136.776 168.621 136.834 168.678 136.891C168.736 136.946 168.82 137.003 168.93 137.06C169.041 137.118 169.184 137.181 169.359 137.249C169.665 137.367 169.913 137.492 170.103 137.623C170.292 137.753 170.427 137.898 170.505 138.058C170.583 138.218 170.607 138.402 170.576 138.609C170.551 138.778 170.492 138.927 170.399 139.057C170.309 139.187 170.19 139.293 170.041 139.375C169.896 139.456 169.727 139.511 169.535 139.541C169.346 139.568 169.138 139.565 168.912 139.531C168.571 139.48 168.292 139.376 168.074 139.22C167.857 139.063 167.702 138.88 167.609 138.669C167.516 138.458 167.486 138.246 167.518 138.032L168.182 138.131C168.165 138.313 168.196 138.465 168.275 138.586C168.355 138.705 168.46 138.797 168.592 138.863C168.723 138.927 168.857 138.969 168.993 138.989C169.174 139.016 169.329 139.015 169.457 138.985C169.588 138.956 169.692 138.905 169.768 138.831C169.845 138.758 169.891 138.667 169.907 138.56ZM173.551 136.204L173.476 136.711L171.386 136.399L171.462 135.892L173.551 136.204ZM172.31 135.059L172.97 135.158L172.396 139.001C172.376 139.132 172.382 139.234 172.413 139.307C172.443 139.379 172.489 139.431 172.55 139.462C172.611 139.493 172.678 139.514 172.752 139.525C172.807 139.533 172.865 139.537 172.926 139.536C172.99 139.534 173.038 139.531 173.069 139.528L172.992 140.068C172.938 140.077 172.867 140.082 172.778 140.084C172.693 140.088 172.59 140.081 172.471 140.063C172.309 140.039 172.165 139.984 172.039 139.9C171.913 139.816 171.821 139.692 171.762 139.53C171.706 139.366 171.698 139.156 171.736 138.899L172.31 135.059ZM175.416 140.503C175.147 140.463 174.91 140.381 174.704 140.258C174.501 140.133 174.334 139.975 174.201 139.785C174.072 139.596 173.982 139.38 173.933 139.14C173.884 138.899 173.879 138.643 173.92 138.371L173.942 138.222C173.989 137.908 174.077 137.635 174.207 137.404C174.336 137.17 174.494 136.98 174.679 136.832C174.864 136.685 175.065 136.582 175.28 136.525C175.496 136.467 175.712 136.454 175.929 136.487C176.205 136.528 176.436 136.611 176.622 136.736C176.81 136.861 176.956 137.019 177.058 137.21C177.162 137.398 177.227 137.612 177.255 137.852C177.283 138.09 177.276 138.344 177.235 138.615L177.191 138.911L174.305 138.48L174.386 137.941L176.611 138.274L176.618 138.224C176.634 138.051 176.624 137.879 176.586 137.708C176.55 137.538 176.475 137.39 176.36 137.266C176.244 137.142 176.074 137.063 175.848 137.029C175.698 137.006 175.555 137.018 175.419 137.063C175.284 137.106 175.161 137.183 175.052 137.293C174.943 137.403 174.85 137.544 174.774 137.715C174.697 137.886 174.642 138.088 174.607 138.321L174.584 138.471C174.557 138.654 174.556 138.83 174.582 138.999C174.61 139.167 174.664 139.318 174.744 139.454C174.826 139.591 174.932 139.703 175.062 139.793C175.194 139.884 175.352 139.943 175.532 139.97C175.766 140.005 175.971 139.986 176.147 139.915C176.323 139.844 176.483 139.738 176.629 139.597L176.981 139.974C176.879 140.088 176.755 140.192 176.61 140.287C176.464 140.382 176.292 140.452 176.093 140.495C175.896 140.538 175.671 140.541 175.416 140.503ZM178.922 137.627L178.436 140.881L177.775 140.783L178.352 136.921L178.995 137.018L178.922 137.627ZM180.224 137.179L180.128 137.792C180.075 137.772 180.024 137.757 179.974 137.748C179.927 137.735 179.873 137.725 179.811 137.716C179.659 137.693 179.52 137.697 179.397 137.727C179.273 137.757 179.164 137.809 179.071 137.882C178.977 137.956 178.897 138.048 178.832 138.161C178.769 138.27 178.72 138.394 178.685 138.533L178.483 138.612C178.518 138.379 178.573 138.163 178.649 137.966C178.727 137.768 178.827 137.598 178.948 137.455C179.07 137.311 179.212 137.205 179.375 137.14C179.541 137.072 179.729 137.054 179.938 137.086C179.986 137.093 180.04 137.107 180.1 137.128C180.16 137.147 180.202 137.164 180.224 137.179ZM186.293 140.22C186.251 140.437 186.185 140.652 186.094 140.865C186.005 141.076 185.889 141.264 185.747 141.43C185.605 141.596 185.435 141.721 185.235 141.806C185.037 141.888 184.81 141.91 184.553 141.872C184.388 141.847 184.249 141.797 184.133 141.722C184.021 141.644 183.934 141.544 183.871 141.423C183.811 141.302 183.777 141.162 183.769 141.003C183.764 140.844 183.785 140.671 183.833 140.484L184.31 138.534L184.835 138.612L184.357 140.562C184.317 140.734 184.3 140.876 184.305 140.988C184.312 141.101 184.335 141.191 184.374 141.258C184.413 141.322 184.461 141.369 184.517 141.399C184.576 141.43 184.634 141.449 184.691 141.458C184.834 141.479 184.967 141.462 185.09 141.405C185.213 141.346 185.323 141.256 185.419 141.136C185.517 141.015 185.6 140.871 185.669 140.703C185.739 140.534 185.793 140.35 185.832 140.151C185.902 139.799 185.934 139.471 185.929 139.166C185.925 138.862 185.883 138.585 185.8 138.337C185.72 138.089 185.599 137.872 185.438 137.684C185.276 137.497 185.072 137.343 184.828 137.221C184.583 137.1 184.295 137.014 183.964 136.965C183.664 136.92 183.379 136.924 183.111 136.979C182.845 137.032 182.598 137.129 182.37 137.27C182.144 137.411 181.941 137.591 181.76 137.81C181.581 138.029 181.427 138.283 181.299 138.573C181.173 138.861 181.077 139.177 181.011 139.522C180.941 139.877 180.911 140.208 180.921 140.516C180.931 140.821 180.98 141.1 181.066 141.351C181.155 141.605 181.281 141.827 181.445 142.017C181.609 142.209 181.808 142.365 182.044 142.485C182.278 142.608 182.548 142.692 182.853 142.737C183.063 142.769 183.278 142.776 183.5 142.758C183.724 142.74 183.915 142.7 184.073 142.635L184.148 143.063C183.966 143.145 183.746 143.193 183.488 143.208C183.232 143.224 182.994 143.215 182.772 143.182C182.41 143.128 182.087 143.028 181.802 142.883C181.519 142.741 181.276 142.558 181.073 142.333C180.873 142.111 180.716 141.853 180.605 141.559C180.492 141.267 180.426 140.944 180.406 140.588C180.386 140.233 180.415 139.851 180.493 139.445C180.568 139.057 180.681 138.698 180.833 138.368C180.987 138.038 181.173 137.746 181.391 137.492C181.609 137.238 181.855 137.028 182.128 136.862C182.404 136.694 182.702 136.578 183.023 136.514C183.347 136.45 183.688 136.445 184.048 136.499C184.415 136.554 184.739 136.654 185.022 136.798C185.305 136.942 185.544 137.125 185.74 137.347C185.938 137.568 186.091 137.826 186.198 138.119C186.305 138.412 186.366 138.735 186.382 139.088C186.4 139.441 186.37 139.818 186.293 140.22ZM182.579 139.975C182.538 140.139 182.516 140.288 182.512 140.421C182.51 140.555 182.525 140.67 182.559 140.768C182.593 140.865 182.645 140.943 182.714 141.002C182.786 141.059 182.875 141.096 182.979 141.111C183.048 141.122 183.123 141.116 183.205 141.094C183.286 141.07 183.369 141.026 183.454 140.963C183.539 140.901 183.622 140.815 183.705 140.705C183.787 140.596 183.862 140.461 183.929 140.301L184.127 140.593C184.043 140.78 183.946 140.941 183.835 141.075C183.728 141.21 183.613 141.319 183.491 141.403C183.369 141.487 183.243 141.546 183.114 141.58C182.987 141.612 182.862 141.619 182.738 141.601C182.564 141.575 182.417 141.515 182.298 141.422C182.178 141.326 182.088 141.203 182.027 141.053C181.967 140.903 181.934 140.73 181.929 140.535C181.928 140.338 181.955 140.123 182.011 139.89C182.07 139.644 182.148 139.42 182.247 139.218C182.345 139.016 182.456 138.839 182.578 138.688C182.703 138.536 182.836 138.411 182.978 138.313C183.121 138.215 183.267 138.147 183.417 138.109C183.567 138.068 183.715 138.058 183.863 138.081C184.12 138.119 184.317 138.187 184.453 138.285C184.59 138.381 184.717 138.49 184.835 138.612L184.479 138.92C184.42 138.843 184.338 138.768 184.235 138.694C184.132 138.62 184.004 138.572 183.851 138.549C183.72 138.529 183.593 138.544 183.468 138.594C183.344 138.644 183.226 138.728 183.113 138.847C183.003 138.967 182.902 139.121 182.81 139.309C182.719 139.495 182.642 139.717 182.579 139.975ZM188.092 139.161L187.63 142.255L186.966 142.156L187.543 138.295L188.171 138.388L188.092 139.161ZM187.805 140.158L187.499 140.101C187.541 139.838 187.612 139.599 187.712 139.385C187.813 139.169 187.941 138.988 188.096 138.841C188.253 138.693 188.435 138.589 188.644 138.528C188.853 138.465 189.086 138.452 189.343 138.491C189.524 138.518 189.687 138.569 189.832 138.644C189.976 138.716 190.097 138.816 190.192 138.942C190.288 139.068 190.354 139.222 190.39 139.402C190.426 139.583 190.427 139.794 190.39 140.037L190.006 142.61L189.345 142.511L189.724 139.97C189.755 139.768 189.745 139.601 189.694 139.469C189.645 139.338 189.563 139.236 189.447 139.163C189.332 139.087 189.191 139.037 189.024 139.012C188.829 138.983 188.661 138.993 188.519 139.042C188.378 139.092 188.259 139.171 188.162 139.281C188.066 139.391 187.988 139.521 187.929 139.673C187.872 139.823 187.831 139.984 187.805 140.158ZM190.363 140.168L189.9 140.237C189.934 140.026 189.999 139.828 190.095 139.642C190.193 139.458 190.318 139.299 190.469 139.166C190.623 139.033 190.802 138.937 191.005 138.878C191.209 138.816 191.434 138.803 191.679 138.84C191.887 138.871 192.066 138.925 192.217 139.004C192.371 139.083 192.494 139.187 192.586 139.318C192.682 139.447 192.745 139.603 192.776 139.788C192.806 139.972 192.803 140.186 192.767 140.428L192.388 142.966L191.724 142.866L192.104 140.322C192.136 140.106 192.127 139.933 192.076 139.803C192.027 139.672 191.945 139.574 191.828 139.507C191.714 139.439 191.572 139.392 191.403 139.367C191.258 139.346 191.126 139.351 191.006 139.384C190.887 139.418 190.782 139.473 190.693 139.55C190.604 139.624 190.531 139.714 190.474 139.82C190.419 139.926 190.382 140.042 190.363 140.168ZM195.839 142.806L196.136 140.819C196.159 140.667 196.148 140.53 196.102 140.409C196.06 140.286 195.983 140.184 195.871 140.104C195.758 140.024 195.613 139.971 195.434 139.944C195.268 139.919 195.117 139.926 194.982 139.964C194.85 140.003 194.741 140.063 194.656 140.145C194.573 140.228 194.523 140.322 194.507 140.43L193.847 140.331C193.867 140.193 193.923 140.061 194.015 139.936C194.106 139.811 194.227 139.704 194.377 139.615C194.529 139.523 194.705 139.459 194.902 139.423C195.103 139.385 195.32 139.384 195.553 139.418C195.834 139.46 196.074 139.545 196.275 139.672C196.477 139.799 196.625 139.969 196.717 140.179C196.813 140.388 196.839 140.637 196.796 140.925L196.527 142.723C196.508 142.852 196.498 142.99 196.498 143.138C196.5 143.287 196.516 143.417 196.546 143.528L196.537 143.586L195.848 143.483C195.826 143.401 195.815 143.296 195.815 143.168C195.815 143.036 195.823 142.916 195.839 142.806ZM196.204 141.143L196.142 141.608L195.474 141.508C195.287 141.48 195.116 141.47 194.964 141.479C194.812 141.486 194.682 141.511 194.573 141.555C194.464 141.6 194.377 141.664 194.311 141.746C194.245 141.826 194.203 141.926 194.185 142.045C194.167 142.166 194.178 142.281 194.218 142.389C194.258 142.497 194.328 142.589 194.429 142.665C194.532 142.739 194.665 142.788 194.827 142.812C195.029 142.842 195.214 142.826 195.382 142.763C195.55 142.701 195.688 142.615 195.797 142.505C195.908 142.395 195.976 142.282 196.001 142.167L196.235 142.526C196.204 142.624 196.142 142.728 196.05 142.838C195.958 142.948 195.842 143.05 195.701 143.143C195.563 143.235 195.405 143.304 195.225 143.353C195.047 143.399 194.854 143.407 194.644 143.376C194.382 143.336 194.16 143.251 193.978 143.119C193.797 142.988 193.666 142.828 193.582 142.641C193.5 142.451 193.476 142.249 193.508 142.035C193.539 141.828 193.607 141.652 193.711 141.507C193.816 141.36 193.952 141.245 194.12 141.163C194.289 141.079 194.484 141.025 194.706 141.003C194.929 140.98 195.173 140.988 195.437 141.028L196.204 141.143ZM198.809 139.978L198.232 143.839L197.567 143.739L198.144 139.878L198.809 139.978ZM198.247 138.847C198.264 138.74 198.309 138.654 198.384 138.59C198.462 138.526 198.565 138.504 198.694 138.523C198.82 138.542 198.911 138.593 198.967 138.677C199.025 138.761 199.046 138.856 199.03 138.964C199.014 139.066 198.967 139.149 198.887 139.212C198.809 139.274 198.708 139.295 198.581 139.276C198.453 139.257 198.361 139.207 198.304 139.125C198.251 139.042 198.232 138.949 198.247 138.847ZM200.903 138.634L200.084 144.115L199.42 144.016L200.239 138.535L200.903 138.634ZM201.281 143.937C201.298 143.825 201.346 143.736 201.427 143.67C201.51 143.602 201.618 143.578 201.751 143.598C201.885 143.618 201.98 143.673 202.037 143.761C202.098 143.848 202.119 143.948 202.103 144.059C202.086 144.169 202.037 144.256 201.954 144.322C201.873 144.387 201.767 144.411 201.633 144.391C201.5 144.371 201.403 144.317 201.343 144.231C201.285 144.144 201.265 144.046 201.281 143.937ZM204.837 144.344C204.994 144.368 205.144 144.357 205.287 144.313C205.43 144.268 205.553 144.197 205.655 144.098C205.758 143.997 205.826 143.874 205.86 143.731L206.489 143.825C206.443 144.051 206.334 144.252 206.161 144.429C205.991 144.603 205.783 144.733 205.536 144.821C205.29 144.905 205.03 144.927 204.756 144.886C204.466 144.843 204.22 144.754 204.018 144.619C203.819 144.485 203.661 144.318 203.545 144.118C203.432 143.919 203.356 143.698 203.319 143.457C203.285 143.213 203.287 142.962 203.326 142.703L203.348 142.553C203.387 142.294 203.458 142.054 203.562 141.833C203.668 141.611 203.805 141.421 203.972 141.263C204.141 141.106 204.341 140.993 204.571 140.923C204.803 140.853 205.064 140.839 205.354 140.883C205.657 140.928 205.912 141.029 206.119 141.187C206.328 141.342 206.48 141.535 206.577 141.766C206.677 141.995 206.713 142.243 206.685 142.511L206.056 142.417C206.068 142.256 206.044 142.106 205.985 141.966C205.928 141.826 205.838 141.708 205.717 141.612C205.597 141.513 205.449 141.451 205.273 141.425C205.071 141.395 204.895 141.41 204.744 141.47C204.597 141.528 204.473 141.619 204.371 141.743C204.273 141.864 204.193 142.004 204.133 142.163C204.076 142.32 204.034 142.483 204.009 142.651L203.986 142.802C203.961 142.97 203.953 143.139 203.962 143.308C203.971 143.478 204.005 143.635 204.063 143.78C204.124 143.925 204.217 144.048 204.34 144.149C204.467 144.249 204.632 144.314 204.837 144.344ZM207.229 143.253L207.242 143.171C207.283 142.893 207.362 142.641 207.479 142.415C207.596 142.187 207.743 141.996 207.922 141.843C208.101 141.687 208.307 141.576 208.537 141.512C208.769 141.444 209.02 141.43 209.289 141.471C209.56 141.511 209.797 141.597 209.999 141.73C210.203 141.86 210.368 142.026 210.494 142.227C210.623 142.426 210.709 142.652 210.754 142.904C210.8 143.154 210.802 143.418 210.76 143.697L210.748 143.779C210.706 144.057 210.627 144.309 210.511 144.535C210.394 144.761 210.245 144.951 210.064 145.107C209.885 145.26 209.68 145.37 209.448 145.438C209.22 145.503 208.969 145.516 208.698 145.475C208.426 145.435 208.189 145.349 207.987 145.22C207.785 145.087 207.62 144.922 207.492 144.723C207.366 144.521 207.281 144.295 207.235 144.045C207.19 143.796 207.188 143.532 207.229 143.253ZM207.903 143.27L207.89 143.352C207.862 143.545 207.857 143.73 207.877 143.908C207.897 144.083 207.942 144.243 208.013 144.388C208.086 144.533 208.186 144.654 208.313 144.75C208.44 144.845 208.595 144.906 208.779 144.933C208.96 144.96 209.124 144.947 209.27 144.893C209.42 144.838 209.55 144.751 209.66 144.634C209.77 144.517 209.86 144.377 209.93 144.215C210.003 144.051 210.054 143.872 210.083 143.679L210.095 143.598C210.124 143.407 210.127 143.224 210.105 143.048C210.085 142.87 210.039 142.708 209.965 142.564C209.895 142.417 209.796 142.295 209.669 142.198C209.545 142.102 209.391 142.04 209.208 142.013C209.027 141.986 208.861 142 208.712 142.055C208.565 142.111 208.435 142.199 208.322 142.318C208.212 142.436 208.122 142.577 208.051 142.741C207.98 142.903 207.931 143.08 207.903 143.27ZM212.487 142.806L212.025 145.899L211.361 145.8L211.938 141.939L212.566 142.033L212.487 142.806ZM212.2 143.802L211.894 143.746C211.936 143.482 212.007 143.243 212.107 143.03C212.207 142.813 212.335 142.632 212.491 142.485C212.647 142.338 212.829 142.234 213.038 142.173C213.247 142.109 213.48 142.097 213.738 142.135C213.918 142.162 214.081 142.213 214.226 142.288C214.371 142.361 214.491 142.46 214.587 142.587C214.682 142.713 214.748 142.866 214.785 143.047C214.821 143.227 214.821 143.439 214.785 143.681L214.4 146.254L213.74 146.156L214.119 143.615C214.149 143.413 214.139 143.246 214.088 143.114C214.039 142.983 213.957 142.881 213.842 142.807C213.726 142.732 213.586 142.681 213.419 142.656C213.224 142.627 213.055 142.638 212.914 142.687C212.773 142.736 212.654 142.816 212.557 142.925C212.46 143.035 212.382 143.166 212.323 143.317C212.267 143.467 212.226 143.629 212.2 143.802ZM214.758 143.812L214.295 143.882C214.329 143.671 214.394 143.472 214.489 143.287C214.588 143.102 214.712 142.943 214.864 142.811C215.017 142.678 215.196 142.582 215.4 142.522C215.604 142.46 215.828 142.448 216.074 142.484C216.281 142.515 216.46 142.57 216.612 142.648C216.765 142.727 216.888 142.832 216.981 142.963C217.076 143.091 217.139 143.248 217.17 143.432C217.201 143.617 217.198 143.83 217.162 144.073L216.783 146.61L216.119 146.511L216.499 143.967C216.531 143.75 216.521 143.578 216.47 143.448C216.422 143.317 216.339 143.218 216.222 143.152C216.109 143.084 215.967 143.037 215.798 143.012C215.652 142.99 215.52 142.996 215.401 143.029C215.282 143.063 215.177 143.118 215.088 143.194C214.998 143.268 214.926 143.358 214.868 143.464C214.814 143.57 214.777 143.686 214.758 143.812Z" fill="#1E1E1E"/>
<path d="M137.081 155.541L136.304 160.736L135.618 160.634L136.31 156.002L133.746 155.619L133.054 160.251L132.364 160.148L133.141 154.952L137.081 155.541ZM139.905 160.6L140.202 158.612C140.225 158.46 140.214 158.323 140.168 158.202C140.126 158.079 140.049 157.977 139.936 157.897C139.824 157.817 139.679 157.764 139.5 157.737C139.334 157.713 139.183 157.719 139.048 157.757C138.916 157.796 138.807 157.856 138.722 157.938C138.639 158.021 138.589 158.115 138.573 158.223L137.912 158.124C137.933 157.986 137.989 157.854 138.081 157.729C138.173 157.604 138.293 157.497 138.443 157.408C138.595 157.316 138.77 157.253 138.968 157.216C139.169 157.178 139.386 157.177 139.619 157.212C139.9 157.254 140.14 157.338 140.341 157.465C140.543 157.593 140.691 157.762 140.783 157.973C140.879 158.182 140.905 158.43 140.862 158.718L140.593 160.516C140.574 160.645 140.564 160.783 140.564 160.932C140.566 161.08 140.582 161.21 140.612 161.322L140.603 161.379L139.914 161.276C139.892 161.194 139.881 161.09 139.88 160.961C139.881 160.829 139.889 160.709 139.905 160.6ZM140.271 158.936L140.208 159.401L139.54 159.301C139.352 159.273 139.182 159.263 139.03 159.272C138.878 159.279 138.748 159.304 138.639 159.349C138.53 159.393 138.442 159.457 138.376 159.539C138.311 159.62 138.269 159.719 138.252 159.838C138.233 159.96 138.244 160.074 138.284 160.182C138.324 160.29 138.394 160.382 138.495 160.458C138.598 160.532 138.731 160.581 138.893 160.605C139.095 160.636 139.28 160.619 139.448 160.557C139.615 160.494 139.754 160.408 139.863 160.298C139.974 160.188 140.042 160.075 140.066 159.96L140.301 160.319C140.27 160.417 140.208 160.521 140.116 160.631C140.024 160.741 139.908 160.843 139.767 160.936C139.629 161.028 139.471 161.097 139.29 161.146C139.113 161.193 138.92 161.2 138.71 161.169C138.448 161.13 138.226 161.044 138.044 160.912C137.864 160.781 137.732 160.621 137.648 160.434C137.566 160.244 137.542 160.042 137.574 159.828C137.605 159.621 137.672 159.445 137.777 159.3C137.882 159.153 138.018 159.038 138.186 158.956C138.354 158.872 138.55 158.818 138.772 158.796C138.995 158.773 139.238 158.782 139.503 158.821L140.271 158.936ZM142.707 158.505L142.019 163.108L141.355 163.009L142.153 157.663L142.761 157.754L142.707 158.505ZM145.138 160.05L145.127 160.125C145.085 160.406 145.013 160.661 144.91 160.891C144.808 161.119 144.679 161.312 144.524 161.469C144.372 161.626 144.195 161.739 143.995 161.809C143.795 161.878 143.574 161.895 143.334 161.86C143.089 161.823 142.878 161.75 142.702 161.641C142.526 161.532 142.384 161.391 142.276 161.216C142.168 161.042 142.091 160.841 142.045 160.613C142.001 160.385 141.985 160.133 141.997 159.858L142.057 159.458C142.128 159.177 142.22 158.929 142.332 158.715C142.444 158.5 142.577 158.324 142.729 158.183C142.884 158.041 143.061 157.942 143.259 157.887C143.458 157.829 143.678 157.818 143.921 157.854C144.164 157.891 144.373 157.97 144.547 158.094C144.721 158.214 144.859 158.371 144.962 158.564C145.065 158.757 145.13 158.98 145.158 159.232C145.189 159.482 145.182 159.755 145.138 160.05ZM144.462 160.025L144.474 159.95C144.502 159.758 144.509 159.574 144.494 159.399C144.479 159.222 144.438 159.062 144.372 158.921C144.308 158.778 144.216 158.66 144.096 158.566C143.977 158.471 143.826 158.409 143.645 158.382C143.479 158.357 143.329 158.364 143.197 158.403C143.067 158.442 142.952 158.503 142.851 158.588C142.751 158.671 142.665 158.77 142.592 158.885C142.521 158.998 142.463 159.119 142.417 159.246L142.279 160.17C142.302 160.344 142.345 160.51 142.409 160.671C142.473 160.829 142.569 160.964 142.699 161.075C142.829 161.184 143.002 161.256 143.218 161.288C143.397 161.315 143.556 161.301 143.696 161.246C143.838 161.19 143.961 161.102 144.064 160.984C144.169 160.865 144.254 160.725 144.32 160.562C144.386 160.397 144.434 160.218 144.462 160.025ZM145.868 160.235L145.88 160.154C145.922 159.875 146.001 159.623 146.117 159.397C146.234 159.169 146.382 158.978 146.561 158.825C146.74 158.669 146.945 158.559 147.176 158.494C147.408 158.426 147.658 158.413 147.927 158.453C148.199 158.493 148.435 158.58 148.637 158.712C148.842 158.842 149.007 159.008 149.133 159.209C149.261 159.408 149.348 159.634 149.393 159.886C149.438 160.137 149.44 160.401 149.399 160.679L149.386 160.761C149.345 161.04 149.266 161.292 149.149 161.517C149.033 161.743 148.884 161.934 148.702 162.089C148.524 162.242 148.318 162.353 148.087 162.42C147.858 162.485 147.608 162.498 147.336 162.458C147.065 162.417 146.828 162.332 146.626 162.202C146.424 162.07 146.259 161.904 146.13 161.705C146.005 161.504 145.919 161.278 145.874 161.028C145.828 160.778 145.826 160.514 145.868 160.235ZM146.541 160.252L146.529 160.334C146.5 160.527 146.495 160.712 146.515 160.89C146.535 161.066 146.581 161.226 146.652 161.37C146.725 161.515 146.825 161.636 146.952 161.733C147.079 161.827 147.234 161.888 147.417 161.915C147.598 161.942 147.762 161.929 147.909 161.876C148.058 161.82 148.188 161.734 148.298 161.616C148.408 161.499 148.499 161.359 148.569 161.197C148.642 161.033 148.693 160.855 148.722 160.662L148.734 160.58C148.763 160.39 148.766 160.206 148.743 160.03C148.724 159.852 148.677 159.691 148.604 159.546C148.533 159.399 148.435 159.278 148.308 159.181C148.184 159.084 148.03 159.022 147.846 158.995C147.665 158.968 147.5 158.982 147.351 159.038C147.203 159.094 147.073 159.181 146.961 159.301C146.851 159.418 146.76 159.559 146.689 159.723C146.619 159.886 146.569 160.062 146.541 160.252ZM153.108 159.3L153.027 159.846L151.159 159.567L151.24 159.021L153.108 159.3ZM153.691 159.387L153.114 163.248L152.453 163.149L153.03 159.288L153.691 159.387ZM151.08 158.997L151.744 159.096L151.366 160.944C151.306 161.229 151.241 161.479 151.169 161.695C151.101 161.909 151.023 162.089 150.935 162.236C150.85 162.384 150.752 162.501 150.642 162.587C150.534 162.671 150.412 162.726 150.273 162.754C150.136 162.78 149.981 162.78 149.81 162.754L149.603 162.723L149.689 162.142L149.834 162.152C149.937 162.161 150.028 162.149 150.105 162.12C150.185 162.09 150.256 162.04 150.318 161.969C150.38 161.896 150.436 161.798 150.486 161.677C150.538 161.556 150.585 161.409 150.628 161.238C150.673 161.068 150.717 160.867 150.761 160.638L151.08 158.997ZM155.173 160.965L156.334 161.139C156.646 161.185 156.901 161.279 157.099 161.421C157.297 161.56 157.437 161.733 157.518 161.939C157.602 162.144 157.626 162.366 157.59 162.607C157.563 162.785 157.507 162.948 157.422 163.096C157.337 163.241 157.224 163.363 157.082 163.462C156.943 163.56 156.779 163.629 156.588 163.668C156.399 163.706 156.189 163.707 155.955 163.672L154.312 163.427L154.889 159.566L155.55 159.665L155.054 162.983L156.036 163.13C156.227 163.158 156.384 163.147 156.509 163.095C156.634 163.043 156.729 162.966 156.796 162.864C156.862 162.762 156.904 162.651 156.922 162.533C156.939 162.416 156.931 162.298 156.898 162.179C156.865 162.059 156.796 161.954 156.693 161.864C156.59 161.77 156.443 161.71 156.253 161.681L155.092 161.508L155.173 160.965Z" fill="#0C1421"/>
<path d="M300.182 190.123L136.499 165.669C133.342 165.197 130.401 167.371 129.93 170.524L128.293 181.487C127.821 184.64 129.998 187.579 133.155 188.05L296.839 212.505C299.995 212.976 302.936 210.802 303.407 207.649L305.045 196.687C305.516 193.533 303.339 190.595 300.182 190.123Z" fill="#F7FBFF" stroke="#D4D7E3"/>
<path d="M137.039 176.942L137.905 176.064L136.874 175.581L137.122 175.072L138.141 175.629L138.293 174.396L138.835 174.477L138.613 175.721L139.737 175.484L139.819 176.055L138.674 176.216L139.234 177.288L138.741 177.553L138.234 176.427L137.437 177.333L137.039 176.942ZM140.263 177.423L141.128 176.545L140.098 176.063L140.345 175.553L141.365 176.11L141.516 174.878L142.059 174.959L141.837 176.203L142.96 175.966L143.043 176.536L141.898 176.697L142.457 177.769L141.965 178.035L141.457 176.908L140.661 177.815L140.263 177.423ZM143.487 177.905L144.352 177.027L143.321 176.545L143.569 176.035L144.589 176.592L144.74 175.36L145.283 175.441L145.06 176.685L146.184 176.447L146.267 177.018L145.122 177.179L145.681 178.251L145.188 178.516L144.681 177.39L143.885 178.296L143.487 177.905ZM146.71 178.387L147.576 177.509L146.545 177.026L146.793 176.517L147.812 177.074L147.964 175.841L148.506 175.922L148.284 177.166L149.408 176.929L149.491 177.5L148.345 177.661L148.905 178.733L148.412 178.998L147.905 177.872L147.108 178.778L146.71 178.387ZM151.033 176.303L150.113 182.462L149.581 182.383L150.501 176.224L151.033 176.303Z" fill="#1E1E1E"/>
<path d="M292.505 241.509L128.821 217.055C125.791 216.602 122.968 218.689 122.516 221.716L120.059 238.16C119.607 241.187 121.697 244.008 124.727 244.46L288.411 268.915C291.441 269.368 294.264 267.281 294.716 264.254L297.173 247.81C297.625 244.783 295.535 241.962 292.505 241.509Z" fill="#3253ED"/>
<path d="M178.051 239.525L179.167 239.692C179.068 240.112 178.892 240.474 178.64 240.776C178.388 241.076 178.065 241.294 177.67 241.429C177.276 241.565 176.817 241.594 176.293 241.515C175.891 241.455 175.54 241.33 175.24 241.14C174.94 240.946 174.696 240.699 174.506 240.4C174.316 240.099 174.189 239.75 174.123 239.354C174.061 238.958 174.064 238.527 174.134 238.06L174.215 237.521C174.284 237.054 174.409 236.64 174.587 236.281C174.768 235.922 174.995 235.626 175.268 235.393C175.54 235.157 175.849 234.992 176.195 234.898C176.544 234.804 176.922 234.788 177.33 234.849C177.848 234.926 178.271 235.086 178.6 235.33C178.929 235.574 179.166 235.879 179.313 236.244C179.462 236.61 179.526 237.013 179.506 237.454L178.39 237.287C178.402 237.003 178.372 236.754 178.301 236.539C178.232 236.325 178.109 236.152 177.931 236.019C177.754 235.883 177.509 235.792 177.196 235.745C176.94 235.707 176.71 235.721 176.505 235.788C176.3 235.855 176.12 235.971 175.964 236.136C175.809 236.301 175.678 236.514 175.572 236.775C175.47 237.033 175.393 237.335 175.341 237.68L175.259 238.228C175.21 238.555 175.194 238.857 175.211 239.133C175.231 239.407 175.286 239.648 175.377 239.856C175.471 240.064 175.603 240.235 175.775 240.367C175.947 240.499 176.164 240.584 176.426 240.623C176.745 240.671 177.01 240.659 177.221 240.587C177.436 240.516 177.608 240.391 177.738 240.213C177.872 240.032 177.976 239.803 178.051 239.525ZM179.727 239.525L179.742 239.422C179.794 239.075 179.892 238.759 180.038 238.477C180.184 238.192 180.369 237.954 180.592 237.762C180.819 237.568 181.08 237.43 181.375 237.35C181.674 237.267 181.999 237.251 182.35 237.304C182.704 237.357 183.01 237.467 183.268 237.633C183.53 237.796 183.741 238.004 183.901 238.256C184.061 238.505 184.17 238.788 184.226 239.103C184.283 239.415 184.286 239.746 184.234 240.093L184.218 240.196C184.166 240.544 184.067 240.859 183.922 241.141C183.776 241.424 183.59 241.662 183.363 241.856C183.137 242.047 182.876 242.184 182.58 242.268C182.285 242.349 181.962 242.362 181.611 242.31C181.257 242.257 180.949 242.149 180.687 241.985C180.429 241.819 180.22 241.611 180.059 241.362C179.899 241.11 179.79 240.828 179.734 240.516C179.677 240.203 179.675 239.873 179.727 239.525ZM180.818 239.583L180.802 239.686C180.77 239.903 180.762 240.111 180.778 240.312C180.793 240.511 180.838 240.691 180.911 240.851C180.985 241.011 181.09 241.144 181.226 241.249C181.363 241.355 181.533 241.423 181.739 241.454C181.938 241.483 182.117 241.468 182.275 241.406C182.437 241.345 182.576 241.249 182.693 241.117C182.81 240.986 182.905 240.827 182.979 240.64C183.055 240.454 183.11 240.252 183.142 240.035L183.157 239.933C183.189 239.719 183.196 239.513 183.177 239.315C183.161 239.115 183.115 238.934 183.039 238.77C182.966 238.608 182.861 238.473 182.725 238.368C182.592 238.26 182.424 238.191 182.222 238.16C182.019 238.13 181.837 238.147 181.676 238.211C181.517 238.273 181.379 238.371 181.262 238.505C181.144 238.64 181.049 238.8 180.976 238.987C180.902 239.17 180.85 239.369 180.818 239.583ZM186.929 240.656L186.001 240.517L186.082 239.973L186.832 240.085C187.022 240.114 187.178 240.111 187.299 240.077C187.423 240.044 187.515 239.986 187.576 239.904C187.64 239.82 187.682 239.717 187.7 239.595C187.716 239.487 187.706 239.383 187.669 239.28C187.636 239.175 187.566 239.082 187.46 239.002C187.353 238.923 187.2 238.868 187 238.838C186.837 238.813 186.685 238.818 186.546 238.852C186.41 238.886 186.298 238.946 186.209 239.03C186.121 239.114 186.067 239.218 186.048 239.343L184.972 239.183C185.017 238.882 185.141 238.636 185.343 238.445C185.548 238.253 185.803 238.121 186.109 238.048C186.416 237.975 186.741 237.965 187.087 238.016C187.381 238.06 187.642 238.131 187.867 238.229C188.093 238.323 188.279 238.442 188.425 238.586C188.575 238.727 188.68 238.891 188.74 239.08C188.803 239.266 188.818 239.473 188.784 239.702C188.759 239.865 188.698 240.014 188.599 240.148C188.499 240.282 188.368 240.395 188.205 240.486C188.043 240.575 187.853 240.634 187.636 240.666C187.421 240.698 187.185 240.694 186.929 240.656ZM186.047 240.205L186.976 240.344C187.262 240.387 187.511 240.452 187.723 240.542C187.935 240.628 188.107 240.736 188.24 240.865C188.373 240.995 188.465 241.144 188.516 241.313C188.57 241.479 188.582 241.663 188.552 241.865C188.518 242.091 188.438 242.287 188.313 242.454C188.191 242.618 188.032 242.75 187.834 242.848C187.64 242.946 187.416 243.01 187.162 243.039C186.908 243.068 186.634 243.06 186.34 243.016C186.018 242.968 185.713 242.868 185.426 242.716C185.141 242.564 184.917 242.362 184.754 242.11C184.594 241.855 184.54 241.553 184.592 241.205L185.669 241.366C185.65 241.488 185.67 241.608 185.729 241.726C185.788 241.844 185.881 241.948 186.011 242.037C186.141 242.123 186.305 242.181 186.501 242.211C186.703 242.241 186.873 242.235 187.01 242.191C187.148 242.145 187.256 242.074 187.334 241.979C187.413 241.882 187.461 241.773 187.479 241.655C187.503 241.494 187.491 241.36 187.443 241.252C187.395 241.145 187.31 241.059 187.189 240.996C187.068 240.929 186.911 240.881 186.718 240.852L185.967 240.74L186.047 240.205ZM190.677 238.64L191.753 238.8L191.446 240.491C191.357 240.983 191.237 241.398 191.086 241.738C190.935 242.077 190.762 242.357 190.568 242.577C190.374 242.794 190.167 242.965 189.944 243.09C189.724 243.215 189.499 243.306 189.269 243.363L188.952 243.316L189.078 242.468L189.232 242.482C189.38 242.364 189.51 242.244 189.623 242.121C189.739 241.996 189.842 241.854 189.933 241.698C190.024 241.538 190.104 241.348 190.173 241.127C190.246 240.907 190.311 240.641 190.37 240.331L190.677 238.64ZM190.963 238.682L194.026 239.14L193.305 243.966L192.233 243.806L192.818 239.89L190.827 239.592L190.963 238.682ZM188.834 242.422L194.094 243.208L193.751 245.501L192.675 245.341L192.89 243.904L189.795 243.442L189.581 244.878L188.487 244.715L188.834 242.422ZM197.419 243.591L197.763 241.29C197.789 241.117 197.78 240.964 197.736 240.829C197.692 240.695 197.611 240.584 197.494 240.497C197.379 240.41 197.226 240.352 197.036 240.324C196.86 240.297 196.704 240.304 196.567 240.345C196.43 240.385 196.318 240.45 196.231 240.541C196.145 240.631 196.092 240.741 196.073 240.868L195.001 240.708C195.03 240.518 195.104 240.34 195.223 240.176C195.342 240.011 195.499 239.872 195.696 239.759C195.892 239.645 196.118 239.566 196.375 239.523C196.631 239.479 196.911 239.479 197.214 239.525C197.577 239.579 197.89 239.688 198.151 239.852C198.416 240.016 198.61 240.233 198.734 240.504C198.861 240.772 198.897 241.091 198.842 241.46L198.522 243.606C198.489 243.825 198.474 244.025 198.478 244.205C198.485 244.383 198.509 244.54 198.549 244.677L198.538 244.748L197.435 244.583C197.402 244.46 197.384 244.306 197.381 244.123C197.381 243.938 197.394 243.761 197.419 243.591ZM197.869 241.647L197.779 242.313L197.007 242.198C196.807 242.168 196.629 242.161 196.471 242.177C196.314 242.19 196.179 242.225 196.068 242.281C195.956 242.337 195.867 242.412 195.801 242.506C195.735 242.6 195.693 242.71 195.674 242.838C195.655 242.966 195.667 243.088 195.711 243.204C195.755 243.317 195.829 243.412 195.933 243.488C196.04 243.565 196.175 243.615 196.339 243.64C196.56 243.672 196.758 243.656 196.935 243.592C197.115 243.524 197.263 243.433 197.378 243.316C197.494 243.197 197.563 243.078 197.586 242.96L197.863 243.489C197.81 243.605 197.729 243.727 197.622 243.854C197.515 243.981 197.381 244.098 197.222 244.205C197.067 244.309 196.887 244.387 196.681 244.439C196.479 244.49 196.252 244.497 196.002 244.46C195.687 244.413 195.415 244.309 195.186 244.147C194.958 243.982 194.79 243.782 194.682 243.547C194.575 243.309 194.542 243.053 194.582 242.78C194.621 242.524 194.702 242.305 194.826 242.123C194.955 241.938 195.122 241.794 195.33 241.688C195.541 241.582 195.788 241.516 196.072 241.488C196.356 241.458 196.674 241.469 197.025 241.521L197.869 241.647ZM202.188 240.359L201.467 245.186L200.387 245.024L201.108 240.198L202.188 240.359ZM203.773 240.596L203.647 241.443L199.423 240.812L199.55 239.965L203.773 240.596ZM204.879 242.33L206.304 242.543C206.72 242.605 207.064 242.728 207.335 242.911C207.606 243.095 207.799 243.322 207.913 243.595C208.031 243.865 208.066 244.159 208.019 244.477C207.984 244.712 207.908 244.924 207.791 245.113C207.675 245.3 207.521 245.454 207.329 245.578C207.14 245.702 206.918 245.787 206.661 245.834C206.408 245.881 206.124 245.881 205.812 245.835L203.673 245.515L204.394 240.689L205.475 240.85L204.881 244.825L205.939 244.983C206.153 245.015 206.33 245.003 206.47 244.948C206.609 244.893 206.715 244.81 206.789 244.699C206.867 244.589 206.916 244.467 206.936 244.334C206.956 244.197 206.945 244.063 206.904 243.932C206.866 243.802 206.789 243.688 206.672 243.592C206.556 243.496 206.39 243.431 206.176 243.399L204.751 243.186L204.879 242.33ZM213.414 245.981L213.757 243.679C213.783 243.507 213.774 243.353 213.73 243.219C213.686 243.085 213.606 242.974 213.488 242.886C213.373 242.799 213.221 242.742 213.03 242.713C212.854 242.687 212.698 242.694 212.561 242.734C212.424 242.774 212.313 242.84 212.226 242.931C212.139 243.021 212.087 243.13 212.068 243.258L210.996 243.098C211.024 242.908 211.098 242.73 211.217 242.566C211.336 242.401 211.494 242.262 211.69 242.148C211.887 242.035 212.113 241.956 212.369 241.912C212.625 241.868 212.905 241.869 213.209 241.914C213.572 241.969 213.884 242.078 214.146 242.241C214.41 242.406 214.605 242.623 214.728 242.894C214.856 243.162 214.892 243.481 214.836 243.849L214.516 245.995C214.483 246.215 214.469 246.415 214.472 246.595C214.479 246.772 214.503 246.929 214.543 247.066L214.533 247.137L213.43 246.973C213.396 246.849 213.378 246.696 213.375 246.513C213.375 246.328 213.388 246.15 213.414 245.981ZM213.864 244.037L213.773 244.703L213.001 244.587C212.802 244.558 212.623 244.551 212.466 244.567C212.308 244.58 212.174 244.615 212.062 244.671C211.95 244.727 211.861 244.802 211.796 244.895C211.73 244.989 211.687 245.099 211.668 245.227C211.649 245.355 211.662 245.477 211.705 245.593C211.749 245.706 211.823 245.801 211.927 245.877C212.034 245.954 212.17 246.005 212.334 246.029C212.554 246.062 212.753 246.046 212.93 245.981C213.11 245.914 213.258 245.822 213.372 245.706C213.488 245.586 213.557 245.467 213.581 245.349L213.858 245.879C213.804 245.995 213.723 246.117 213.616 246.244C213.509 246.371 213.376 246.487 213.217 246.594C213.061 246.699 212.881 246.777 212.676 246.828C212.473 246.88 212.247 246.887 211.996 246.85C211.681 246.803 211.409 246.698 211.18 246.536C210.953 246.371 210.785 246.172 210.677 245.937C210.569 245.699 210.536 245.443 210.577 245.169C210.615 244.914 210.696 244.695 210.821 244.512C210.949 244.328 211.117 244.183 211.324 244.077C211.535 243.972 211.782 243.905 212.066 243.878C212.351 243.847 212.669 243.858 213.02 243.911L213.864 244.037ZM217.174 242.598L216.453 247.424L215.377 247.264L216.098 242.437L217.174 242.598ZM220.326 243.069L217.718 245.648L216.49 245.464L216.492 244.471L217.39 244.605L218.982 242.868L220.326 243.069ZM218.346 247.707L217.205 245.384L218.144 244.9L219.761 247.919L218.346 247.707ZM222.045 243.326L221.324 248.152L220.248 247.991L220.969 243.165L222.045 243.326ZM225.198 243.797L222.589 246.376L221.361 246.192L221.364 245.198L222.261 245.333L223.853 243.596L225.198 243.797ZM223.218 248.435L222.076 246.112L223.016 245.628L224.633 248.646L223.218 248.435ZM227.903 248.146L228.247 245.844C228.273 245.671 228.263 245.518 228.22 245.384C228.176 245.25 228.095 245.139 227.978 245.051C227.862 244.964 227.71 244.906 227.519 244.878C227.344 244.852 227.187 244.859 227.05 244.899C226.914 244.939 226.802 245.005 226.715 245.095C226.629 245.186 226.576 245.295 226.557 245.422L225.485 245.262C225.514 245.072 225.588 244.895 225.707 244.73C225.826 244.566 225.983 244.427 226.18 244.313C226.376 244.2 226.603 244.121 226.859 244.077C227.114 244.033 227.394 244.034 227.698 244.079C228.061 244.133 228.374 244.243 228.635 244.406C228.9 244.57 229.094 244.788 229.218 245.059C229.345 245.327 229.381 245.645 229.326 246.014L229.006 248.16C228.973 248.38 228.958 248.58 228.962 248.759C228.968 248.937 228.992 249.094 229.033 249.231L229.022 249.302L227.919 249.137C227.886 249.014 227.868 248.861 227.865 248.678C227.865 248.492 227.878 248.315 227.903 248.146ZM228.353 246.202L228.263 246.868L227.491 246.752C227.291 246.722 227.112 246.716 226.955 246.731C226.798 246.744 226.663 246.779 226.551 246.836C226.44 246.892 226.351 246.967 226.285 247.06C226.219 247.154 226.177 247.264 226.158 247.392C226.139 247.52 226.151 247.642 226.194 247.758C226.239 247.871 226.312 247.966 226.417 248.042C226.524 248.119 226.66 248.169 226.823 248.194C227.044 248.227 227.242 248.211 227.419 248.146C227.6 248.079 227.747 247.987 227.862 247.87C227.977 247.751 228.047 247.632 228.07 247.514L228.348 248.043C228.294 248.16 228.213 248.282 228.106 248.408C227.998 248.535 227.865 248.652 227.706 248.759C227.551 248.863 227.37 248.941 227.165 248.993C226.962 249.044 226.736 249.052 226.486 249.014C226.171 248.967 225.898 248.863 225.67 248.701C225.442 248.536 225.274 248.337 225.166 248.101C225.059 247.864 225.026 247.608 225.067 247.334C225.105 247.078 225.186 246.859 225.311 246.677C225.439 246.493 225.606 246.348 225.814 246.242C226.024 246.137 226.272 246.07 226.556 246.043C226.84 246.012 227.158 246.023 227.509 246.076L228.353 246.202ZM231.19 249.088L233.146 244.984L234.298 245.157L231.529 250.429C231.466 250.542 231.389 250.662 231.297 250.791C231.204 250.92 231.091 251.039 230.956 251.146C230.824 251.257 230.667 251.339 230.486 251.391C230.304 251.446 230.093 251.455 229.852 251.419C229.757 251.405 229.666 251.382 229.579 251.351C229.495 251.323 229.416 251.295 229.34 251.265L229.459 250.444C229.488 250.451 229.523 250.46 229.565 250.469C229.609 250.478 229.644 250.485 229.671 250.489C229.85 250.516 230.002 250.516 230.128 250.489C230.253 250.465 230.36 250.411 230.449 250.327C230.54 250.243 230.625 250.125 230.702 249.973L231.19 249.088ZM231.092 244.678L231.7 248.462L231.722 249.623L230.948 249.704L229.931 244.504L231.092 244.678ZM237.729 247.73L237.603 248.578L235.102 248.204L235.229 247.357L237.729 247.73ZM235.843 245.387L235.122 250.214L234.046 250.053L234.767 245.227L235.843 245.387ZM238.807 245.83L238.086 250.656L237.01 250.496L237.731 245.67L238.807 245.83ZM242.013 246.309L241.292 251.135L240.212 250.974L240.933 246.148L242.013 246.309ZM243.598 246.546L243.472 247.393L239.248 246.762L239.375 245.915L243.598 246.546Z" fill="white"/>
</g>
<g filter="url(#filter1_d_3177_6228)">
<path d="M153.827 191.532L151.327 178.532L162.327 185.032L156.827 186.532L153.827 191.532Z" fill="#FF5A00"/>
<path d="M151.581 178.102L162.581 184.602L163.6 185.203L162.459 185.515L157.152 186.962L154.256 191.789L153.583 192.911L153.336 191.627L150.836 178.627L150.627 177.537L151.581 178.102Z" stroke="white" stroke-linecap="square"/>
</g>
<g filter="url(#filter2_d_3177_6228)">
<rect x="167.327" y="194.532" width="77" height="17" rx="8.5" fill="#FF5A00"/>
<path d="M176.206 207.532V199.532H179.136C179.704 199.532 180.174 199.626 180.546 199.813C180.918 199.998 181.197 200.25 181.382 200.567C181.567 200.882 181.659 201.238 181.659 201.634C181.659 201.967 181.598 202.248 181.476 202.478C181.353 202.704 181.189 202.886 180.984 203.024C180.78 203.16 180.556 203.259 180.312 203.321V203.399C180.577 203.412 180.836 203.498 181.089 203.657C181.344 203.813 181.555 204.036 181.722 204.325C181.889 204.614 181.972 204.966 181.972 205.38C181.972 205.789 181.876 206.156 181.683 206.481C181.493 206.804 181.198 207.061 180.8 207.251C180.402 207.438 179.892 207.532 179.273 207.532H176.206ZM177.413 206.497H179.155C179.734 206.497 180.148 206.385 180.398 206.161C180.648 205.937 180.773 205.657 180.773 205.321C180.773 205.069 180.709 204.837 180.581 204.626C180.454 204.415 180.271 204.247 180.034 204.122C179.8 203.997 179.521 203.935 179.198 203.935H177.413V206.497ZM177.413 202.993H179.03C179.301 202.993 179.545 202.941 179.761 202.837C179.98 202.733 180.153 202.587 180.28 202.399C180.411 202.209 180.476 201.985 180.476 201.728C180.476 201.397 180.36 201.119 180.128 200.896C179.896 200.672 179.541 200.56 179.062 200.56H177.413V202.993ZM186.006 207.653C185.415 207.653 184.905 207.527 184.478 207.274C184.054 207.019 183.726 206.661 183.494 206.2C183.265 205.737 183.15 205.194 183.15 204.571C183.15 203.957 183.265 203.415 183.494 202.946C183.726 202.478 184.049 202.112 184.463 201.849C184.879 201.586 185.366 201.454 185.924 201.454C186.262 201.454 186.59 201.51 186.908 201.622C187.226 201.734 187.511 201.91 187.764 202.149C188.016 202.389 188.215 202.7 188.361 203.083C188.507 203.463 188.58 203.925 188.58 204.47V204.884H183.81V204.009H187.435C187.435 203.701 187.373 203.429 187.248 203.192C187.123 202.953 186.947 202.764 186.721 202.626C186.497 202.488 186.234 202.419 185.931 202.419C185.603 202.419 185.317 202.5 185.072 202.661C184.83 202.82 184.642 203.028 184.51 203.286C184.379 203.541 184.314 203.819 184.314 204.118V204.802C184.314 205.203 184.385 205.544 184.525 205.825C184.668 206.106 184.868 206.321 185.123 206.47C185.378 206.616 185.676 206.688 186.017 206.688C186.239 206.688 186.441 206.657 186.623 206.595C186.805 206.53 186.963 206.433 187.096 206.306C187.228 206.178 187.33 206.021 187.4 205.833L188.506 206.032C188.417 206.358 188.258 206.643 188.029 206.888C187.803 207.13 187.517 207.319 187.174 207.454C186.833 207.587 186.443 207.653 186.006 207.653ZM194.615 199.298L195.099 200.036C194.919 200.2 194.715 200.317 194.486 200.388C194.259 200.455 193.998 200.498 193.701 200.517C193.404 200.532 193.064 200.547 192.681 200.56C192.249 200.573 191.893 200.666 191.615 200.841C191.336 201.013 191.121 201.268 190.97 201.606C190.822 201.942 190.725 202.364 190.681 202.872H190.755C190.951 202.5 191.221 202.221 191.568 202.036C191.917 201.851 192.309 201.759 192.744 201.759C193.228 201.759 193.659 201.869 194.037 202.091C194.414 202.312 194.711 202.636 194.927 203.063C195.146 203.488 195.255 204.007 195.255 204.622C195.255 205.244 195.141 205.782 194.912 206.235C194.685 206.688 194.365 207.039 193.951 207.286C193.539 207.531 193.054 207.653 192.494 207.653C191.934 207.653 191.445 207.527 191.029 207.274C190.615 207.019 190.293 206.642 190.064 206.142C189.837 205.642 189.724 205.024 189.724 204.29V203.696C189.724 202.324 189.969 201.291 190.458 200.599C190.948 199.906 191.68 199.55 192.654 199.532C192.969 199.524 193.25 199.523 193.498 199.528C193.745 199.531 193.961 199.519 194.146 199.493C194.333 199.465 194.49 199.399 194.615 199.298ZM192.498 206.673C192.823 206.673 193.103 206.591 193.337 206.427C193.574 206.26 193.757 206.024 193.884 205.72C194.012 205.415 194.076 205.056 194.076 204.642C194.076 204.235 194.012 203.89 193.884 203.606C193.757 203.323 193.574 203.106 193.337 202.958C193.1 202.807 192.817 202.731 192.486 202.731C192.241 202.731 192.022 202.774 191.83 202.86C191.637 202.944 191.471 203.067 191.333 203.231C191.198 203.396 191.093 203.596 191.017 203.833C190.944 204.067 190.905 204.337 190.9 204.642C190.9 205.261 191.042 205.755 191.326 206.122C191.612 206.489 192.003 206.673 192.498 206.673ZM200.037 206.087L201.975 201.532H202.983L200.471 207.532H199.604L197.143 201.532H198.139L200.037 206.087ZM197.815 201.532V207.532H196.67V201.532H197.815ZM202.291 207.532V201.532H203.428V207.532H202.291ZM206.841 207.665C206.46 207.665 206.117 207.595 205.809 207.454C205.502 207.311 205.259 207.104 205.079 206.833C204.902 206.562 204.813 206.23 204.813 205.837C204.813 205.498 204.878 205.22 205.009 205.001C205.139 204.782 205.315 204.609 205.536 204.481C205.757 204.354 206.005 204.257 206.278 204.192C206.552 204.127 206.83 204.078 207.114 204.044C207.473 204.002 207.765 203.968 207.989 203.942C208.213 203.914 208.376 203.868 208.477 203.806C208.579 203.743 208.63 203.642 208.63 203.501V203.474C208.63 203.132 208.533 202.868 208.341 202.681C208.15 202.493 207.867 202.399 207.489 202.399C207.096 202.399 206.786 202.487 206.559 202.661C206.335 202.833 206.18 203.024 206.094 203.235L204.997 202.985C205.127 202.621 205.317 202.326 205.567 202.103C205.82 201.876 206.11 201.712 206.438 201.61C206.766 201.506 207.111 201.454 207.473 201.454C207.713 201.454 207.967 201.483 208.235 201.54C208.506 201.595 208.759 201.696 208.993 201.845C209.23 201.993 209.424 202.205 209.575 202.481C209.726 202.755 209.802 203.11 209.802 203.548V207.532H208.661V206.712H208.614C208.538 206.863 208.425 207.011 208.274 207.157C208.123 207.303 207.929 207.424 207.692 207.521C207.455 207.617 207.171 207.665 206.841 207.665ZM207.094 206.728C207.417 206.728 207.693 206.664 207.923 206.536C208.154 206.409 208.33 206.242 208.45 206.036C208.572 205.828 208.634 205.605 208.634 205.368V204.595C208.592 204.636 208.511 204.675 208.391 204.712C208.274 204.746 208.14 204.776 207.989 204.802C207.838 204.825 207.691 204.847 207.548 204.868C207.404 204.886 207.285 204.902 207.188 204.915C206.962 204.944 206.755 204.992 206.567 205.06C206.382 205.127 206.234 205.225 206.122 205.353C206.012 205.478 205.958 205.644 205.958 205.853C205.958 206.142 206.065 206.36 206.278 206.509C206.492 206.655 206.764 206.728 207.094 206.728ZM213.995 207.653C213.414 207.653 212.914 207.522 212.495 207.259C212.078 206.993 211.758 206.627 211.534 206.161C211.31 205.695 211.198 205.161 211.198 204.56C211.198 203.95 211.312 203.412 211.541 202.946C211.771 202.478 212.093 202.112 212.51 201.849C212.927 201.586 213.418 201.454 213.983 201.454C214.439 201.454 214.845 201.539 215.202 201.708C215.558 201.875 215.846 202.109 216.065 202.411C216.286 202.713 216.418 203.066 216.459 203.47H215.323C215.26 203.188 215.117 202.946 214.893 202.743C214.672 202.54 214.375 202.438 214.002 202.438C213.677 202.438 213.392 202.524 213.147 202.696C212.905 202.866 212.716 203.108 212.58 203.423C212.445 203.735 212.377 204.105 212.377 204.532C212.377 204.97 212.444 205.347 212.577 205.665C212.709 205.983 212.897 206.229 213.139 206.403C213.384 206.578 213.672 206.665 214.002 206.665C214.224 206.665 214.424 206.625 214.604 206.544C214.786 206.461 214.939 206.342 215.061 206.188C215.186 206.035 215.273 205.85 215.323 205.634H216.459C216.418 206.022 216.291 206.368 216.08 206.673C215.87 206.978 215.587 207.217 215.233 207.392C214.881 207.566 214.468 207.653 213.995 207.653ZM217.364 202.54V201.532H222.427V202.54H220.47V207.532H219.329V202.54H217.364ZM226.079 207.653C225.488 207.653 224.979 207.527 224.551 207.274C224.127 207.019 223.799 206.661 223.567 206.2C223.338 205.737 223.223 205.194 223.223 204.571C223.223 203.957 223.338 203.415 223.567 202.946C223.799 202.478 224.122 202.112 224.536 201.849C224.952 201.586 225.439 201.454 225.997 201.454C226.335 201.454 226.663 201.51 226.981 201.622C227.299 201.734 227.584 201.91 227.837 202.149C228.089 202.389 228.288 202.7 228.434 203.083C228.58 203.463 228.653 203.925 228.653 204.47V204.884H223.883V204.009H227.508C227.508 203.701 227.446 203.429 227.321 203.192C227.196 202.953 227.02 202.764 226.794 202.626C226.57 202.488 226.307 202.419 226.005 202.419C225.676 202.419 225.39 202.5 225.145 202.661C224.903 202.82 224.715 203.028 224.583 203.286C224.452 203.541 224.387 203.819 224.387 204.118V204.802C224.387 205.203 224.458 205.544 224.598 205.825C224.742 206.106 224.941 206.321 225.196 206.47C225.451 206.616 225.749 206.688 226.09 206.688C226.312 206.688 226.514 206.657 226.696 206.595C226.878 206.53 227.036 206.433 227.169 206.306C227.301 206.178 227.403 206.021 227.473 205.833L228.579 206.032C228.49 206.358 228.331 206.643 228.102 206.888C227.876 207.13 227.59 207.319 227.247 207.454C226.906 207.587 226.516 207.653 226.079 207.653ZM230.059 209.782V201.532H231.2V202.505H231.297C231.365 202.38 231.463 202.235 231.59 202.071C231.718 201.907 231.895 201.764 232.121 201.642C232.348 201.517 232.647 201.454 233.02 201.454C233.504 201.454 233.936 201.576 234.317 201.821C234.697 202.066 234.995 202.419 235.211 202.88C235.43 203.341 235.539 203.896 235.539 204.544C235.539 205.192 235.431 205.748 235.215 206.212C234.999 206.673 234.702 207.028 234.325 207.278C233.947 207.526 233.516 207.649 233.032 207.649C232.667 207.649 232.369 207.588 232.137 207.466C231.908 207.343 231.728 207.2 231.598 207.036C231.468 206.872 231.367 206.726 231.297 206.599H231.227V209.782H230.059ZM231.203 204.532C231.203 204.954 231.265 205.324 231.387 205.642C231.509 205.959 231.686 206.208 231.918 206.388C232.15 206.565 232.434 206.653 232.77 206.653C233.119 206.653 233.41 206.561 233.645 206.376C233.879 206.188 234.056 205.935 234.176 205.614C234.298 205.294 234.36 204.933 234.36 204.532C234.36 204.136 234.3 203.781 234.18 203.466C234.063 203.151 233.886 202.902 233.649 202.72C233.414 202.537 233.121 202.446 232.77 202.446C232.431 202.446 232.145 202.534 231.91 202.708C231.679 202.882 231.503 203.126 231.383 203.438C231.263 203.751 231.203 204.116 231.203 204.532Z" fill="white"/>
</g>
</g>
<defs>
<filter id="filter0_f_3177_6228" x="-164" y="-146" width="779" height="741" filterUnits="userSpaceOnUse" color-interpolation-filters="sRGB">
<feFlood flood-opacity="0" result="BackgroundImageFix"/>
<feBlend mode="normal" in="SourceGraphic" in2="BackgroundImageFix" result="shape"/>
<feGaussianBlur stdDeviation="50" result="effect1_foregroundBlur_3177_6228"/>
</filter>
<filter id="filter1_d_3177_6228" x="146.926" y="174.543" width="20.946" height="23.7466" filterUnits="userSpaceOnUse" color-interpolation-filters="sRGB">
<feFlood flood-opacity="0" result="BackgroundImageFix"/>
<feColorMatrix in="SourceAlpha" type="matrix" values="0 0 0 0 0 0 0 0 0 0 0 0 0 0 0 0 0 0 127 0" result="hardAlpha"/>
<feOffset dy="1"/>
<feGaussianBlur stdDeviation="1.5"/>
<feColorMatrix type="matrix" values="0 0 0 0 0 0 0 0 0 0 0 0 0 0 0 0 0 0 0.35 0"/>
<feBlend mode="normal" in2="BackgroundImageFix" result="effect1_dropShadow_3177_6228"/>
<feBlend mode="normal" in="SourceGraphic" in2="effect1_dropShadow_3177_6228" result="shape"/>
</filter>
<filter id="filter2_d_3177_6228" x="163.327" y="191.532" width="85" height="25" filterUnits="userSpaceOnUse" color-interpolation-filters="sRGB">
<feFlood flood-opacity="0" result="BackgroundImageFix"/>
<feColorMatrix in="SourceAlpha" type="matrix" values="0 0 0 0 0 0 0 0 0 0 0 0 0 0 0 0 0 0 127 0" result="hardAlpha"/>
<feOffset dy="1"/>
<feGaussianBlur stdDeviation="2"/>
<feColorMatrix type="matrix" values="0 0 0 0 0 0 0 0 0 0 0 0 0 0 0 0 0 0 0.16 0"/>
<feBlend mode="normal" in2="BackgroundImageFix" result="effect1_dropShadow_3177_6228"/>
<feBlend mode="normal" in="SourceGraphic" in2="effect1_dropShadow_3177_6228" result="shape"/>
</filter>
<clipPath id="clip0_3177_6228">
<rect width="430" height="267" rx="12" fill="white"/>
</clipPath>
<clipPath id="clip1_3177_6228">
<rect width="202.484" height="277.562" fill="white" transform="translate(140.013 17) rotate(8.49721)"/>
</clipPath>
<pattern id="pattern0_3177_6228" patternUnits="userSpaceOnUse" viewBox="8405.33 -1359 73.3289 200" width="16.6656494140625%" height="59.347181008902069%" x="190.668" y="128.5" patternContentUnits="objectBoundingBox">
<g id="pattern0_3177_6228_inner">
<path d="M8390.66 -1338.12C8390.66 -1330.35 8389.15 -1322.67 8386.2 -1315.49C8383.25 -1308.32 8378.93 -1301.8 8373.48 -1296.31C8368.03 -1290.83 8361.57 -1286.47 8354.45 -1283.5C8347.33 -1280.53 8339.7 -1279 8332 -1279V-1299.17C8337.07 -1299.17 8342.1 -1300.18 8346.79 -1302.14C8351.48 -1304.09 8355.74 -1306.96 8359.33 -1310.58C8362.91 -1314.19 8365.76 -1318.49 8367.7 -1323.21C8369.65 -1327.94 8370.65 -1333 8370.65 -1338.12H8390.66ZM8370.62 -1338.12H8349.89V-1359H8370.62V-1338.12Z" fill="#3253ED" fill-opacity="0.15"/>
</g>
<use xlink:href="#pattern0_3177_6228_inner" transform="translate(73.3289 0)"/>
<use xlink:href="#pattern0_3177_6228_inner" transform="translate(36.6644 100)"/>
<use xlink:href="#pattern0_3177_6228_inner" transform="translate(109.993 100)"/>
</pattern></defs>
</svg>
