<svg width="40" height="41" viewBox="0 0 40 41" fill="none" xmlns="http://www.w3.org/2000/svg">
<circle cx="20" cy="20.9457" r="19.9926" fill="#3253ED"/>
<path d="M28.5962 15.2134C28.5961 17.5415 28.1404 19.8467 27.2563 21.9976C26.3722 24.1484 25.0764 26.1033 23.4428 27.7495C21.8093 29.3956 19.8701 30.7014 17.7358 31.5923C15.6014 32.4832 13.3137 32.9419 11.0034 32.9419V26.8921C12.5251 26.8921 14.032 26.5902 15.438 26.0034C16.844 25.4165 18.1225 24.5557 19.1987 23.4712C20.2747 22.3868 21.1281 21.0989 21.7104 19.6821C22.2927 18.2653 22.5922 16.7469 22.5923 15.2134H28.5962ZM22.5854 15.2134H16.3696V8.94971H22.5854V15.2134Z" fill="white"/>
</svg>
