<svg width="30" height="30" viewBox="0 0 30 30" fill="none" xmlns="http://www.w3.org/2000/svg">
<path d="M12.5 16.7502C12.5 17.7202 13.25 18.5002 14.17 18.5002H16.05C16.85 18.5002 17.5 17.8202 17.5 16.9702C17.5 16.0602 17.1 15.7302 16.51 15.5202L13.5 14.4702C12.91 14.2602 12.51 13.9402 12.51 13.0202C12.51 12.1802 13.16 11.4902 13.96 11.4902H15.84C16.76 11.4902 17.51 12.2702 17.51 13.2402" stroke="#3253ED" stroke-width="1.5" stroke-linecap="round" stroke-linejoin="round"/>
<path d="M15 10.5V19.5" stroke="#3253ED" stroke-width="1.5" stroke-linecap="round" stroke-linejoin="round"/>
<path d="M25 15C25 20.52 20.52 25 15 25C9.48 25 5 20.52 5 15C5 9.48 9.48 5 15 5" stroke="#3253ED" stroke-width="1.5" stroke-linecap="round" stroke-linejoin="round"/>
<path d="M25 9V5H21" stroke="#3253ED" stroke-width="1.5" stroke-linecap="round" stroke-linejoin="round"/>
<path d="M20 10L25 5" stroke="#3253ED" stroke-width="1.5" stroke-linecap="round" stroke-linejoin="round"/>
<g filter="url(#filter0_f_3152_8271)">
<path d="M12.5 16.7502C12.5 17.7202 13.25 18.5002 14.17 18.5002H16.05C16.85 18.5002 17.5 17.8202 17.5 16.9702C17.5 16.0602 17.1 15.7302 16.51 15.5202L13.5 14.4702C12.91 14.2602 12.51 13.9402 12.51 13.0202C12.51 12.1802 13.16 11.4902 13.96 11.4902H15.84C16.76 11.4902 17.51 12.2702 17.51 13.2402" stroke="#7D94FF" stroke-width="1.5" stroke-linecap="round" stroke-linejoin="round"/>
<path d="M15 10.5V19.5" stroke="#7D94FF" stroke-width="1.5" stroke-linecap="round" stroke-linejoin="round"/>
<path d="M25 15C25 20.52 20.52 25 15 25C9.48 25 5 20.52 5 15C5 9.48 9.48 5 15 5" stroke="#7D94FF" stroke-width="1.5" stroke-linecap="round" stroke-linejoin="round"/>
<path d="M25 9V5H21" stroke="#7D94FF" stroke-width="1.5" stroke-linecap="round" stroke-linejoin="round"/>
<path d="M20 10L25 5" stroke="#7D94FF" stroke-width="1.5" stroke-linecap="round" stroke-linejoin="round"/>
</g>
<defs>
<filter id="filter0_f_3152_8271" x="0.25" y="0.25" width="29.5" height="29.5" filterUnits="userSpaceOnUse" color-interpolation-filters="sRGB">
<feFlood flood-opacity="0" result="BackgroundImageFix"/>
<feBlend mode="normal" in="SourceGraphic" in2="BackgroundImageFix" result="shape"/>
<feGaussianBlur stdDeviation="2" result="effect1_foregroundBlur_3152_8271"/>
</filter>
</defs>
</svg>
