<svg width="408" height="220" viewBox="0 0 408 220" fill="none" xmlns="http://www.w3.org/2000/svg" xmlns:xlink="http://www.w3.org/1999/xlink">
<g clip-path="url(#clip0_3152_7249)">
<rect width="408" height="220" rx="8" fill="url(#pattern0_3152_7249)" fill-opacity="0.4"/>
<path d="M165 61C165 57.6863 167.686 55 171 55H381V90H171C167.686 90 165 87.3137 165 84V61Z" fill="#007AFF"/>
<path d="M177.338 72.18C176.478 72.18 175.752 71.99 175.16 71.61C174.568 71.226 174.12 70.696 173.816 70.02C173.512 69.344 173.36 68.564 173.36 67.68C173.36 66.796 173.512 66.016 173.816 65.34C174.12 64.664 174.568 64.136 175.16 63.756C175.752 63.372 176.478 63.18 177.338 63.18C178.202 63.18 178.928 63.372 179.516 63.756C180.108 64.136 180.556 64.664 180.86 65.34C181.168 66.016 181.322 66.796 181.322 67.68C181.322 68.564 181.168 69.344 180.86 70.02C180.556 70.696 180.108 71.226 179.516 71.61C178.928 71.99 178.202 72.18 177.338 72.18ZM177.338 71.334C178.014 71.334 178.578 71.18 179.03 70.872C179.482 70.564 179.82 70.136 180.044 69.588C180.272 69.036 180.386 68.4 180.386 67.68C180.386 66.96 180.272 66.326 180.044 65.778C179.82 65.23 179.482 64.802 179.03 64.494C178.578 64.186 178.014 64.03 177.338 64.026C176.662 64.026 176.1 64.18 175.652 64.488C175.204 64.796 174.866 65.226 174.638 65.778C174.414 66.326 174.3 66.96 174.296 67.68C174.292 68.4 174.402 69.034 174.626 69.582C174.854 70.126 175.194 70.554 175.646 70.866C176.098 71.174 176.662 71.33 177.338 71.334ZM185.596 74.7V72.126C184.964 72.226 184.388 72.158 183.868 71.922C183.348 71.682 182.934 71.294 182.626 70.758C182.318 70.222 182.164 69.558 182.164 68.766C182.164 67.974 182.318 67.31 182.626 66.774C182.934 66.234 183.348 65.844 183.868 65.604C184.388 65.364 184.964 65.294 185.596 65.394V63.408H186.412V65.394C187.044 65.294 187.62 65.364 188.14 65.604C188.66 65.844 189.074 66.234 189.382 66.774C189.69 67.31 189.844 67.974 189.844 68.766C189.844 69.558 189.69 70.222 189.382 70.758C189.074 71.294 188.66 71.682 188.14 71.922C187.62 72.158 187.044 72.226 186.412 72.126V74.7H185.596ZM185.596 71.304V66.222C185.272 66.166 184.96 66.176 184.66 66.252C184.36 66.324 184.09 66.466 183.85 66.678C183.61 66.886 183.42 67.164 183.28 67.512C183.144 67.856 183.076 68.274 183.076 68.766C183.076 69.258 183.146 69.678 183.286 70.026C183.426 70.37 183.616 70.646 183.856 70.854C184.096 71.062 184.366 71.202 184.666 71.274C184.966 71.346 185.276 71.356 185.596 71.304ZM186.412 71.304C186.732 71.356 187.042 71.346 187.342 71.274C187.642 71.202 187.912 71.064 188.152 70.86C188.392 70.652 188.582 70.376 188.722 70.032C188.862 69.684 188.932 69.262 188.932 68.766C188.932 68.27 188.862 67.85 188.722 67.506C188.586 67.158 188.398 66.88 188.158 66.672C187.918 66.464 187.648 66.324 187.348 66.252C187.048 66.176 186.736 66.166 186.412 66.222V71.304ZM194.232 74.7V72.126C193.6 72.226 193.024 72.158 192.504 71.922C191.984 71.682 191.57 71.294 191.262 70.758C190.954 70.222 190.8 69.558 190.8 68.766C190.8 67.974 190.954 67.31 191.262 66.774C191.57 66.234 191.984 65.844 192.504 65.604C193.024 65.364 193.6 65.294 194.232 65.394V63.408H195.048V65.394C195.68 65.294 196.256 65.364 196.776 65.604C197.296 65.844 197.71 66.234 198.018 66.774C198.326 67.31 198.48 67.974 198.48 68.766C198.48 69.558 198.326 70.222 198.018 70.758C197.71 71.294 197.296 71.682 196.776 71.922C196.256 72.158 195.68 72.226 195.048 72.126V74.7H194.232ZM194.232 71.304V66.222C193.908 66.166 193.596 66.176 193.296 66.252C192.996 66.324 192.726 66.466 192.486 66.678C192.246 66.886 192.056 67.164 191.916 67.512C191.78 67.856 191.712 68.274 191.712 68.766C191.712 69.258 191.782 69.678 191.922 70.026C192.062 70.37 192.252 70.646 192.492 70.854C192.732 71.062 193.002 71.202 193.302 71.274C193.602 71.346 193.912 71.356 194.232 71.304ZM195.048 71.304C195.368 71.356 195.678 71.346 195.978 71.274C196.278 71.202 196.548 71.064 196.788 70.86C197.028 70.652 197.218 70.376 197.358 70.032C197.498 69.684 197.568 69.262 197.568 68.766C197.568 68.27 197.498 67.85 197.358 67.506C197.222 67.158 197.034 66.88 196.794 66.672C196.554 66.464 196.284 66.324 195.984 66.252C195.684 66.176 195.372 66.166 195.048 66.222V71.304ZM202.539 72.18C201.907 72.18 201.359 72.04 200.895 71.76C200.435 71.48 200.077 71.086 199.821 70.578C199.565 70.07 199.437 69.474 199.437 68.79C199.437 68.082 199.563 67.47 199.815 66.954C200.067 66.438 200.421 66.04 200.877 65.76C201.337 65.48 201.879 65.34 202.503 65.34C203.143 65.34 203.689 65.488 204.141 65.784C204.593 66.076 204.935 66.496 205.167 67.044C205.399 67.592 205.505 68.246 205.485 69.006H204.585V68.694C204.569 67.854 204.387 67.22 204.039 66.792C203.695 66.364 203.191 66.15 202.527 66.15C201.831 66.15 201.297 66.376 200.925 66.828C200.557 67.28 200.373 67.924 200.373 68.76C200.373 69.576 200.557 70.21 200.925 70.662C201.297 71.11 201.823 71.334 202.503 71.334C202.967 71.334 203.371 71.228 203.715 71.016C204.063 70.8 204.337 70.49 204.537 70.086L205.359 70.404C205.103 70.968 204.725 71.406 204.225 71.718C203.729 72.026 203.167 72.18 202.539 72.18ZM200.061 69.006V68.268H205.011V69.006H200.061ZM209.727 72.18C209.131 72.18 208.627 72.03 208.215 71.73C207.803 71.426 207.491 71.016 207.279 70.5C207.067 69.98 206.961 69.398 206.961 68.754C206.961 68.098 207.067 67.514 207.279 67.002C207.495 66.486 207.811 66.08 208.227 65.784C208.643 65.488 209.155 65.34 209.763 65.34C210.355 65.34 210.863 65.49 211.287 65.79C211.711 66.09 212.035 66.498 212.259 67.014C212.487 67.53 212.601 68.11 212.601 68.754C212.601 69.402 212.487 69.984 212.259 70.5C212.031 71.016 211.703 71.426 211.275 71.73C210.847 72.03 210.331 72.18 209.727 72.18ZM206.811 74.88V65.52H207.603V70.398H207.699V74.88H206.811ZM209.637 71.358C210.089 71.358 210.465 71.244 210.765 71.016C211.065 70.788 211.289 70.478 211.437 70.086C211.589 69.69 211.665 69.246 211.665 68.754C211.665 68.266 211.591 67.826 211.443 67.434C211.295 67.042 211.069 66.732 210.765 66.504C210.465 66.276 210.083 66.162 209.619 66.162C209.167 66.162 208.791 66.272 208.491 66.492C208.195 66.712 207.973 67.018 207.825 67.41C207.677 67.798 207.603 68.246 207.603 68.754C207.603 69.254 207.677 69.702 207.825 70.098C207.973 70.49 208.197 70.798 208.497 71.022C208.797 71.246 209.177 71.358 209.637 71.358ZM216.314 72V65.52H221.468V72H220.586V66.366H217.196V72H216.314ZM225.859 72.18C225.215 72.18 224.665 72.034 224.209 71.742C223.753 71.45 223.403 71.046 223.159 70.53C222.915 70.014 222.793 69.422 222.793 68.754C222.793 68.074 222.917 67.478 223.165 66.966C223.413 66.454 223.765 66.056 224.221 65.772C224.681 65.484 225.227 65.34 225.859 65.34C226.507 65.34 227.059 65.486 227.515 65.778C227.975 66.066 228.325 66.468 228.565 66.984C228.809 67.496 228.931 68.086 228.931 68.754C228.931 69.434 228.809 70.032 228.565 70.548C228.321 71.06 227.969 71.46 227.509 71.748C227.049 72.036 226.499 72.18 225.859 72.18ZM225.859 71.334C226.579 71.334 227.115 71.096 227.467 70.62C227.819 70.14 227.995 69.518 227.995 68.754C227.995 67.97 227.817 67.346 227.461 66.882C227.109 66.418 226.575 66.186 225.859 66.186C225.375 66.186 224.975 66.296 224.659 66.516C224.347 66.732 224.113 67.034 223.957 67.422C223.805 67.806 223.729 68.25 223.729 68.754C223.729 69.534 223.909 70.16 224.269 70.632C224.629 71.1 225.159 71.334 225.859 71.334ZM232.776 72V63.36H233.658V72H232.776ZM237.755 72V64.206H234.737V63.36H241.655V64.206H238.637V72H237.755ZM247.398 72.18C246.766 72.18 246.218 72.04 245.754 71.76C245.294 71.48 244.936 71.086 244.68 70.578C244.424 70.07 244.296 69.474 244.296 68.79C244.296 68.082 244.422 67.47 244.674 66.954C244.926 66.438 245.28 66.04 245.736 65.76C246.196 65.48 246.738 65.34 247.362 65.34C248.002 65.34 248.548 65.488 249 65.784C249.452 66.076 249.794 66.496 250.026 67.044C250.258 67.592 250.364 68.246 250.344 69.006H249.444V68.694C249.428 67.854 249.246 67.22 248.898 66.792C248.554 66.364 248.05 66.15 247.386 66.15C246.69 66.15 246.156 66.376 245.784 66.828C245.416 67.28 245.232 67.924 245.232 68.76C245.232 69.576 245.416 70.21 245.784 70.662C246.156 71.11 246.682 71.334 247.362 71.334C247.826 71.334 248.23 71.228 248.574 71.016C248.922 70.8 249.196 70.49 249.396 70.086L250.218 70.404C249.962 70.968 249.584 71.406 249.084 71.718C248.588 72.026 248.026 72.18 247.398 72.18ZM244.92 69.006V68.268H249.87V69.006H244.92ZM259.062 73.122V72H251.67V65.52H252.528V71.184H254.958V65.52H255.816V71.184H258.24V65.52H259.098V71.184H259.944V73.122H259.062ZM264.271 64.254V63.294H265.231V64.254H264.271ZM261.985 64.254V63.294H262.945V64.254H261.985ZM263.641 72.18C263.009 72.18 262.461 72.04 261.997 71.76C261.537 71.48 261.179 71.086 260.923 70.578C260.667 70.07 260.539 69.474 260.539 68.79C260.539 68.082 260.665 67.47 260.917 66.954C261.169 66.438 261.523 66.04 261.979 65.76C262.439 65.48 262.981 65.34 263.605 65.34C264.245 65.34 264.791 65.488 265.243 65.784C265.695 66.076 266.037 66.496 266.269 67.044C266.501 67.592 266.607 68.246 266.587 69.006H265.687V68.694C265.671 67.854 265.489 67.22 265.141 66.792C264.797 66.364 264.293 66.15 263.629 66.15C262.933 66.15 262.399 66.376 262.027 66.828C261.659 67.28 261.475 67.924 261.475 68.76C261.475 69.576 261.659 70.21 262.027 70.662C262.399 71.11 262.925 71.334 263.605 71.334C264.069 71.334 264.473 71.228 264.817 71.016C265.165 70.8 265.439 70.49 265.639 70.086L266.461 70.404C266.205 70.968 265.827 71.406 265.327 71.718C264.831 72.026 264.269 72.18 263.641 72.18ZM261.163 69.006V68.268H266.113V69.006H261.163ZM270.314 72V65.52H272.984C273.12 65.52 273.284 65.528 273.476 65.544C273.672 65.56 273.854 65.59 274.022 65.634C274.386 65.73 274.678 65.926 274.898 66.222C275.122 66.518 275.234 66.874 275.234 67.29C275.234 67.522 275.198 67.73 275.126 67.914C275.058 68.094 274.96 68.25 274.832 68.382C274.772 68.45 274.706 68.51 274.634 68.562C274.562 68.61 274.492 68.65 274.424 68.682C274.552 68.706 274.69 68.762 274.838 68.85C275.07 68.986 275.246 69.17 275.366 69.402C275.486 69.63 275.546 69.908 275.546 70.236C275.546 70.68 275.44 71.042 275.228 71.322C275.016 71.602 274.732 71.794 274.376 71.898C274.216 71.942 274.042 71.97 273.854 71.982C273.67 71.994 273.496 72 273.332 72H270.314ZM271.202 71.25H273.29C273.374 71.25 273.48 71.244 273.608 71.232C273.736 71.216 273.85 71.196 273.95 71.172C274.186 71.112 274.358 70.992 274.466 70.812C274.578 70.628 274.634 70.428 274.634 70.212C274.634 69.928 274.55 69.696 274.382 69.516C274.218 69.332 273.998 69.22 273.722 69.18C273.63 69.16 273.534 69.148 273.434 69.144C273.334 69.14 273.244 69.138 273.164 69.138H271.202V71.25ZM271.202 68.382H273.014C273.118 68.382 273.234 68.376 273.362 68.364C273.494 68.348 273.608 68.322 273.704 68.286C273.912 68.214 274.064 68.09 274.16 67.914C274.26 67.738 274.31 67.546 274.31 67.338C274.31 67.11 274.256 66.91 274.148 66.738C274.044 66.566 273.886 66.446 273.674 66.378C273.53 66.326 273.374 66.296 273.206 66.288C273.042 66.28 272.938 66.276 272.894 66.276H271.202V68.382ZM282.055 72.18C281.459 72.18 280.955 72.03 280.543 71.73C280.131 71.426 279.819 71.016 279.607 70.5C279.395 69.98 279.289 69.398 279.289 68.754C279.289 68.098 279.395 67.514 279.607 67.002C279.823 66.486 280.139 66.08 280.555 65.784C280.971 65.488 281.483 65.34 282.091 65.34C282.683 65.34 283.191 65.49 283.615 65.79C284.039 66.09 284.363 66.498 284.587 67.014C284.815 67.53 284.929 68.11 284.929 68.754C284.929 69.402 284.815 69.984 284.587 70.5C284.359 71.016 284.031 71.426 283.603 71.73C283.175 72.03 282.659 72.18 282.055 72.18ZM279.139 74.88V65.52H279.931V70.398H280.027V74.88H279.139ZM281.965 71.358C282.417 71.358 282.793 71.244 283.093 71.016C283.393 70.788 283.617 70.478 283.765 70.086C283.917 69.69 283.993 69.246 283.993 68.754C283.993 68.266 283.919 67.826 283.771 67.434C283.623 67.042 283.397 66.732 283.093 66.504C282.793 66.276 282.411 66.162 281.947 66.162C281.495 66.162 281.119 66.272 280.819 66.492C280.523 66.712 280.301 67.018 280.153 67.41C280.005 67.798 279.931 68.246 279.931 68.754C279.931 69.254 280.005 69.702 280.153 70.098C280.301 70.49 280.525 70.798 280.825 71.022C281.125 71.246 281.505 71.358 281.965 71.358ZM288.1 72.18C287.612 72.18 287.202 72.092 286.87 71.916C286.542 71.74 286.296 71.506 286.132 71.214C285.968 70.922 285.886 70.604 285.886 70.26C285.886 69.908 285.956 69.608 286.096 69.36C286.24 69.108 286.434 68.902 286.678 68.742C286.926 68.582 287.212 68.46 287.536 68.376C287.864 68.296 288.226 68.226 288.622 68.166C289.022 68.102 289.412 68.048 289.792 68.004C290.176 67.956 290.512 67.91 290.8 67.866L290.488 68.058C290.5 67.418 290.376 66.944 290.116 66.636C289.856 66.328 289.404 66.174 288.76 66.174C288.316 66.174 287.94 66.274 287.632 66.474C287.328 66.674 287.114 66.99 286.99 67.422L286.132 67.17C286.28 66.59 286.578 66.14 287.026 65.82C287.474 65.5 288.056 65.34 288.772 65.34C289.364 65.34 289.866 65.452 290.278 65.676C290.694 65.896 290.988 66.216 291.16 66.636C291.24 66.824 291.292 67.034 291.316 67.266C291.34 67.498 291.352 67.734 291.352 67.974V72H290.566V70.374L290.794 70.47C290.574 71.026 290.232 71.45 289.768 71.742C289.304 72.034 288.748 72.18 288.1 72.18ZM288.202 71.418C288.614 71.418 288.974 71.344 289.282 71.196C289.59 71.048 289.838 70.846 290.026 70.59C290.214 70.33 290.336 70.038 290.392 69.714C290.44 69.506 290.466 69.278 290.47 69.03C290.474 68.778 290.476 68.59 290.476 68.466L290.812 68.64C290.512 68.68 290.186 68.72 289.834 68.76C289.486 68.8 289.142 68.846 288.802 68.898C288.466 68.95 288.162 69.012 287.89 69.084C287.706 69.136 287.528 69.21 287.356 69.306C287.184 69.398 287.042 69.522 286.93 69.678C286.822 69.834 286.768 70.028 286.768 70.26C286.768 70.448 286.814 70.63 286.906 70.806C287.002 70.982 287.154 71.128 287.362 71.244C287.574 71.36 287.854 71.418 288.202 71.418ZM295.512 72.186C294.908 72.182 294.39 72.05 293.958 71.79C293.526 71.53 293.19 71.142 292.95 70.626C292.714 70.11 292.586 69.466 292.566 68.694C292.554 68.354 292.562 67.984 292.59 67.584C292.618 67.18 292.662 66.796 292.722 66.432C292.782 66.068 292.854 65.772 292.938 65.544C293.042 65.248 293.19 64.972 293.382 64.716C293.578 64.456 293.804 64.244 294.06 64.08C294.308 63.912 294.588 63.782 294.9 63.69C295.216 63.594 295.544 63.52 295.884 63.468C296.228 63.416 296.568 63.37 296.904 63.33C297.244 63.29 297.558 63.24 297.846 63.18L297.942 63.978C297.722 64.022 297.462 64.062 297.162 64.098C296.862 64.134 296.548 64.178 296.22 64.23C295.892 64.278 295.578 64.344 295.278 64.428C294.978 64.512 294.722 64.622 294.51 64.758C294.186 64.954 293.936 65.25 293.76 65.646C293.588 66.042 293.482 66.496 293.442 67.008C293.69 66.62 294.018 66.328 294.426 66.132C294.838 65.936 295.284 65.838 295.764 65.838C296.348 65.838 296.85 65.972 297.27 66.24C297.694 66.508 298.02 66.88 298.248 67.356C298.476 67.832 298.59 68.378 298.59 68.994C298.59 69.638 298.464 70.2 298.212 70.68C297.964 71.16 297.61 71.532 297.15 71.796C296.69 72.056 296.144 72.186 295.512 72.186ZM295.578 71.34C296.258 71.34 296.774 71.128 297.126 70.704C297.482 70.28 297.66 69.716 297.66 69.012C297.66 68.292 297.476 67.724 297.108 67.308C296.744 66.892 296.23 66.684 295.566 66.684C294.902 66.684 294.392 66.892 294.036 67.308C293.68 67.724 293.502 68.292 293.502 69.012C293.502 69.732 293.68 70.3 294.036 70.716C294.392 71.132 294.906 71.34 295.578 71.34ZM302.616 72.18C301.972 72.18 301.422 72.034 300.966 71.742C300.51 71.45 300.16 71.046 299.916 70.53C299.672 70.014 299.55 69.422 299.55 68.754C299.55 68.074 299.674 67.478 299.922 66.966C300.17 66.454 300.522 66.056 300.978 65.772C301.438 65.484 301.984 65.34 302.616 65.34C303.264 65.34 303.816 65.486 304.272 65.778C304.732 66.066 305.082 66.468 305.322 66.984C305.566 67.496 305.688 68.086 305.688 68.754C305.688 69.434 305.566 70.032 305.322 70.548C305.078 71.06 304.726 71.46 304.266 71.748C303.806 72.036 303.256 72.18 302.616 72.18ZM302.616 71.334C303.336 71.334 303.872 71.096 304.224 70.62C304.576 70.14 304.752 69.518 304.752 68.754C304.752 67.97 304.574 67.346 304.218 66.882C303.866 66.418 303.332 66.186 302.616 66.186C302.132 66.186 301.732 66.296 301.416 66.516C301.104 66.732 300.87 67.034 300.714 67.422C300.562 67.806 300.486 68.25 300.486 68.754C300.486 69.534 300.666 70.16 301.026 70.632C301.386 71.1 301.916 71.334 302.616 71.334ZM308.618 72V66.336H306.32V65.52H311.798V66.336H309.5V72H308.618ZM315.684 72.18C315.052 72.18 314.504 72.04 314.04 71.76C313.58 71.48 313.222 71.086 312.966 70.578C312.71 70.07 312.582 69.474 312.582 68.79C312.582 68.082 312.708 67.47 312.96 66.954C313.212 66.438 313.566 66.04 314.022 65.76C314.482 65.48 315.024 65.34 315.648 65.34C316.288 65.34 316.834 65.488 317.286 65.784C317.738 66.076 318.08 66.496 318.312 67.044C318.544 67.592 318.65 68.246 318.63 69.006H317.73V68.694C317.714 67.854 317.532 67.22 317.184 66.792C316.84 66.364 316.336 66.15 315.672 66.15C314.976 66.15 314.442 66.376 314.07 66.828C313.702 67.28 313.518 67.924 313.518 68.76C313.518 69.576 313.702 70.21 314.07 70.662C314.442 71.11 314.968 71.334 315.648 71.334C316.112 71.334 316.516 71.228 316.86 71.016C317.208 70.8 317.482 70.49 317.682 70.086L318.504 70.404C318.248 70.968 317.87 71.406 317.37 71.718C316.874 72.026 316.312 72.18 315.684 72.18ZM313.206 69.006V68.268H318.156V69.006H313.206ZM321.653 69.642C321.653 69.33 321.667 69.056 321.695 68.82C321.727 68.58 321.807 68.34 321.935 68.1C322.055 67.872 322.203 67.684 322.379 67.536C322.555 67.384 322.739 67.242 322.931 67.11C323.123 66.974 323.305 66.814 323.477 66.63C323.633 66.45 323.737 66.268 323.789 66.084C323.841 65.9 323.867 65.706 323.867 65.502C323.867 65.298 323.841 65.116 323.789 64.956C323.741 64.796 323.665 64.658 323.561 64.542C323.401 64.346 323.205 64.212 322.973 64.14C322.741 64.068 322.499 64.032 322.247 64.032C321.999 64.032 321.767 64.068 321.551 64.14C321.339 64.208 321.163 64.314 321.023 64.458C320.887 64.586 320.787 64.74 320.723 64.92C320.663 65.1 320.633 65.29 320.633 65.49H319.721C319.737 65.174 319.805 64.866 319.925 64.566C320.049 64.262 320.229 64.008 320.465 63.804C320.701 63.588 320.975 63.432 321.287 63.336C321.603 63.236 321.921 63.186 322.241 63.186C322.633 63.186 323.005 63.246 323.357 63.366C323.709 63.482 324.005 63.678 324.245 63.954C324.437 64.158 324.577 64.392 324.665 64.656C324.757 64.916 324.803 65.194 324.803 65.49C324.803 65.822 324.741 66.134 324.617 66.426C324.493 66.718 324.319 66.978 324.095 67.206C323.959 67.354 323.805 67.492 323.633 67.62C323.461 67.744 323.295 67.874 323.135 68.01C322.979 68.142 322.859 68.286 322.775 68.442C322.671 68.634 322.613 68.816 322.601 68.988C322.593 69.16 322.589 69.378 322.589 69.642H321.653ZM321.659 72V70.824H322.589V72H321.659Z" fill="white"/>
<rect x="173" y="85" width="153" height="1" fill="#007AFF"/>
<path d="M336.352 83V75.146L334.72 76.124V75.332L336.352 74.36H337.048V83H336.352ZM340.84 83V75.146L339.208 76.124V75.332L340.84 74.36H341.536V83H340.84ZM344.297 81.98V81.11H345.167V81.98H344.297ZM344.297 78.41V77.54H345.167V78.41H344.297ZM351.103 83V81.248H346.987V80.57L349.921 74.36H350.695L347.761 80.57H351.103V77.96H351.799V80.57H352.789V81.248H351.799V83H351.103ZM358.31 83V81.248H354.194V80.57L357.128 74.36H357.902L354.968 80.57H358.31V77.96H359.006V80.57H359.996V81.248H359.006V83H358.31Z" fill="white"/>
<path d="M375.793 74.0004L368.633 81.8789L365.142 78.5395" stroke="#81E299" stroke-linecap="round" stroke-linejoin="round"/>
<path d="M380.74 74.0001L373.58 81.879L370.984 79.4201" stroke="#81E299" stroke-linecap="round" stroke-linejoin="round"/>
<path d="M387 55C387 55 392.738 55 394.2 55C395.662 55 396 56.5 394.65 58C393.3 59.5 387.499 64.5 387 66C386.501 67.5 387 55 387 55Z" fill="#007AFF"/>
<rect x="381" y="55" width="6" height="12" fill="#007AFF"/>
<rect x="381" y="67" width="6" height="16" fill="#007AFF"/>
<path d="M381 90C383.5 90 387 88 387 83H381V90Z" fill="#007AFF"/>
<path d="M271 18C271 14.6863 273.686 12 277 12H381V47H277C273.686 47 271 44.3137 271 41V18Z" fill="#007AFF"/>
<path d="M279.84 29V20.36H286.458V29H285.576V21.206H280.722V29H279.84ZM291.047 29.18C290.451 29.18 289.947 29.03 289.535 28.73C289.123 28.426 288.811 28.016 288.599 27.5C288.387 26.98 288.281 26.398 288.281 25.754C288.281 25.098 288.387 24.514 288.599 24.002C288.815 23.486 289.131 23.08 289.547 22.784C289.963 22.488 290.475 22.34 291.083 22.34C291.675 22.34 292.183 22.49 292.607 22.79C293.031 23.09 293.355 23.498 293.579 24.014C293.807 24.53 293.921 25.11 293.921 25.754C293.921 26.402 293.807 26.984 293.579 27.5C293.351 28.016 293.023 28.426 292.595 28.73C292.167 29.03 291.651 29.18 291.047 29.18ZM288.131 31.88V22.52H288.923V27.398H289.019V31.88H288.131ZM290.957 28.358C291.409 28.358 291.785 28.244 292.085 28.016C292.385 27.788 292.609 27.478 292.757 27.086C292.909 26.69 292.985 26.246 292.985 25.754C292.985 25.266 292.911 24.826 292.763 24.434C292.615 24.042 292.389 23.732 292.085 23.504C291.785 23.276 291.403 23.162 290.939 23.162C290.487 23.162 290.111 23.272 289.811 23.492C289.515 23.712 289.293 24.018 289.145 24.41C288.997 24.798 288.923 25.246 288.923 25.754C288.923 26.254 288.997 26.702 289.145 27.098C289.293 27.49 289.517 27.798 289.817 28.022C290.117 28.246 290.497 28.358 290.957 28.358ZM300.386 22.52V29H299.528V23.954L295.976 29H295.232V22.52H296.09V27.524L299.648 22.52H300.386ZM302.064 29V22.52H304.734C304.87 22.52 305.034 22.528 305.226 22.544C305.422 22.56 305.604 22.59 305.772 22.634C306.136 22.73 306.428 22.926 306.648 23.222C306.872 23.518 306.984 23.874 306.984 24.29C306.984 24.522 306.948 24.73 306.876 24.914C306.808 25.094 306.71 25.25 306.582 25.382C306.522 25.45 306.456 25.51 306.384 25.562C306.312 25.61 306.242 25.65 306.174 25.682C306.302 25.706 306.44 25.762 306.588 25.85C306.82 25.986 306.996 26.17 307.116 26.402C307.236 26.63 307.296 26.908 307.296 27.236C307.296 27.68 307.19 28.042 306.978 28.322C306.766 28.602 306.482 28.794 306.126 28.898C305.966 28.942 305.792 28.97 305.604 28.982C305.42 28.994 305.246 29 305.082 29H302.064ZM302.952 28.25H305.04C305.124 28.25 305.23 28.244 305.358 28.232C305.486 28.216 305.6 28.196 305.7 28.172C305.936 28.112 306.108 27.992 306.216 27.812C306.328 27.628 306.384 27.428 306.384 27.212C306.384 26.928 306.3 26.696 306.132 26.516C305.968 26.332 305.748 26.22 305.472 26.18C305.38 26.16 305.284 26.148 305.184 26.144C305.084 26.14 304.994 26.138 304.914 26.138H302.952V28.25ZM302.952 25.382H304.764C304.868 25.382 304.984 25.376 305.112 25.364C305.244 25.348 305.358 25.322 305.454 25.286C305.662 25.214 305.814 25.09 305.91 24.914C306.01 24.738 306.06 24.546 306.06 24.338C306.06 24.11 306.006 23.91 305.898 23.738C305.794 23.566 305.636 23.446 305.424 23.378C305.28 23.326 305.124 23.296 304.956 23.288C304.792 23.28 304.688 23.276 304.644 23.276H302.952V25.382ZM311.234 29.18C310.602 29.18 310.054 29.04 309.59 28.76C309.13 28.48 308.772 28.086 308.516 27.578C308.26 27.07 308.132 26.474 308.132 25.79C308.132 25.082 308.258 24.47 308.51 23.954C308.762 23.438 309.116 23.04 309.572 22.76C310.032 22.48 310.574 22.34 311.198 22.34C311.838 22.34 312.384 22.488 312.836 22.784C313.288 23.076 313.63 23.496 313.862 24.044C314.094 24.592 314.2 25.246 314.18 26.006H313.28V25.694C313.264 24.854 313.082 24.22 312.734 23.792C312.39 23.364 311.886 23.15 311.222 23.15C310.526 23.15 309.992 23.376 309.62 23.828C309.252 24.28 309.068 24.924 309.068 25.76C309.068 26.576 309.252 27.21 309.62 27.662C309.992 28.11 310.518 28.334 311.198 28.334C311.662 28.334 312.066 28.228 312.41 28.016C312.758 27.8 313.032 27.49 313.232 27.086L314.054 27.404C313.798 27.968 313.42 28.406 312.92 28.718C312.424 29.026 311.862 29.18 311.234 29.18ZM308.756 26.006V25.268H313.706V26.006H308.756ZM317.188 29V23.336H314.89V22.52H320.368V23.336H318.07V29H317.188ZM322.112 29V28.01H322.994V29H322.112ZM322.112 26.84V20.36H322.994V26.84H322.112Z" fill="white"/>
<rect x="279" y="42" width="46" height="1" fill="#007AFF"/>
<path d="M335.346 40V32.344L333.72 33.322V32.332L335.346 31.36H336.24V40H335.346ZM340.022 40V32.344L338.396 33.322V32.332L340.022 31.36H340.916V40H340.022ZM343.672 39.04V38.014H344.698V39.04H343.672ZM343.678 35.506V34.48H344.704V35.506H343.678ZM350.582 40V38.326H346.538V37.486L349.43 31.36H350.42L347.528 37.486H350.582V34.966H351.47V37.486H352.411V38.326H351.47V40H350.582ZM357.789 40V38.326H353.745V37.486L356.637 31.36H357.627L354.735 37.486H357.789V34.966H358.677V37.486H359.619V38.326H358.677V40H357.789Z" fill="white"/>
<path d="M375.793 31.0004L368.633 38.8789L365.142 35.5395" stroke="#81E299" stroke-linecap="round" stroke-linejoin="round"/>
<path d="M380.74 31.0001L373.58 38.879L370.984 36.4201" stroke="#81E299" stroke-linecap="round" stroke-linejoin="round"/>
<path d="M387 12C387 12 392.738 12 394.2 12C395.662 12 396 13.5 394.65 15C393.3 16.5 387.499 21.5 387 23C386.501 24.5 387 12 387 12Z" fill="#007AFF"/>
<rect x="381" y="12" width="6" height="12" fill="#007AFF"/>
<rect x="381" y="24" width="6" height="16" fill="#007AFF"/>
<path d="M381 47C383.5 47 387 45 387 40H381V47Z" fill="#007AFF"/>
<rect x="12" y="135" width="32" height="32" rx="16" fill="white"/>
<rect x="13" y="136" width="30" height="30" rx="15" stroke="#3253ED" stroke-opacity="0.15" stroke-width="2"/>
<path d="M34 147.272C34 148.86 33.6898 150.432 33.0869 151.899C32.4839 153.367 31.5997 154.7 30.4854 155.823C29.3712 156.946 28.0485 157.837 26.5928 158.444C25.1369 159.052 23.5759 159.364 22 159.364V155.238C23.0381 155.238 24.0663 155.032 25.0254 154.632C25.9844 154.232 26.8558 153.645 27.5898 152.905C28.3239 152.166 28.9064 151.287 29.3037 150.32C29.7009 149.354 29.9052 148.318 29.9053 147.272H34ZM29.8994 147.272H25.6602V143H29.8994V147.272Z" fill="#3253ED"/>
<circle cx="39.1152" cy="162" r="4.375" fill="#3253ED" stroke="white" stroke-width="1.25"/>
<path d="M57 135C57 135 51.2621 135 49.8 135C48.338 135 48.0001 136.5 49.3501 138C50.7001 139.5 56.5007 144.5 57 146C57.4994 147.5 57 135 57 135Z" fill="white"/>
<rect width="6" height="12" transform="matrix(-1 0 0 1 63 135)" fill="white"/>
<rect x="57" y="147" width="6" height="54" fill="white"/>
<path d="M63 208C60.5 208 57 206 57 201H63V208Z" fill="white"/>
<path d="M63 135H356C359.314 135 362 137.686 362 141V202C362 205.314 359.314 208 356 208H63V135Z" fill="white"/>
<path d="M71.634 153.21C70.9107 153.21 70.2573 153.086 69.674 152.839C69.0953 152.587 68.617 152.23 68.239 151.768C67.8657 151.301 67.623 150.748 67.511 150.109L69.037 149.878C69.191 150.494 69.513 150.975 70.003 151.32C70.493 151.661 71.0647 151.831 71.718 151.831C72.124 151.831 72.4973 151.768 72.838 151.642C73.1787 151.511 73.4517 151.327 73.657 151.089C73.867 150.846 73.972 150.557 73.972 150.221C73.972 150.039 73.9393 149.878 73.874 149.738C73.8133 149.598 73.727 149.477 73.615 149.374C73.5077 149.267 73.3747 149.176 73.216 149.101C73.062 149.022 72.8917 148.954 72.705 148.898L70.122 148.135C69.87 148.06 69.6133 147.965 69.352 147.848C69.0907 147.727 68.8503 147.57 68.631 147.379C68.4163 147.183 68.2413 146.943 68.106 146.658C67.9707 146.369 67.903 146.019 67.903 145.608C67.903 144.987 68.0617 144.462 68.379 144.033C68.701 143.599 69.135 143.272 69.681 143.053C70.227 142.829 70.8383 142.717 71.515 142.717C72.1963 142.726 72.8053 142.848 73.342 143.081C73.8833 143.314 74.3313 143.65 74.686 144.089C75.0453 144.523 75.2927 145.05 75.428 145.671L73.86 145.937C73.79 145.559 73.6407 145.235 73.412 144.964C73.1833 144.689 72.9033 144.479 72.572 144.334C72.2407 144.185 71.8813 144.108 71.494 144.103C71.1207 144.094 70.7777 144.15 70.465 144.271C70.157 144.392 69.9097 144.563 69.723 144.782C69.541 145.001 69.45 145.253 69.45 145.538C69.45 145.818 69.5317 146.044 69.695 146.217C69.8583 146.39 70.059 146.527 70.297 146.63C70.5397 146.728 70.78 146.81 71.018 146.875L72.88 147.4C73.1133 147.465 73.377 147.554 73.671 147.666C73.9697 147.773 74.2567 147.925 74.532 148.121C74.812 148.317 75.043 148.578 75.225 148.905C75.407 149.227 75.498 149.633 75.498 150.123C75.498 150.632 75.3953 151.08 75.19 151.467C74.9847 151.85 74.7023 152.172 74.343 152.433C73.9883 152.69 73.5777 152.883 73.111 153.014C72.6443 153.145 72.152 153.21 71.634 153.21ZM81.3158 153C80.8398 153.093 80.3731 153.133 79.9158 153.119C79.4584 153.105 79.0501 153.016 78.6908 152.853C78.3314 152.69 78.0608 152.433 77.8788 152.083C77.7154 151.77 77.6268 151.453 77.6128 151.131C77.6034 150.804 77.5988 150.436 77.5988 150.025V143.34H79.0688V149.955C79.0688 150.258 79.0711 150.522 79.0758 150.746C79.0851 150.97 79.1341 151.159 79.2228 151.313C79.3908 151.602 79.6568 151.768 80.0208 151.81C80.3894 151.847 80.8211 151.831 81.3158 151.761V153ZM76.1498 146.616V145.44H81.3158V146.616H76.1498ZM85.0447 153.21C84.4847 153.21 84.0157 153.107 83.6377 152.902C83.2597 152.692 82.9727 152.417 82.7767 152.076C82.5854 151.731 82.4897 151.353 82.4897 150.942C82.4897 150.559 82.5574 150.223 82.6927 149.934C82.828 149.645 83.0287 149.4 83.2947 149.199C83.5607 148.994 83.8874 148.828 84.2747 148.702C84.6107 148.604 84.991 148.518 85.4157 148.443C85.8404 148.368 86.286 148.298 86.7527 148.233C87.224 148.168 87.6907 148.102 88.1527 148.037L87.6207 148.331C87.63 147.738 87.504 147.3 87.2427 147.015C86.986 146.726 86.5427 146.581 85.9127 146.581C85.516 146.581 85.152 146.674 84.8207 146.861C84.4894 147.043 84.2584 147.346 84.1277 147.771L82.7627 147.351C82.9494 146.702 83.304 146.187 83.8267 145.804C84.354 145.421 85.054 145.23 85.9267 145.23C86.6034 145.23 87.1914 145.347 87.6907 145.58C88.1947 145.809 88.5634 146.173 88.7967 146.672C88.918 146.919 88.9927 147.181 89.0207 147.456C89.0487 147.731 89.0627 148.028 89.0627 148.345V153H87.7677V151.271L88.0197 151.495C87.707 152.074 87.308 152.505 86.8227 152.79C86.342 153.07 85.7494 153.21 85.0447 153.21ZM85.3037 152.013C85.719 152.013 86.076 151.941 86.3747 151.796C86.6734 151.647 86.9137 151.458 87.0957 151.229C87.2777 151 87.3967 150.762 87.4527 150.515C87.532 150.291 87.5764 150.039 87.5857 149.759C87.5997 149.479 87.6067 149.255 87.6067 149.087L88.0827 149.262C87.6207 149.332 87.2007 149.395 86.8227 149.451C86.4447 149.507 86.1017 149.563 85.7937 149.619C85.4904 149.67 85.2197 149.733 84.9817 149.808C84.781 149.878 84.6014 149.962 84.4427 150.06C84.2887 150.158 84.165 150.277 84.0717 150.417C83.983 150.557 83.9387 150.727 83.9387 150.928C83.9387 151.124 83.9877 151.306 84.0857 151.474C84.1837 151.637 84.333 151.768 84.5337 151.866C84.7344 151.964 84.991 152.013 85.3037 152.013ZM91.5734 153V145.174C91.5734 144.983 91.5804 144.78 91.5944 144.565C91.6084 144.346 91.6481 144.131 91.7134 143.921C91.7834 143.706 91.8977 143.51 92.0564 143.333C92.2477 143.123 92.4577 142.974 92.6864 142.885C92.9151 142.796 93.1414 142.745 93.3654 142.731C93.5941 142.717 93.8041 142.71 93.9954 142.71H94.9474V143.914H94.0654C93.7201 143.914 93.4611 144 93.2884 144.173C93.1204 144.341 93.0364 144.581 93.0364 144.894V153H91.5734ZM90.3204 146.616V145.44H94.9474V146.616H90.3204ZM96.1514 153V145.174C96.1514 144.983 96.1584 144.78 96.1724 144.565C96.1864 144.346 96.2261 144.131 96.2914 143.921C96.3614 143.706 96.4757 143.51 96.6344 143.333C96.8257 143.123 97.0357 142.974 97.2644 142.885C97.4931 142.796 97.7194 142.745 97.9434 142.731C98.1721 142.717 98.3821 142.71 98.5734 142.71H99.5254V143.914H98.6434C98.2981 143.914 98.0391 144 97.8664 144.173C97.6984 144.341 97.6144 144.581 97.6144 144.894V153H96.1514ZM94.8984 146.616V145.44H99.5254V146.616H94.8984ZM99.5221 156.36V154.974H99.9071C100.294 154.974 100.577 154.881 100.754 154.694C100.936 154.507 101.027 154.22 101.027 153.833V145.44H102.497V154.428C102.497 155.044 102.327 155.52 101.986 155.856C101.65 156.192 101.167 156.36 100.537 156.36H99.5221ZM101.027 144.201V142.78H102.497V144.201H101.027ZM107.851 153.21C107.099 153.21 106.439 153.047 105.87 152.72C105.305 152.389 104.864 151.929 104.547 151.341C104.234 150.748 104.078 150.062 104.078 149.283C104.078 148.457 104.232 147.741 104.54 147.134C104.852 146.527 105.286 146.058 105.842 145.727C106.397 145.396 107.043 145.23 107.781 145.23C108.551 145.23 109.206 145.41 109.748 145.769C110.289 146.124 110.693 146.63 110.959 147.288C111.229 147.946 111.337 148.728 111.281 149.633H109.818V149.101C109.808 148.224 109.64 147.575 109.314 147.155C108.992 146.735 108.499 146.525 107.837 146.525C107.104 146.525 106.553 146.756 106.185 147.218C105.816 147.68 105.632 148.347 105.632 149.22C105.632 150.051 105.816 150.695 106.185 151.152C106.553 151.605 107.085 151.831 107.781 151.831C108.238 151.831 108.632 151.728 108.964 151.523C109.3 151.313 109.561 151.014 109.748 150.627L111.183 151.082C110.889 151.759 110.443 152.284 109.846 152.657C109.248 153.026 108.583 153.21 107.851 153.21ZM105.156 149.633V148.492H110.553V149.633H105.156ZM117.177 153C116.701 153.093 116.234 153.133 115.777 153.119C115.32 153.105 114.911 153.016 114.552 152.853C114.193 152.69 113.922 152.433 113.74 152.083C113.577 151.77 113.488 151.453 113.474 151.131C113.465 150.804 113.46 150.436 113.46 150.025V143.34H114.93V149.955C114.93 150.258 114.932 150.522 114.937 150.746C114.946 150.97 114.995 151.159 115.084 151.313C115.252 151.602 115.518 151.768 115.882 151.81C116.251 151.847 116.682 151.831 117.177 151.761V153ZM112.011 146.616V145.44H117.177V146.616H112.011Z" fill="#2C2C2E"/>
<path d="M128.84 153V144.36H129.65L133.046 151.626L136.424 144.36H137.246V152.994H136.406V146.328L133.328 153H132.758L129.686 146.328V153H128.84ZM141.672 153.18C141.04 153.18 140.492 153.04 140.028 152.76C139.568 152.48 139.21 152.086 138.954 151.578C138.698 151.07 138.57 150.474 138.57 149.79C138.57 149.082 138.696 148.47 138.948 147.954C139.2 147.438 139.554 147.04 140.01 146.76C140.47 146.48 141.012 146.34 141.636 146.34C142.276 146.34 142.822 146.488 143.274 146.784C143.726 147.076 144.068 147.496 144.3 148.044C144.532 148.592 144.638 149.246 144.618 150.006H143.718V149.694C143.702 148.854 143.52 148.22 143.172 147.792C142.828 147.364 142.324 147.15 141.66 147.15C140.964 147.15 140.43 147.376 140.058 147.828C139.69 148.28 139.506 148.924 139.506 149.76C139.506 150.576 139.69 151.21 140.058 151.662C140.43 152.11 140.956 152.334 141.636 152.334C142.1 152.334 142.504 152.228 142.848 152.016C143.196 151.8 143.47 151.49 143.67 151.086L144.492 151.404C144.236 151.968 143.858 152.406 143.358 152.718C142.862 153.026 142.3 153.18 141.672 153.18ZM139.194 150.006V149.268H144.144V150.006H139.194ZM145.943 153V146.52H146.825V149.334H150.479V146.52H151.361V153H150.479V150.18H146.825V153H145.943ZM155.781 153.18C155.149 153.18 154.601 153.04 154.137 152.76C153.677 152.48 153.319 152.086 153.063 151.578C152.807 151.07 152.679 150.474 152.679 149.79C152.679 149.082 152.805 148.47 153.057 147.954C153.309 147.438 153.663 147.04 154.119 146.76C154.579 146.48 155.121 146.34 155.745 146.34C156.385 146.34 156.931 146.488 157.383 146.784C157.835 147.076 158.177 147.496 158.409 148.044C158.641 148.592 158.747 149.246 158.727 150.006H157.827V149.694C157.811 148.854 157.629 148.22 157.281 147.792C156.937 147.364 156.433 147.15 155.769 147.15C155.073 147.15 154.539 147.376 154.167 147.828C153.799 148.28 153.615 148.924 153.615 149.76C153.615 150.576 153.799 151.21 154.167 151.662C154.539 152.11 155.065 152.334 155.745 152.334C156.209 152.334 156.613 152.228 156.957 152.016C157.305 151.8 157.579 151.49 157.779 151.086L158.601 151.404C158.345 151.968 157.967 152.406 157.467 152.718C156.971 153.026 156.409 153.18 155.781 153.18ZM153.303 150.006V149.268H158.253V150.006H153.303ZM159.579 154.44V152.244C159.947 152.244 160.211 152.126 160.371 151.89C160.531 151.65 160.661 151.268 160.761 150.744C160.829 150.404 160.885 150.038 160.929 149.646C160.973 149.254 161.011 148.806 161.043 148.302C161.075 147.794 161.105 147.2 161.133 146.52H165.417V152.244H166.041V154.44H165.189V153H160.425V154.44H159.579ZM161.073 152.244H164.541V147.276H161.949C161.937 147.58 161.919 147.902 161.895 148.242C161.875 148.582 161.849 148.922 161.817 149.262C161.789 149.602 161.755 149.922 161.715 150.222C161.679 150.518 161.635 150.778 161.583 151.002C161.523 151.29 161.457 151.536 161.385 151.74C161.317 151.944 161.213 152.112 161.073 152.244ZM166.522 153L169.258 149.76L166.636 146.52H167.632L170.188 149.718V146.52H171.004V149.718L173.56 146.52H174.55L171.928 149.76L174.664 153H173.638L171.004 149.802V153H170.188V149.802L167.548 153H166.522ZM178.129 153.18C177.497 153.18 176.949 153.04 176.485 152.76C176.025 152.48 175.667 152.086 175.411 151.578C175.155 151.07 175.027 150.474 175.027 149.79C175.027 149.082 175.153 148.47 175.405 147.954C175.657 147.438 176.011 147.04 176.467 146.76C176.927 146.48 177.469 146.34 178.093 146.34C178.733 146.34 179.279 146.488 179.731 146.784C180.183 147.076 180.525 147.496 180.757 148.044C180.989 148.592 181.095 149.246 181.075 150.006H180.175V149.694C180.159 148.854 179.977 148.22 179.629 147.792C179.285 147.364 178.781 147.15 178.117 147.15C177.421 147.15 176.887 147.376 176.515 147.828C176.147 148.28 175.963 148.924 175.963 149.76C175.963 150.576 176.147 151.21 176.515 151.662C176.887 152.11 177.413 152.334 178.093 152.334C178.557 152.334 178.961 152.228 179.305 152.016C179.653 151.8 179.927 151.49 180.127 151.086L180.949 151.404C180.693 151.968 180.315 152.406 179.815 152.718C179.319 153.026 178.757 153.18 178.129 153.18ZM175.651 150.006V149.268H180.601V150.006H175.651ZM185.316 153.18C184.72 153.18 184.216 153.03 183.804 152.73C183.392 152.426 183.08 152.016 182.868 151.5C182.656 150.98 182.55 150.398 182.55 149.754C182.55 149.098 182.656 148.514 182.868 148.002C183.084 147.486 183.4 147.08 183.816 146.784C184.232 146.488 184.744 146.34 185.352 146.34C185.944 146.34 186.452 146.49 186.876 146.79C187.3 147.09 187.624 147.498 187.848 148.014C188.076 148.53 188.19 149.11 188.19 149.754C188.19 150.402 188.076 150.984 187.848 151.5C187.62 152.016 187.292 152.426 186.864 152.73C186.436 153.03 185.92 153.18 185.316 153.18ZM182.4 155.88V146.52H183.192V151.398H183.288V155.88H182.4ZM185.226 152.358C185.678 152.358 186.054 152.244 186.354 152.016C186.654 151.788 186.878 151.478 187.026 151.086C187.178 150.69 187.254 150.246 187.254 149.754C187.254 149.266 187.18 148.826 187.032 148.434C186.884 148.042 186.658 147.732 186.354 147.504C186.054 147.276 185.672 147.162 185.208 147.162C184.756 147.162 184.38 147.272 184.08 147.492C183.784 147.712 183.562 148.018 183.414 148.41C183.266 148.798 183.192 149.246 183.192 149.754C183.192 150.254 183.266 150.702 183.414 151.098C183.562 151.49 183.786 151.798 184.086 152.022C184.386 152.246 184.766 152.358 185.226 152.358Z" fill="#666668"/>
<path d="M67.84 174V165.36H74.458V174H73.576V166.206H68.722V174H67.84ZM79.0469 174.18C78.4509 174.18 77.9469 174.03 77.5349 173.73C77.1229 173.426 76.8109 173.016 76.5989 172.5C76.3869 171.98 76.2809 171.398 76.2809 170.754C76.2809 170.098 76.3869 169.514 76.5989 169.002C76.8149 168.486 77.1309 168.08 77.5469 167.784C77.9629 167.488 78.4749 167.34 79.0829 167.34C79.6749 167.34 80.1829 167.49 80.6069 167.79C81.0309 168.09 81.3549 168.498 81.5789 169.014C81.8069 169.53 81.9209 170.11 81.9209 170.754C81.9209 171.402 81.8069 171.984 81.5789 172.5C81.3509 173.016 81.0229 173.426 80.5949 173.73C80.1669 174.03 79.6509 174.18 79.0469 174.18ZM76.1309 176.88V167.52H76.9229V172.398H77.0189V176.88H76.1309ZM78.9569 173.358C79.4089 173.358 79.7849 173.244 80.0849 173.016C80.3849 172.788 80.6089 172.478 80.7569 172.086C80.9089 171.69 80.9849 171.246 80.9849 170.754C80.9849 170.266 80.9109 169.826 80.7629 169.434C80.6149 169.042 80.3889 168.732 80.0849 168.504C79.7849 168.276 79.4029 168.162 78.9389 168.162C78.4869 168.162 78.1109 168.272 77.8109 168.492C77.5149 168.712 77.2929 169.018 77.1449 169.41C76.9969 169.798 76.9229 170.246 76.9229 170.754C76.9229 171.254 76.9969 171.702 77.1449 172.098C77.2929 172.49 77.5169 172.798 77.8169 173.022C78.1169 173.246 78.4969 173.358 78.9569 173.358ZM88.3864 167.52V174H87.5284V168.954L83.9764 174H83.2324V167.52H84.0904V172.524L87.6484 167.52H88.3864ZM90.0645 174V167.52H92.7345C92.8705 167.52 93.0345 167.528 93.2265 167.544C93.4225 167.56 93.6045 167.59 93.7725 167.634C94.1365 167.73 94.4285 167.926 94.6485 168.222C94.8725 168.518 94.9845 168.874 94.9845 169.29C94.9845 169.522 94.9485 169.73 94.8765 169.914C94.8085 170.094 94.7105 170.25 94.5825 170.382C94.5225 170.45 94.4565 170.51 94.3845 170.562C94.3125 170.61 94.2425 170.65 94.1745 170.682C94.3025 170.706 94.4405 170.762 94.5885 170.85C94.8205 170.986 94.9965 171.17 95.1165 171.402C95.2365 171.63 95.2965 171.908 95.2965 172.236C95.2965 172.68 95.1905 173.042 94.9785 173.322C94.7665 173.602 94.4825 173.794 94.1265 173.898C93.9665 173.942 93.7925 173.97 93.6045 173.982C93.4205 173.994 93.2465 174 93.0825 174H90.0645ZM90.9525 173.25H93.0405C93.1245 173.25 93.2305 173.244 93.3585 173.232C93.4865 173.216 93.6005 173.196 93.7005 173.172C93.9365 173.112 94.1085 172.992 94.2165 172.812C94.3285 172.628 94.3845 172.428 94.3845 172.212C94.3845 171.928 94.3005 171.696 94.1325 171.516C93.9685 171.332 93.7485 171.22 93.4725 171.18C93.3805 171.16 93.2845 171.148 93.1845 171.144C93.0845 171.14 92.9945 171.138 92.9145 171.138H90.9525V173.25ZM90.9525 170.382H92.7645C92.8685 170.382 92.9845 170.376 93.1125 170.364C93.2445 170.348 93.3585 170.322 93.4545 170.286C93.6625 170.214 93.8145 170.09 93.9105 169.914C94.0105 169.738 94.0605 169.546 94.0605 169.338C94.0605 169.11 94.0065 168.91 93.8985 168.738C93.7945 168.566 93.6365 168.446 93.4245 168.378C93.2805 168.326 93.1245 168.296 92.9565 168.288C92.7925 168.28 92.6885 168.276 92.6445 168.276H90.9525V170.382ZM99.2343 174.18C98.6023 174.18 98.0543 174.04 97.5903 173.76C97.1303 173.48 96.7723 173.086 96.5163 172.578C96.2603 172.07 96.1323 171.474 96.1323 170.79C96.1323 170.082 96.2583 169.47 96.5103 168.954C96.7623 168.438 97.1163 168.04 97.5723 167.76C98.0323 167.48 98.5743 167.34 99.1983 167.34C99.8383 167.34 100.384 167.488 100.836 167.784C101.288 168.076 101.63 168.496 101.862 169.044C102.094 169.592 102.2 170.246 102.18 171.006H101.28V170.694C101.264 169.854 101.082 169.22 100.734 168.792C100.39 168.364 99.8863 168.15 99.2223 168.15C98.5263 168.15 97.9923 168.376 97.6203 168.828C97.2523 169.28 97.0683 169.924 97.0683 170.76C97.0683 171.576 97.2523 172.21 97.6203 172.662C97.9923 173.11 98.5183 173.334 99.1983 173.334C99.6623 173.334 100.066 173.228 100.41 173.016C100.758 172.8 101.032 172.49 101.232 172.086L102.054 172.404C101.798 172.968 101.42 173.406 100.92 173.718C100.424 174.026 99.8623 174.18 99.2343 174.18ZM96.7563 171.006V170.268H101.706V171.006H96.7563ZM105.188 174V168.336H102.89V167.52H108.368V168.336H106.07V174H105.188ZM110.112 174V173.01H110.994V174H110.112ZM110.112 171.84V165.36H110.994V171.84H110.112ZM115.274 175.44V173.154C115.61 173.154 115.88 173.07 116.084 172.902C116.288 172.73 116.444 172.502 116.552 172.218C116.66 171.934 116.742 171.616 116.798 171.264C116.854 170.908 116.902 170.548 116.942 170.184C116.998 169.652 117.042 169.138 117.074 168.642C117.11 168.146 117.14 167.632 117.164 167.1C117.192 166.568 117.224 165.986 117.26 165.354L122.588 165.36V173.154H123.206V175.44H122.33V174H116.156V175.44H115.274ZM116.96 173.154H121.706V166.206L118.082 166.2C118.058 166.688 118.034 167.16 118.01 167.616C117.986 168.072 117.958 168.532 117.926 168.996C117.894 169.46 117.852 169.944 117.8 170.448C117.756 170.908 117.704 171.31 117.644 171.654C117.584 171.998 117.5 172.292 117.392 172.536C117.288 172.78 117.144 172.986 116.96 173.154ZM126.378 174.18C125.89 174.18 125.48 174.092 125.148 173.916C124.82 173.74 124.574 173.506 124.41 173.214C124.246 172.922 124.164 172.604 124.164 172.26C124.164 171.908 124.234 171.608 124.374 171.36C124.518 171.108 124.712 170.902 124.956 170.742C125.204 170.582 125.49 170.46 125.814 170.376C126.142 170.296 126.504 170.226 126.9 170.166C127.3 170.102 127.69 170.048 128.07 170.004C128.454 169.956 128.79 169.91 129.078 169.866L128.766 170.058C128.778 169.418 128.654 168.944 128.394 168.636C128.134 168.328 127.682 168.174 127.038 168.174C126.594 168.174 126.218 168.274 125.91 168.474C125.606 168.674 125.392 168.99 125.268 169.422L124.41 169.17C124.558 168.59 124.856 168.14 125.304 167.82C125.752 167.5 126.334 167.34 127.05 167.34C127.642 167.34 128.144 167.452 128.556 167.676C128.972 167.896 129.266 168.216 129.438 168.636C129.518 168.824 129.57 169.034 129.594 169.266C129.618 169.498 129.63 169.734 129.63 169.974V174H128.844V172.374L129.072 172.47C128.852 173.026 128.51 173.45 128.046 173.742C127.582 174.034 127.026 174.18 126.378 174.18ZM126.48 173.418C126.892 173.418 127.252 173.344 127.56 173.196C127.868 173.048 128.116 172.846 128.304 172.59C128.492 172.33 128.614 172.038 128.67 171.714C128.718 171.506 128.744 171.278 128.748 171.03C128.752 170.778 128.754 170.59 128.754 170.466L129.09 170.64C128.79 170.68 128.464 170.72 128.112 170.76C127.764 170.8 127.42 170.846 127.08 170.898C126.744 170.95 126.44 171.012 126.168 171.084C125.984 171.136 125.806 171.21 125.634 171.306C125.462 171.398 125.32 171.522 125.208 171.678C125.1 171.834 125.046 172.028 125.046 172.26C125.046 172.448 125.092 172.63 125.184 172.806C125.28 172.982 125.432 173.128 125.64 173.244C125.852 173.36 126.132 173.418 126.48 173.418ZM131.072 175.254L131.126 174.816C131.286 174.828 131.402 174.796 131.474 174.72C131.546 174.644 131.59 174.542 131.606 174.414C131.622 174.286 131.626 174.148 131.618 174H131.072V172.734H132.098V174.24C132.098 174.608 132.004 174.884 131.816 175.068C131.632 175.252 131.384 175.314 131.072 175.254ZM136.775 174V167.52H139.445C139.581 167.52 139.745 167.528 139.937 167.544C140.133 167.56 140.315 167.59 140.483 167.634C140.847 167.73 141.139 167.926 141.359 168.222C141.583 168.518 141.695 168.874 141.695 169.29C141.695 169.522 141.659 169.73 141.587 169.914C141.519 170.094 141.421 170.25 141.293 170.382C141.233 170.45 141.167 170.51 141.095 170.562C141.023 170.61 140.953 170.65 140.885 170.682C141.013 170.706 141.151 170.762 141.299 170.85C141.531 170.986 141.707 171.17 141.827 171.402C141.947 171.63 142.007 171.908 142.007 172.236C142.007 172.68 141.901 173.042 141.689 173.322C141.477 173.602 141.193 173.794 140.837 173.898C140.677 173.942 140.503 173.97 140.315 173.982C140.131 173.994 139.957 174 139.793 174H136.775ZM137.663 173.25H139.751C139.835 173.25 139.941 173.244 140.069 173.232C140.197 173.216 140.311 173.196 140.411 173.172C140.647 173.112 140.819 172.992 140.927 172.812C141.039 172.628 141.095 172.428 141.095 172.212C141.095 171.928 141.011 171.696 140.843 171.516C140.679 171.332 140.459 171.22 140.183 171.18C140.091 171.16 139.995 171.148 139.895 171.144C139.795 171.14 139.705 171.138 139.625 171.138H137.663V173.25ZM137.663 170.382H139.475C139.579 170.382 139.695 170.376 139.823 170.364C139.955 170.348 140.069 170.322 140.165 170.286C140.373 170.214 140.525 170.09 140.621 169.914C140.721 169.738 140.771 169.546 140.771 169.338C140.771 169.11 140.717 168.91 140.609 168.738C140.505 168.566 140.347 168.446 140.135 168.378C139.991 168.326 139.835 168.296 139.667 168.288C139.503 168.28 139.399 168.276 139.355 168.276H137.663V170.382ZM145.891 174.18C145.239 174.18 144.687 174.034 144.235 173.742C143.783 173.45 143.439 173.048 143.203 172.536C142.971 172.02 142.851 171.428 142.843 170.76C142.851 170.08 142.975 169.484 143.215 168.972C143.455 168.456 143.801 168.056 144.253 167.772C144.705 167.484 145.253 167.34 145.897 167.34C146.553 167.34 147.123 167.5 147.607 167.82C148.095 168.14 148.429 168.578 148.609 169.134L147.745 169.41C147.593 169.022 147.351 168.722 147.019 168.51C146.691 168.294 146.315 168.186 145.891 168.186C145.415 168.186 145.021 168.296 144.709 168.516C144.397 168.732 144.165 169.034 144.013 169.422C143.861 169.81 143.783 170.256 143.779 170.76C143.787 171.536 143.967 172.16 144.319 172.632C144.671 173.1 145.195 173.334 145.891 173.334C146.331 173.334 146.705 173.234 147.013 173.034C147.325 172.83 147.561 172.534 147.721 172.146L148.609 172.41C148.369 172.986 148.017 173.426 147.553 173.73C147.089 174.03 146.535 174.18 145.891 174.18ZM153.22 166.254V165.294H154.18V166.254H153.22ZM150.934 166.254V165.294H151.894V166.254H150.934ZM152.59 174.18C151.958 174.18 151.41 174.04 150.946 173.76C150.486 173.48 150.128 173.086 149.872 172.578C149.616 172.07 149.488 171.474 149.488 170.79C149.488 170.082 149.614 169.47 149.866 168.954C150.118 168.438 150.472 168.04 150.928 167.76C151.388 167.48 151.93 167.34 152.554 167.34C153.194 167.34 153.74 167.488 154.192 167.784C154.644 168.076 154.986 168.496 155.218 169.044C155.45 169.592 155.556 170.246 155.536 171.006H154.636V170.694C154.62 169.854 154.438 169.22 154.09 168.792C153.746 168.364 153.242 168.15 152.578 168.15C151.882 168.15 151.348 168.376 150.976 168.828C150.608 169.28 150.424 169.924 150.424 170.76C150.424 171.576 150.608 172.21 150.976 172.662C151.348 173.11 151.874 173.334 152.554 173.334C153.018 173.334 153.422 173.228 153.766 173.016C154.114 172.8 154.388 172.49 154.588 172.086L155.41 172.404C155.154 172.968 154.776 173.406 154.276 173.718C153.78 174.026 153.218 174.18 152.59 174.18ZM150.112 171.006V170.268H155.062V171.006H150.112ZM161.124 174.18C160.636 174.18 160.226 174.092 159.894 173.916C159.566 173.74 159.32 173.506 159.156 173.214C158.992 172.922 158.91 172.604 158.91 172.26C158.91 171.908 158.98 171.608 159.12 171.36C159.264 171.108 159.458 170.902 159.702 170.742C159.95 170.582 160.236 170.46 160.56 170.376C160.888 170.296 161.25 170.226 161.646 170.166C162.046 170.102 162.436 170.048 162.816 170.004C163.2 169.956 163.536 169.91 163.824 169.866L163.512 170.058C163.524 169.418 163.4 168.944 163.14 168.636C162.88 168.328 162.428 168.174 161.784 168.174C161.34 168.174 160.964 168.274 160.656 168.474C160.352 168.674 160.138 168.99 160.014 169.422L159.156 169.17C159.304 168.59 159.602 168.14 160.05 167.82C160.498 167.5 161.08 167.34 161.796 167.34C162.388 167.34 162.89 167.452 163.302 167.676C163.718 167.896 164.012 168.216 164.184 168.636C164.264 168.824 164.316 169.034 164.34 169.266C164.364 169.498 164.376 169.734 164.376 169.974V174H163.59V172.374L163.818 172.47C163.598 173.026 163.256 173.45 162.792 173.742C162.328 174.034 161.772 174.18 161.124 174.18ZM161.226 173.418C161.638 173.418 161.998 173.344 162.306 173.196C162.614 173.048 162.862 172.846 163.05 172.59C163.238 172.33 163.36 172.038 163.416 171.714C163.464 171.506 163.49 171.278 163.494 171.03C163.498 170.778 163.5 170.59 163.5 170.466L163.836 170.64C163.536 170.68 163.21 170.72 162.858 170.76C162.51 170.8 162.166 170.846 161.826 170.898C161.49 170.95 161.186 171.012 160.914 171.084C160.73 171.136 160.552 171.21 160.38 171.306C160.208 171.398 160.066 171.522 159.954 171.678C159.846 171.834 159.792 172.028 159.792 172.26C159.792 172.448 159.838 172.63 159.93 172.806C160.026 172.982 160.178 173.128 160.386 173.244C160.598 173.36 160.878 173.418 161.226 173.418ZM165.932 174L165.938 167.52H166.826V170.64L169.718 167.52H170.894L167.858 170.76L171.29 174H170.006L166.826 170.88V174H165.932ZM173.649 174V168.336H171.351V167.52H176.829V168.336H174.531V174H173.649ZM183.121 167.52V174H182.263V168.954L178.711 174H177.967V167.52H178.825V172.524L182.383 167.52H183.121ZM184.799 174V167.52H187.469C187.605 167.52 187.769 167.528 187.961 167.544C188.157 167.56 188.339 167.59 188.507 167.634C188.871 167.73 189.163 167.926 189.383 168.222C189.607 168.518 189.719 168.874 189.719 169.29C189.719 169.522 189.683 169.73 189.611 169.914C189.543 170.094 189.445 170.25 189.317 170.382C189.257 170.45 189.191 170.51 189.119 170.562C189.047 170.61 188.977 170.65 188.909 170.682C189.037 170.706 189.175 170.762 189.323 170.85C189.555 170.986 189.731 171.17 189.851 171.402C189.971 171.63 190.031 171.908 190.031 172.236C190.031 172.68 189.925 173.042 189.713 173.322C189.501 173.602 189.217 173.794 188.861 173.898C188.701 173.942 188.527 173.97 188.339 173.982C188.155 173.994 187.981 174 187.817 174H184.799ZM185.687 173.25H187.775C187.859 173.25 187.965 173.244 188.093 173.232C188.221 173.216 188.335 173.196 188.435 173.172C188.671 173.112 188.843 172.992 188.951 172.812C189.063 172.628 189.119 172.428 189.119 172.212C189.119 171.928 189.035 171.696 188.867 171.516C188.703 171.332 188.483 171.22 188.207 171.18C188.115 171.16 188.019 171.148 187.919 171.144C187.819 171.14 187.729 171.138 187.649 171.138H185.687V173.25ZM185.687 170.382H187.499C187.603 170.382 187.719 170.376 187.847 170.364C187.979 170.348 188.093 170.322 188.189 170.286C188.397 170.214 188.549 170.09 188.645 169.914C188.745 169.738 188.795 169.546 188.795 169.338C188.795 169.11 188.741 168.91 188.633 168.738C188.529 168.566 188.371 168.446 188.159 168.378C188.015 168.326 187.859 168.296 187.691 168.288C187.527 168.28 187.423 168.276 187.379 168.276H185.687V170.382ZM191.221 174V167.52H192.103V170.334H195.757V167.52H196.639V174H195.757V171.18H192.103V174H191.221ZM201.023 174.18C200.379 174.18 199.829 174.034 199.373 173.742C198.917 173.45 198.567 173.046 198.323 172.53C198.079 172.014 197.957 171.422 197.957 170.754C197.957 170.074 198.081 169.478 198.329 168.966C198.577 168.454 198.929 168.056 199.385 167.772C199.845 167.484 200.391 167.34 201.023 167.34C201.671 167.34 202.223 167.486 202.679 167.778C203.139 168.066 203.489 168.468 203.729 168.984C203.973 169.496 204.095 170.086 204.095 170.754C204.095 171.434 203.973 172.032 203.729 172.548C203.485 173.06 203.133 173.46 202.673 173.748C202.213 174.036 201.663 174.18 201.023 174.18ZM201.023 173.334C201.743 173.334 202.279 173.096 202.631 172.62C202.983 172.14 203.159 171.518 203.159 170.754C203.159 169.97 202.981 169.346 202.625 168.882C202.273 168.418 201.739 168.186 201.023 168.186C200.539 168.186 200.139 168.296 199.823 168.516C199.511 168.732 199.277 169.034 199.121 169.422C198.969 169.806 198.893 170.25 198.893 170.754C198.893 171.534 199.073 172.16 199.433 172.632C199.793 173.1 200.323 173.334 201.023 173.334ZM205.352 174V172.974H206.378V174H205.352ZM214.131 174.18C213.271 174.18 212.545 173.99 211.953 173.61C211.361 173.226 210.913 172.696 210.609 172.02C210.305 171.344 210.153 170.564 210.153 169.68C210.153 168.796 210.305 168.016 210.609 167.34C210.913 166.664 211.361 166.136 211.953 165.756C212.545 165.372 213.271 165.18 214.131 165.18C215.135 165.18 215.955 165.438 216.591 165.954C217.227 166.466 217.663 167.154 217.899 168.018L216.999 168.252C216.815 167.568 216.485 167.026 216.009 166.626C215.533 166.226 214.907 166.026 214.131 166.026C213.455 166.026 212.893 166.18 212.445 166.488C211.997 166.796 211.659 167.226 211.431 167.778C211.207 168.326 211.091 168.96 211.083 169.68C211.079 170.4 211.189 171.034 211.413 171.582C211.641 172.13 211.981 172.56 212.433 172.872C212.889 173.18 213.455 173.334 214.131 173.334C214.907 173.334 215.533 173.134 216.009 172.734C216.485 172.33 216.815 171.788 216.999 171.108L217.899 171.342C217.663 172.206 217.227 172.896 216.591 173.412C215.955 173.924 215.135 174.18 214.131 174.18ZM220.981 174V168.336H218.683V167.52H224.161V168.336H221.863V174H220.981ZM226.913 174.18C226.425 174.18 226.015 174.092 225.683 173.916C225.355 173.74 225.109 173.506 224.945 173.214C224.781 172.922 224.699 172.604 224.699 172.26C224.699 171.908 224.769 171.608 224.909 171.36C225.053 171.108 225.247 170.902 225.491 170.742C225.739 170.582 226.025 170.46 226.349 170.376C226.677 170.296 227.039 170.226 227.435 170.166C227.835 170.102 228.225 170.048 228.605 170.004C228.989 169.956 229.325 169.91 229.613 169.866L229.301 170.058C229.313 169.418 229.189 168.944 228.929 168.636C228.669 168.328 228.217 168.174 227.573 168.174C227.129 168.174 226.753 168.274 226.445 168.474C226.141 168.674 225.927 168.99 225.803 169.422L224.945 169.17C225.093 168.59 225.391 168.14 225.839 167.82C226.287 167.5 226.869 167.34 227.585 167.34C228.177 167.34 228.679 167.452 229.091 167.676C229.507 167.896 229.801 168.216 229.973 168.636C230.053 168.824 230.105 169.034 230.129 169.266C230.153 169.498 230.165 169.734 230.165 169.974V174H229.379V172.374L229.607 172.47C229.387 173.026 229.045 173.45 228.581 173.742C228.117 174.034 227.561 174.18 226.913 174.18ZM227.015 173.418C227.427 173.418 227.787 173.344 228.095 173.196C228.403 173.048 228.651 172.846 228.839 172.59C229.027 172.33 229.149 172.038 229.205 171.714C229.253 171.506 229.279 171.278 229.283 171.03C229.287 170.778 229.289 170.59 229.289 170.466L229.625 170.64C229.325 170.68 228.999 170.72 228.647 170.76C228.299 170.8 227.955 170.846 227.615 170.898C227.279 170.95 226.975 171.012 226.703 171.084C226.519 171.136 226.341 171.21 226.169 171.306C225.997 171.398 225.855 171.522 225.743 171.678C225.635 171.834 225.581 172.028 225.581 172.26C225.581 172.448 225.627 172.63 225.719 172.806C225.815 172.982 225.967 173.128 226.175 173.244C226.387 173.36 226.667 173.418 227.015 173.418ZM231.721 174V167.52H234.391C234.527 167.52 234.691 167.528 234.883 167.544C235.079 167.56 235.261 167.59 235.429 167.634C235.793 167.73 236.085 167.926 236.305 168.222C236.529 168.518 236.641 168.874 236.641 169.29C236.641 169.522 236.605 169.73 236.533 169.914C236.465 170.094 236.367 170.25 236.239 170.382C236.179 170.45 236.113 170.51 236.041 170.562C235.969 170.61 235.899 170.65 235.831 170.682C235.959 170.706 236.097 170.762 236.245 170.85C236.477 170.986 236.653 171.17 236.773 171.402C236.893 171.63 236.953 171.908 236.953 172.236C236.953 172.68 236.847 173.042 236.635 173.322C236.423 173.602 236.139 173.794 235.783 173.898C235.623 173.942 235.449 173.97 235.261 173.982C235.077 173.994 234.903 174 234.739 174H231.721ZM232.609 173.25H234.697C234.781 173.25 234.887 173.244 235.015 173.232C235.143 173.216 235.257 173.196 235.357 173.172C235.593 173.112 235.765 172.992 235.873 172.812C235.985 172.628 236.041 172.428 236.041 172.212C236.041 171.928 235.957 171.696 235.789 171.516C235.625 171.332 235.405 171.22 235.129 171.18C235.037 171.16 234.941 171.148 234.841 171.144C234.741 171.14 234.651 171.138 234.571 171.138H232.609V173.25ZM232.609 170.382H234.421C234.525 170.382 234.641 170.376 234.769 170.364C234.901 170.348 235.015 170.322 235.111 170.286C235.319 170.214 235.471 170.09 235.567 169.914C235.667 169.738 235.717 169.546 235.717 169.338C235.717 169.11 235.663 168.91 235.555 168.738C235.451 168.566 235.293 168.446 235.081 168.378C234.937 168.326 234.781 168.296 234.613 168.288C234.449 168.28 234.345 168.276 234.301 168.276H232.609V170.382ZM238.143 174L238.149 167.52H239.037V170.64L241.929 167.52H243.105L240.069 170.76L243.501 174H242.217L239.037 170.88V174H238.143ZM245.956 174.18C245.468 174.18 245.058 174.092 244.726 173.916C244.398 173.74 244.152 173.506 243.988 173.214C243.824 172.922 243.742 172.604 243.742 172.26C243.742 171.908 243.812 171.608 243.952 171.36C244.096 171.108 244.29 170.902 244.534 170.742C244.782 170.582 245.068 170.46 245.392 170.376C245.72 170.296 246.082 170.226 246.478 170.166C246.878 170.102 247.268 170.048 247.648 170.004C248.032 169.956 248.368 169.91 248.656 169.866L248.344 170.058C248.356 169.418 248.232 168.944 247.972 168.636C247.712 168.328 247.26 168.174 246.616 168.174C246.172 168.174 245.796 168.274 245.488 168.474C245.184 168.674 244.97 168.99 244.846 169.422L243.988 169.17C244.136 168.59 244.434 168.14 244.882 167.82C245.33 167.5 245.912 167.34 246.628 167.34C247.22 167.34 247.722 167.452 248.134 167.676C248.55 167.896 248.844 168.216 249.016 168.636C249.096 168.824 249.148 169.034 249.172 169.266C249.196 169.498 249.208 169.734 249.208 169.974V174H248.422V172.374L248.65 172.47C248.43 173.026 248.088 173.45 247.624 173.742C247.16 174.034 246.604 174.18 245.956 174.18ZM246.058 173.418C246.47 173.418 246.83 173.344 247.138 173.196C247.446 173.048 247.694 172.846 247.882 172.59C248.07 172.33 248.192 172.038 248.248 171.714C248.296 171.506 248.322 171.278 248.326 171.03C248.33 170.778 248.332 170.59 248.332 170.466L248.668 170.64C248.368 170.68 248.042 170.72 247.69 170.76C247.342 170.8 246.998 170.846 246.658 170.898C246.322 170.95 246.018 171.012 245.746 171.084C245.562 171.136 245.384 171.21 245.212 171.306C245.04 171.398 244.898 171.522 244.786 171.678C244.678 171.834 244.624 172.028 244.624 172.26C244.624 172.448 244.67 172.63 244.762 172.806C244.858 172.982 245.01 173.128 245.218 173.244C245.43 173.36 245.71 173.418 246.058 173.418ZM252.692 175.44V173.244C253.06 173.244 253.324 173.126 253.484 172.89C253.644 172.65 253.774 172.268 253.874 171.744C253.942 171.404 253.998 171.038 254.042 170.646C254.086 170.254 254.124 169.806 254.156 169.302C254.188 168.794 254.218 168.2 254.246 167.52H258.53V173.244H259.154V175.44H258.302V174H253.538V175.44H252.692ZM254.186 173.244H257.654V168.276H255.062C255.05 168.58 255.032 168.902 255.008 169.242C254.988 169.582 254.962 169.922 254.93 170.262C254.902 170.602 254.868 170.922 254.828 171.222C254.792 171.518 254.748 171.778 254.696 172.002C254.636 172.29 254.57 172.536 254.498 172.74C254.43 172.944 254.326 173.112 254.186 173.244ZM263.062 174.18C262.418 174.18 261.868 174.034 261.412 173.742C260.956 173.45 260.606 173.046 260.362 172.53C260.118 172.014 259.996 171.422 259.996 170.754C259.996 170.074 260.12 169.478 260.368 168.966C260.616 168.454 260.968 168.056 261.424 167.772C261.884 167.484 262.43 167.34 263.062 167.34C263.71 167.34 264.262 167.486 264.718 167.778C265.178 168.066 265.528 168.468 265.768 168.984C266.012 169.496 266.134 170.086 266.134 170.754C266.134 171.434 266.012 172.032 265.768 172.548C265.524 173.06 265.172 173.46 264.712 173.748C264.252 174.036 263.702 174.18 263.062 174.18ZM263.062 173.334C263.782 173.334 264.318 173.096 264.67 172.62C265.022 172.14 265.198 171.518 265.198 170.754C265.198 169.97 265.02 169.346 264.664 168.882C264.312 168.418 263.778 168.186 263.062 168.186C262.578 168.186 262.178 168.296 261.862 168.516C261.55 168.732 261.316 169.034 261.16 169.422C261.008 169.806 260.932 170.25 260.932 170.754C260.932 171.534 261.112 172.16 261.472 172.632C261.832 173.1 262.362 173.334 263.062 173.334ZM271.366 174V166.344L269.74 167.322V166.332L271.366 165.36H272.26V174H271.366ZM277.085 174.18C276.637 174.18 276.223 174.088 275.843 173.904C275.463 173.72 275.139 173.466 274.871 173.142C274.603 172.818 274.411 172.446 274.295 172.026L275.141 171.798C275.217 172.11 275.355 172.38 275.555 172.608C275.755 172.832 275.989 173.006 276.257 173.13C276.529 173.254 276.813 173.316 277.109 173.316C277.493 173.316 277.837 173.224 278.141 173.04C278.449 172.852 278.693 172.604 278.873 172.296C279.053 171.988 279.143 171.65 279.143 171.282C279.143 170.902 279.049 170.56 278.861 170.256C278.673 169.948 278.425 169.704 278.117 169.524C277.809 169.344 277.473 169.254 277.109 169.254C276.701 169.254 276.349 169.344 276.053 169.524C275.757 169.7 275.521 169.922 275.345 170.19L274.541 169.854L274.805 165.36H279.419V166.206H275.195L275.633 165.792L275.399 169.626L275.177 169.332C275.425 169.048 275.725 168.826 276.077 168.666C276.429 168.506 276.799 168.426 277.187 168.426C277.719 168.426 278.199 168.554 278.627 168.81C279.055 169.062 279.395 169.404 279.647 169.836C279.899 170.268 280.025 170.75 280.025 171.282C280.025 171.81 279.891 172.294 279.623 172.734C279.355 173.17 278.999 173.52 278.555 173.784C278.111 174.048 277.621 174.18 277.085 174.18ZM286.683 174.18C286.151 174.18 285.671 174.056 285.243 173.808C284.819 173.56 284.483 173.224 284.235 172.8C283.987 172.372 283.863 171.892 283.863 171.36V168C283.863 167.468 283.987 166.99 284.235 166.566C284.483 166.138 284.819 165.8 285.243 165.552C285.671 165.304 286.151 165.18 286.683 165.18C287.215 165.18 287.693 165.304 288.117 165.552C288.545 165.8 288.883 166.138 289.131 166.566C289.379 166.99 289.503 167.468 289.503 168V171.36C289.503 171.892 289.379 172.372 289.131 172.8C288.883 173.224 288.545 173.56 288.117 173.808C287.693 174.056 287.215 174.18 286.683 174.18ZM286.683 173.328C287.039 173.328 287.363 173.242 287.655 173.07C287.947 172.894 288.179 172.66 288.351 172.368C288.523 172.076 288.609 171.754 288.609 171.402V167.958C288.609 167.602 288.523 167.278 288.351 166.986C288.179 166.694 287.947 166.462 287.655 166.29C287.363 166.114 287.039 166.026 286.683 166.026C286.327 166.026 286.003 166.114 285.711 166.29C285.419 166.462 285.187 166.694 285.015 166.986C284.843 167.278 284.757 167.602 284.757 167.958V171.402C284.757 171.754 284.843 172.076 285.015 172.368C285.187 172.66 285.419 172.894 285.711 173.07C286.003 173.242 286.327 173.328 286.683 173.328ZM294.008 174.18C293.476 174.18 292.996 174.056 292.568 173.808C292.144 173.56 291.808 173.224 291.56 172.8C291.312 172.372 291.188 171.892 291.188 171.36V168C291.188 167.468 291.312 166.99 291.56 166.566C291.808 166.138 292.144 165.8 292.568 165.552C292.996 165.304 293.476 165.18 294.008 165.18C294.54 165.18 295.018 165.304 295.442 165.552C295.87 165.8 296.208 166.138 296.456 166.566C296.704 166.99 296.828 167.468 296.828 168V171.36C296.828 171.892 296.704 172.372 296.456 172.8C296.208 173.224 295.87 173.56 295.442 173.808C295.018 174.056 294.54 174.18 294.008 174.18ZM294.008 173.328C294.364 173.328 294.688 173.242 294.98 173.07C295.272 172.894 295.504 172.66 295.676 172.368C295.848 172.076 295.934 171.754 295.934 171.402V167.958C295.934 167.602 295.848 167.278 295.676 166.986C295.504 166.694 295.272 166.462 294.98 166.29C294.688 166.114 294.364 166.026 294.008 166.026C293.652 166.026 293.328 166.114 293.036 166.29C292.744 166.462 292.512 166.694 292.34 166.986C292.168 167.278 292.082 167.602 292.082 167.958V171.402C292.082 171.754 292.168 172.076 292.34 172.368C292.512 172.66 292.744 172.894 293.036 173.07C293.328 173.242 293.652 173.328 294.008 173.328ZM301.332 174.18C300.8 174.18 300.32 174.056 299.892 173.808C299.468 173.56 299.132 173.224 298.884 172.8C298.636 172.372 298.512 171.892 298.512 171.36V168C298.512 167.468 298.636 166.99 298.884 166.566C299.132 166.138 299.468 165.8 299.892 165.552C300.32 165.304 300.8 165.18 301.332 165.18C301.864 165.18 302.342 165.304 302.766 165.552C303.194 165.8 303.532 166.138 303.78 166.566C304.028 166.99 304.152 167.468 304.152 168V171.36C304.152 171.892 304.028 172.372 303.78 172.8C303.532 173.224 303.194 173.56 302.766 173.808C302.342 174.056 301.864 174.18 301.332 174.18ZM301.332 173.328C301.688 173.328 302.012 173.242 302.304 173.07C302.596 172.894 302.828 172.66 303 172.368C303.172 172.076 303.258 171.754 303.258 171.402V167.958C303.258 167.602 303.172 167.278 303 166.986C302.828 166.694 302.596 166.462 302.304 166.29C302.012 166.114 301.688 166.026 301.332 166.026C300.976 166.026 300.652 166.114 300.36 166.29C300.068 166.462 299.836 166.694 299.664 166.986C299.492 167.278 299.406 167.602 299.406 167.958V171.402C299.406 171.754 299.492 172.076 299.664 172.368C299.836 172.66 300.068 172.894 300.36 173.07C300.652 173.242 300.976 173.328 301.332 173.328ZM308.238 170.67V169.872H312.348C312.416 169.872 312.498 169.868 312.594 169.86C312.69 169.852 312.788 169.838 312.888 169.818C313.32 169.722 313.642 169.51 313.854 169.182C314.07 168.85 314.178 168.474 314.178 168.054C314.178 167.782 314.132 167.52 314.04 167.268C313.948 167.016 313.806 166.8 313.614 166.62C313.422 166.44 313.18 166.318 312.888 166.254C312.792 166.23 312.694 166.216 312.594 166.212C312.494 166.208 312.412 166.206 312.348 166.206H309.84V165.36H312.372C312.44 165.36 312.526 165.364 312.63 165.372C312.738 165.376 312.856 165.388 312.984 165.408C313.432 165.48 313.812 165.638 314.124 165.882C314.44 166.122 314.678 166.428 314.838 166.8C315.002 167.172 315.084 167.584 315.084 168.036C315.084 168.708 314.904 169.278 314.544 169.746C314.188 170.214 313.668 170.506 312.984 170.622C312.856 170.638 312.738 170.65 312.63 170.658C312.526 170.666 312.44 170.67 312.372 170.67H308.238ZM308.238 172.536V171.78H312.876V172.536H308.238ZM309.156 174V165.36H310.038V174H309.156ZM316.457 174V172.974H317.483V174H316.457ZM67.84 190V181.36H68.722V185.254H73.498V181.36H74.374V190H73.498V186.1H68.722V190H67.84ZM76.9788 192.88L78.2328 189.478L78.2508 190.486L75.4128 183.52H76.3488L78.6768 189.346H78.2928L80.4408 183.52H81.3408L77.8608 192.88H76.9788ZM81.663 190L84.399 186.76L81.777 183.52H82.773L85.329 186.718V183.52H86.145V186.718L88.701 183.52H89.691L87.069 186.76L89.805 190H88.779L86.145 186.802V190H85.329V186.802L82.689 190H81.663ZM90.7559 190V183.52H91.6379V186.334H95.2919V183.52H96.1739V190H95.2919V187.18H91.6379V190H90.7559ZM97.8577 190L97.8457 183.52H98.7337V185.962H99.8617C100.05 185.962 100.234 185.966 100.414 185.974C100.594 185.982 100.756 185.998 100.9 186.022C101.22 186.086 101.504 186.194 101.752 186.346C102 186.498 102.196 186.708 102.34 186.976C102.484 187.24 102.556 187.574 102.556 187.978C102.556 188.534 102.412 188.972 102.124 189.292C101.836 189.612 101.474 189.82 101.038 189.916C100.874 189.952 100.696 189.976 100.504 189.988C100.312 189.996 100.124 190 99.9397 190H97.8577ZM98.7337 189.244H99.9037C100.036 189.244 100.186 189.24 100.354 189.232C100.522 189.224 100.67 189.202 100.798 189.166C101.014 189.106 101.208 188.986 101.38 188.806C101.556 188.622 101.644 188.346 101.644 187.978C101.644 187.614 101.56 187.34 101.392 187.156C101.224 186.968 101 186.844 100.72 186.784C100.592 186.756 100.456 186.738 100.312 186.73C100.172 186.722 100.036 186.718 99.9037 186.718H98.7337V189.244ZM103.33 190V183.52H104.212V190H103.33ZM108.287 190L108.293 183.52H109.181V186.64L112.073 183.52H113.249L110.213 186.76L113.645 190H112.361L109.181 186.88V190H108.287ZM117.156 190.18C116.56 190.18 116.056 190.03 115.644 189.73C115.232 189.426 114.92 189.016 114.708 188.5C114.496 187.98 114.39 187.398 114.39 186.754C114.39 186.098 114.496 185.514 114.708 185.002C114.924 184.486 115.24 184.08 115.656 183.784C116.072 183.488 116.584 183.34 117.192 183.34C117.784 183.34 118.292 183.49 118.716 183.79C119.14 184.09 119.464 184.498 119.688 185.014C119.916 185.53 120.03 186.11 120.03 186.754C120.03 187.402 119.916 187.984 119.688 188.5C119.46 189.016 119.132 189.426 118.704 189.73C118.276 190.03 117.76 190.18 117.156 190.18ZM114.24 192.88V183.52H115.032V188.398H115.128V192.88H114.24ZM117.066 189.358C117.518 189.358 117.894 189.244 118.194 189.016C118.494 188.788 118.718 188.478 118.866 188.086C119.018 187.69 119.094 187.246 119.094 186.754C119.094 186.266 119.02 185.826 118.872 185.434C118.724 185.042 118.498 184.732 118.194 184.504C117.894 184.276 117.512 184.162 117.048 184.162C116.596 184.162 116.22 184.272 115.92 184.492C115.624 184.712 115.402 185.018 115.254 185.41C115.106 185.798 115.032 186.246 115.032 186.754C115.032 187.254 115.106 187.702 115.254 188.098C115.402 188.49 115.626 188.798 115.926 189.022C116.226 189.246 116.606 189.358 117.066 189.358ZM124.09 190.18C123.458 190.18 122.91 190.04 122.446 189.76C121.986 189.48 121.628 189.086 121.372 188.578C121.116 188.07 120.988 187.474 120.988 186.79C120.988 186.082 121.114 185.47 121.366 184.954C121.618 184.438 121.972 184.04 122.428 183.76C122.888 183.48 123.43 183.34 124.054 183.34C124.694 183.34 125.24 183.488 125.692 183.784C126.144 184.076 126.486 184.496 126.718 185.044C126.95 185.592 127.056 186.246 127.036 187.006H126.136V186.694C126.12 185.854 125.938 185.22 125.59 184.792C125.246 184.364 124.742 184.15 124.078 184.15C123.382 184.15 122.848 184.376 122.476 184.828C122.108 185.28 121.924 185.924 121.924 186.76C121.924 187.576 122.108 188.21 122.476 188.662C122.848 189.11 123.374 189.334 124.054 189.334C124.518 189.334 124.922 189.228 125.266 189.016C125.614 188.8 125.888 188.49 126.088 188.086L126.91 188.404C126.654 188.968 126.276 189.406 125.776 189.718C125.28 190.026 124.718 190.18 124.09 190.18ZM121.612 187.006V186.268H126.562V187.006H121.612ZM130.104 190.18C129.616 190.18 129.206 190.092 128.874 189.916C128.546 189.74 128.3 189.506 128.136 189.214C127.972 188.922 127.89 188.604 127.89 188.26C127.89 187.908 127.96 187.608 128.1 187.36C128.244 187.108 128.438 186.902 128.682 186.742C128.93 186.582 129.216 186.46 129.54 186.376C129.868 186.296 130.23 186.226 130.626 186.166C131.026 186.102 131.416 186.048 131.796 186.004C132.18 185.956 132.516 185.91 132.804 185.866L132.492 186.058C132.504 185.418 132.38 184.944 132.12 184.636C131.86 184.328 131.408 184.174 130.764 184.174C130.32 184.174 129.944 184.274 129.636 184.474C129.332 184.674 129.118 184.99 128.994 185.422L128.136 185.17C128.284 184.59 128.582 184.14 129.03 183.82C129.478 183.5 130.06 183.34 130.776 183.34C131.368 183.34 131.87 183.452 132.282 183.676C132.698 183.896 132.992 184.216 133.164 184.636C133.244 184.824 133.296 185.034 133.32 185.266C133.344 185.498 133.356 185.734 133.356 185.974V190H132.57V188.374L132.798 188.47C132.578 189.026 132.236 189.45 131.772 189.742C131.308 190.034 130.752 190.18 130.104 190.18ZM130.206 189.418C130.618 189.418 130.978 189.344 131.286 189.196C131.594 189.048 131.842 188.846 132.03 188.59C132.218 188.33 132.34 188.038 132.396 187.714C132.444 187.506 132.47 187.278 132.474 187.03C132.478 186.778 132.48 186.59 132.48 186.466L132.816 186.64C132.516 186.68 132.19 186.72 131.838 186.76C131.49 186.8 131.146 186.846 130.806 186.898C130.47 186.95 130.166 187.012 129.894 187.084C129.71 187.136 129.532 187.21 129.36 187.306C129.188 187.398 129.046 187.522 128.934 187.678C128.826 187.834 128.772 188.028 128.772 188.26C128.772 188.448 128.818 188.63 128.91 188.806C129.006 188.982 129.158 189.128 129.366 189.244C129.578 189.36 129.858 189.418 130.206 189.418ZM136.676 190V184.336H134.378V183.52H139.856V184.336H137.558V190H136.676ZM146.148 183.52V190H145.29V184.954L141.738 190H140.994V183.52H141.852V188.524L145.41 183.52H146.148ZM147.826 190V183.52H150.496C150.632 183.52 150.796 183.528 150.988 183.544C151.184 183.56 151.366 183.59 151.534 183.634C151.898 183.73 152.19 183.926 152.41 184.222C152.634 184.518 152.746 184.874 152.746 185.29C152.746 185.522 152.71 185.73 152.638 185.914C152.57 186.094 152.472 186.25 152.344 186.382C152.284 186.45 152.218 186.51 152.146 186.562C152.074 186.61 152.004 186.65 151.936 186.682C152.064 186.706 152.202 186.762 152.35 186.85C152.582 186.986 152.758 187.17 152.878 187.402C152.998 187.63 153.058 187.908 153.058 188.236C153.058 188.68 152.952 189.042 152.74 189.322C152.528 189.602 152.244 189.794 151.888 189.898C151.728 189.942 151.554 189.97 151.366 189.982C151.182 189.994 151.008 190 150.844 190H147.826ZM148.714 189.25H150.802C150.886 189.25 150.992 189.244 151.12 189.232C151.248 189.216 151.362 189.196 151.462 189.172C151.698 189.112 151.87 188.992 151.978 188.812C152.09 188.628 152.146 188.428 152.146 188.212C152.146 187.928 152.062 187.696 151.894 187.516C151.73 187.332 151.51 187.22 151.234 187.18C151.142 187.16 151.046 187.148 150.946 187.144C150.846 187.14 150.756 187.138 150.676 187.138H148.714V189.25ZM148.714 186.382H150.526C150.63 186.382 150.746 186.376 150.874 186.364C151.006 186.348 151.12 186.322 151.216 186.286C151.424 186.214 151.576 186.09 151.672 185.914C151.772 185.738 151.822 185.546 151.822 185.338C151.822 185.11 151.768 184.91 151.66 184.738C151.556 184.566 151.398 184.446 151.186 184.378C151.042 184.326 150.886 184.296 150.718 184.288C150.554 184.28 150.45 184.276 150.406 184.276H148.714V186.382ZM154.26 190L154.248 183.52H155.136V185.962H156.264C156.452 185.962 156.636 185.966 156.816 185.974C156.996 185.982 157.158 185.998 157.302 186.022C157.622 186.086 157.906 186.194 158.154 186.346C158.402 186.498 158.598 186.708 158.742 186.976C158.886 187.24 158.958 187.574 158.958 187.978C158.958 188.534 158.814 188.972 158.526 189.292C158.238 189.612 157.876 189.82 157.44 189.916C157.276 189.952 157.098 189.976 156.906 189.988C156.714 189.996 156.526 190 156.342 190H154.26ZM155.136 189.244H156.306C156.438 189.244 156.588 189.24 156.756 189.232C156.924 189.224 157.072 189.202 157.2 189.166C157.416 189.106 157.61 188.986 157.782 188.806C157.958 188.622 158.046 188.346 158.046 187.978C158.046 187.614 157.962 187.34 157.794 187.156C157.626 186.968 157.402 186.844 157.122 186.784C156.994 186.756 156.858 186.738 156.714 186.73C156.574 186.722 156.438 186.718 156.306 186.718H155.136V189.244ZM159.732 190V183.52H160.614V190H159.732ZM163.985 187.642C163.985 187.33 163.999 187.056 164.027 186.82C164.059 186.58 164.139 186.34 164.267 186.1C164.387 185.872 164.535 185.684 164.711 185.536C164.887 185.384 165.071 185.242 165.263 185.11C165.455 184.974 165.637 184.814 165.809 184.63C165.965 184.45 166.069 184.268 166.121 184.084C166.173 183.9 166.199 183.706 166.199 183.502C166.199 183.298 166.173 183.116 166.121 182.956C166.073 182.796 165.997 182.658 165.893 182.542C165.733 182.346 165.537 182.212 165.305 182.14C165.073 182.068 164.831 182.032 164.579 182.032C164.331 182.032 164.099 182.068 163.883 182.14C163.671 182.208 163.495 182.314 163.355 182.458C163.219 182.586 163.119 182.74 163.055 182.92C162.995 183.1 162.965 183.29 162.965 183.49H162.053C162.069 183.174 162.137 182.866 162.257 182.566C162.381 182.262 162.561 182.008 162.797 181.804C163.033 181.588 163.307 181.432 163.619 181.336C163.935 181.236 164.253 181.186 164.573 181.186C164.965 181.186 165.337 181.246 165.689 181.366C166.041 181.482 166.337 181.678 166.577 181.954C166.769 182.158 166.909 182.392 166.997 182.656C167.089 182.916 167.135 183.194 167.135 183.49C167.135 183.822 167.073 184.134 166.949 184.426C166.825 184.718 166.651 184.978 166.427 185.206C166.291 185.354 166.137 185.492 165.965 185.62C165.793 185.744 165.627 185.874 165.467 186.01C165.311 186.142 165.191 186.286 165.107 186.442C165.003 186.634 164.945 186.816 164.933 186.988C164.925 187.16 164.921 187.378 164.921 187.642H163.985ZM163.991 190V188.824H164.921V190H163.991Z" fill="#2C2C2E"/>
<rect x="67" y="203" width="252" height="1" fill="#F2F2F7"/>
<path d="M329.352 201V193.146L327.72 194.124V193.332L329.352 192.36H330.048V201H329.352ZM333.84 201V193.146L332.208 194.124V193.332L333.84 192.36H334.536V201H333.84ZM337.297 199.98V199.11H338.167V199.98H337.297ZM337.297 196.41V195.54H338.167V196.41H337.297ZM344.103 201V199.248H339.987V198.57L342.921 192.36H343.695L340.761 198.57H344.103V195.96H344.799V198.57H345.789V199.248H344.799V201H344.103ZM349.773 201.18C349.321 201.18 348.903 201.088 348.519 200.904C348.139 200.72 347.815 200.466 347.547 200.142C347.283 199.814 347.095 199.442 346.983 199.026L347.643 198.846C347.731 199.182 347.883 199.474 348.099 199.722C348.315 199.966 348.569 200.156 348.861 200.292C349.153 200.424 349.459 200.49 349.779 200.49C350.199 200.49 350.575 200.39 350.907 200.19C351.239 199.986 351.501 199.718 351.693 199.386C351.889 199.05 351.987 198.684 351.987 198.288C351.987 197.872 351.885 197.498 351.681 197.166C351.477 196.834 351.207 196.57 350.871 196.374C350.539 196.178 350.175 196.08 349.779 196.08C349.351 196.08 348.975 196.18 348.651 196.38C348.331 196.576 348.073 196.832 347.877 197.148L347.217 196.824L347.481 192.36H352.065V193.032H347.739L348.147 192.654L347.895 196.71L347.691 196.422C347.943 196.114 348.255 195.87 348.627 195.69C348.999 195.51 349.397 195.42 349.821 195.42C350.349 195.42 350.829 195.548 351.261 195.804C351.693 196.06 352.037 196.406 352.293 196.842C352.553 197.274 352.683 197.756 352.683 198.288C352.683 198.812 352.551 199.294 352.287 199.734C352.023 200.17 351.669 200.52 351.225 200.784C350.785 201.048 350.301 201.18 349.773 201.18Z" fill="#666668"/>
</g>
<defs>
<clipPath id="clip0_3152_7249">
<rect width="408" height="220" rx="12" fill="white"/>
</clipPath>
<pattern id="pattern0_3152_7249" patternUnits="userSpaceOnUse" viewBox="7229.33 790 73.3289 200" width="17.972759172028184%" height="90.909090909090907%" x="174.668" y="70" patternContentUnits="objectBoundingBox">
<g id="pattern0_3152_7249_inner">
<path d="M7214.66 810.885C7214.66 818.648 7213.15 826.335 7210.2 833.507C7207.25 840.679 7202.93 847.196 7197.48 852.686C7192.03 858.175 7185.57 862.529 7178.45 865.5C7171.33 868.471 7163.7 870 7156 870V849.828C7161.07 849.828 7166.1 848.82 7170.79 846.863C7175.48 844.906 7179.74 842.038 7183.33 838.422C7186.91 834.806 7189.76 830.513 7191.7 825.788C7193.65 821.063 7194.65 815.999 7194.65 810.885H7214.66ZM7194.62 810.885H7173.89V790H7194.62V810.885Z" fill="#3253ED" fill-opacity="0.15"/>
</g>
<use xlink:href="#pattern0_3152_7249_inner" transform="translate(73.3289 0)"/>
<use xlink:href="#pattern0_3152_7249_inner" transform="translate(36.6644 100)"/>
<use xlink:href="#pattern0_3152_7249_inner" transform="translate(109.993 100)"/>
</pattern></defs>
</svg>
