<svg width="408" height="220" viewBox="0 0 408 220" fill="none" xmlns="http://www.w3.org/2000/svg">
<g clip-path="url(#clip0_3152_7335)">
<rect width="408" height="220" rx="8" fill="#F4F6FE"/>
<rect x="174" y="80" width="60" height="60" rx="8" fill="white"/>
<rect width="32" height="32" transform="translate(188 94)" fill="white"/>
<path d="M209.587 96.6667H198.413C193.56 96.6667 190.667 99.5601 190.667 104.413V115.573C190.667 120.44 193.56 123.333 198.413 123.333H209.573C214.427 123.333 217.32 120.44 217.32 115.587V104.413C217.333 99.5601 214.44 96.6667 209.587 96.6667ZM210.507 109.373C210.507 109.893 210.093 110.307 209.573 110.307C209.053 110.307 208.64 109.893 208.64 109.373V109.133L205.013 112.76C204.813 112.96 204.547 113.053 204.267 113.027C203.987 113 203.733 112.853 203.587 112.613L202.227 110.587L199.053 113.76C198.867 113.947 198.64 114.027 198.4 114.027C198.16 114.027 197.92 113.933 197.747 113.76C197.387 113.4 197.387 112.813 197.747 112.44L201.72 108.467C201.92 108.267 202.187 108.173 202.467 108.2C202.747 108.227 203 108.373 203.147 108.613L204.507 110.64L207.32 107.827H207.08C206.56 107.827 206.147 107.413 206.147 106.893C206.147 106.373 206.56 105.96 207.08 105.96H209.56C209.68 105.96 209.8 105.987 209.92 106.027C210.147 106.12 210.333 106.307 210.427 106.533C210.48 106.653 210.493 106.773 210.493 106.893V109.373H210.507Z" fill="#FF5A00"/>
<rect x="244" y="150" width="60" height="60" rx="8" fill="white"/>
<rect width="32" height="32" transform="translate(258 164)" fill="white"/>
<path d="M263.36 171.96C261.667 174.2 260.667 176.987 260.667 180C260.667 187.36 266.64 193.333 274 193.333C281.36 193.333 287.333 187.36 287.333 180C287.333 172.64 281.36 166.667 274 166.667" stroke="#FF5A00" stroke-width="1.5" stroke-linecap="round" stroke-linejoin="round"/>
<path d="M264.667 180C264.667 185.16 268.84 189.333 274 189.333C279.16 189.333 283.333 185.16 283.333 180C283.333 174.84 279.16 170.667 274 170.667" stroke="#FF5A00" stroke-width="1.5" stroke-linecap="round" stroke-linejoin="round"/>
<path d="M274 185.333C276.947 185.333 279.333 182.947 279.333 180C279.333 177.053 276.947 174.667 274 174.667" stroke="#FF5A00" stroke-width="1.5" stroke-linecap="round" stroke-linejoin="round"/>
<rect x="104" y="150" width="60" height="60" rx="8" fill="white"/>
<rect width="32" height="32" transform="translate(118 164)" fill="white"/>
<path d="M120.666 166.667V189.333C120.666 191.547 122.453 193.333 124.666 193.333H147.333" stroke="#3253ED" stroke-width="1.5" stroke-miterlimit="10" stroke-linecap="round" stroke-linejoin="round"/>
<path d="M124.666 186.667L130.786 179.52C131.8 178.347 133.6 178.267 134.693 179.373L135.96 180.64C137.053 181.733 138.853 181.667 139.866 180.493L146 173.333" stroke="#3253ED" stroke-width="1.5" stroke-miterlimit="10" stroke-linecap="round" stroke-linejoin="round"/>
<rect x="244" y="80" width="60" height="60" rx="8" fill="white"/>
<rect x="314" y="80" width="60" height="60" rx="8" fill="white"/>
<path d="M340 123.333H348C354.667 123.333 357.333 120.667 357.333 114V106C357.333 99.3334 354.667 96.6667 348 96.6667H340C333.333 96.6667 330.667 99.3334 330.667 106V114C330.667 120.667 333.333 123.333 340 123.333Z" stroke="#3253ED" stroke-width="1.5" stroke-linecap="round" stroke-linejoin="round"/>
<path d="M348.667 118.667C350.133 118.667 351.333 117.467 351.333 116V104C351.333 102.533 350.133 101.333 348.667 101.333C347.2 101.333 346 102.533 346 104V116C346 117.467 347.187 118.667 348.667 118.667Z" stroke="#3253ED" stroke-width="1.5" stroke-linecap="round" stroke-linejoin="round"/>
<path d="M339.333 118.667C340.8 118.667 342 117.467 342 116V111.333C342 109.867 340.8 108.667 339.333 108.667C337.867 108.667 336.667 109.867 336.667 111.333V116C336.667 117.467 337.853 118.667 339.333 118.667Z" stroke="#3253ED" stroke-width="1.5" stroke-linecap="round" stroke-linejoin="round"/>
<rect x="314" y="10" width="60" height="60" rx="8" fill="#E7E6FE"/>
<rect x="-36" y="80" width="60" height="60" rx="8" fill="white"/>
<rect x="-36" y="10" width="60" height="60" rx="8" fill="white"/>
<path d="M-11 48H-5C0 48 2 46 2 41V35C2 30 0 28 -5 28H-11C-16 28 -18 30 -18 35V41C-18 46 -16 48 -11 48Z" stroke="#FF5A00" stroke-width="1.5" stroke-linecap="round" stroke-linejoin="round"/>
<rect x="314" y="150" width="60" height="60" rx="8" fill="#E7E6FE"/>
<rect x="-36" y="150" width="60" height="60" rx="8" fill="white"/>
<path d="M-11 188H-5C0 188 2 186 2 181V175C2 170 0 168 -5 168H-11C-16 168 -18 170 -18 175V181C-18 186 -16 188 -11 188Z" stroke="#3253ED" stroke-width="1.5" stroke-linecap="round" stroke-linejoin="round"/>
<rect x="384" y="80" width="60" height="60" rx="8" fill="white"/>
<rect x="384" y="10" width="60" height="60" rx="8" fill="white"/>
<path d="M409 48H415C420 48 422 46 422 41V35C422 30 420 28 415 28H409C404 28 402 30 402 35V41C402 46 404 48 409 48Z" stroke="#3253ED" stroke-width="1.5" stroke-linecap="round" stroke-linejoin="round"/>
<path d="M407.33 40.49L409.71 37.4C410.05 36.96 410.68 36.88 411.12 37.22L412.95 38.66C413.39 39 414.02 38.92 414.36 38.49L416.67 35.51" stroke="#3253ED" stroke-width="1.5" stroke-linecap="round" stroke-linejoin="round"/>
<rect x="34" y="80" width="60" height="60" rx="8" fill="white"/>
<path d="M59 118H65C70 118 72 116 72 111V105C72 100 70 98 65 98H59C54 98 52 100 52 105V111C52 116 54 118 59 118Z" stroke="#FF5A00" stroke-width="1.5" stroke-linecap="round" stroke-linejoin="round"/>
<path d="M57.33 110.49L59.71 107.4C60.05 106.96 60.68 106.88 61.12 107.22L62.95 108.66C63.39 109 64.02 108.92 64.36 108.49L66.67 105.51" stroke="#FF5A00" stroke-width="1.5" stroke-linecap="round" stroke-linejoin="round"/>
<rect x="34" y="10" width="60" height="60" rx="8" fill="white"/>
<rect x="384" y="150" width="60" height="60" rx="8" fill="white"/>
<path d="M409 188H415C420 188 422 186 422 181V175C422 170 420 168 415 168H409C404 168 402 170 402 175V181C402 186 404 188 409 188Z" stroke="#FF5A00" stroke-width="1.5" stroke-linecap="round" stroke-linejoin="round"/>
<path d="M407.33 180.49L409.71 177.4C410.05 176.96 410.68 176.88 411.12 177.22L412.95 178.66C413.39 179 414.02 178.92 414.36 178.49L416.67 175.51" stroke="#FF5A00" stroke-width="1.5" stroke-linecap="round" stroke-linejoin="round"/>
<rect x="34" y="150" width="60" height="60" rx="8" fill="white"/>
<rect x="174" y="10" width="60" height="60" rx="8" fill="white"/>
<rect x="104" y="80" width="60" height="60" rx="8" fill="#E7E6FE"/>
<rect x="174" y="150" width="60" height="60" rx="8" fill="white"/>
<rect x="244" y="10" width="60" height="60" rx="8" fill="white"/>
<rect width="32" height="32" transform="translate(258 24)" fill="white"/>
<path d="M282.427 39.9999C285.893 39.9999 287.333 38.6666 286.053 34.2932C285.187 31.3466 282.653 28.8132 279.707 27.9466C275.333 26.6666 274 28.1066 274 31.5732V35.4132C274 38.6666 275.333 39.9999 278 39.9999H282.427Z" stroke="#3253ED" stroke-width="1.5" stroke-linecap="round" stroke-linejoin="round"/>
<path d="M284.667 43.6C283.427 49.7733 277.507 54.2533 270.773 53.16C265.72 52.3467 261.653 48.28 260.827 43.2267C259.747 36.52 264.2 30.6 270.347 29.3467" stroke="#3253ED" stroke-width="1.5" stroke-linecap="round" stroke-linejoin="round"/>
<rect x="104" y="10" width="60" height="60" rx="8" fill="white"/>
<rect width="32" height="32" transform="translate(118 24)" fill="white"/>
<path d="M120.667 53.3333H147.333" stroke="#FF5A00" stroke-width="1.5" stroke-miterlimit="10" stroke-linecap="round" stroke-linejoin="round"/>
<path d="M131 29.3334V53.3334H137V29.3334C137 27.8667 136.4 26.6667 134.6 26.6667H133.4C131.6 26.6667 131 27.8667 131 29.3334Z" stroke="#FF5A00" stroke-width="1.5" stroke-linecap="round" stroke-linejoin="round"/>
<path d="M122 37.3334V53.3334H127.333V37.3334C127.333 35.8667 126.8 34.6667 125.2 34.6667H124.133C122.533 34.6667 122 35.8667 122 37.3334Z" stroke="#FF5A00" stroke-width="1.5" stroke-linecap="round" stroke-linejoin="round"/>
<path d="M140.667 43.9999V53.3333H146V43.9999C146 42.5333 145.467 41.3333 143.867 41.3333H142.8C141.2 41.3333 140.667 42.5333 140.667 43.9999Z" stroke="#FF5A00" stroke-width="1.5" stroke-linecap="round" stroke-linejoin="round"/>
<g filter="url(#filter0_f_3152_7335)">
<path d="M217 -60C329.666 -60 421 -35.3757 421 -5C451.376 -5 476 44.2487 476 105C476 165.751 451.376 215 421 215C419.817 215 418.644 214.924 417.479 214.777C419.789 218.09 421 221.506 421 225C421 255.376 329.666 280 217 280C104.334 280 13 255.376 13 225C13 221.506 14.2097 218.09 16.5195 214.777C15.3558 214.924 14.1823 215 13 215C-17.3757 215 -42 165.751 -42 105C-42 44.2487 -17.3757 -5 13 -5C13 -35.3757 104.334 -60 217 -60ZM51.9453 27.3291C61.8659 47.2264 68 74.6805 68 105C68 142.723 58.5037 176.01 44.0332 195.826C80.1036 180.314 144.084 170 217 170C289.915 170 353.895 180.315 389.966 195.826C375.496 176.01 366 142.723 366 105C366 74.6807 372.133 47.2264 382.054 27.3291C344.966 41.0687 284.852 50 217 50C149.148 50 89.0329 41.0689 51.9453 27.3291Z" fill="white"/>
</g>
</g>
<defs>
<filter id="filter0_f_3152_7335" x="-142" y="-160" width="718" height="540" filterUnits="userSpaceOnUse" color-interpolation-filters="sRGB">
<feFlood flood-opacity="0" result="BackgroundImageFix"/>
<feBlend mode="normal" in="SourceGraphic" in2="BackgroundImageFix" result="shape"/>
<feGaussianBlur stdDeviation="50" result="effect1_foregroundBlur_3152_7335"/>
</filter>
<clipPath id="clip0_3152_7335">
<rect width="408" height="220" rx="12" fill="white"/>
</clipPath>
</defs>
</svg>
