<svg width="408" height="220" viewBox="0 0 408 220" fill="none" xmlns="http://www.w3.org/2000/svg">
<g clip-path="url(#clip0_3152_7538)">
<rect width="408" height="220" rx="8" fill="#F7F8FE"/>
<rect x="-0.917847" y="81.5081" width="162" height="41" rx="20.5" transform="rotate(12.9263 -0.917847 81.5081)" fill="#FF5A00"/>
<path d="M16.4545 115.249L16.8706 113.436C17.2749 113.57 17.6225 113.63 17.9133 113.614C18.2041 113.599 18.4648 113.482 18.6954 113.264C18.9338 113.048 19.1756 112.71 19.4209 112.249C19.668 111.78 19.9452 111.163 20.2525 110.396C20.631 109.498 20.984 108.586 21.3114 107.659C21.6407 106.725 21.9544 105.788 22.2525 104.847C22.5602 103.9 22.8505 102.957 23.1234 102.018C23.3981 101.071 23.6605 100.142 23.9107 99.2313L34.7528 101.72L30.8873 118.562L28.8054 118.084L32.2172 103.219L25.4336 101.662C25.224 102.36 24.9988 103.109 24.7581 103.907C24.527 104.7 24.2722 105.524 23.9938 106.379C23.7154 107.234 23.4152 108.114 23.0931 109.016C22.7709 109.919 22.4179 110.831 22.0341 111.753C21.7244 112.494 21.4026 113.163 21.0687 113.76C20.7426 114.358 20.3666 114.834 19.9407 115.188C19.5226 115.543 19.0305 115.738 18.4645 115.772C17.9063 115.808 17.2363 115.634 16.4545 115.249ZM37.673 120.489C36.7295 120.272 35.9774 119.919 35.4168 119.429C34.8658 118.933 34.4918 118.363 34.295 117.719C34.1059 117.076 34.0892 116.416 34.2449 115.737C34.3971 115.075 34.6533 114.53 35.0138 114.104C35.3839 113.672 35.8356 113.349 36.369 113.135C36.9042 112.913 37.513 112.782 38.1953 112.741C38.8333 112.715 39.536 112.729 40.3036 112.782C41.0808 112.829 41.8631 112.889 42.6505 112.963C43.4379 113.037 44.1737 113.104 44.8579 113.162L44.0101 113.423C44.2912 112.306 44.2556 111.423 43.9035 110.776C43.5591 110.131 42.81 109.676 41.656 109.411C40.8918 109.235 40.181 109.257 39.5235 109.475C38.8755 109.688 38.3451 110.157 37.9322 110.883L36.0925 109.833C36.6508 108.796 37.439 108.061 38.4572 107.63C39.4755 107.199 40.6981 107.147 42.125 107.475C43.2712 107.738 44.2062 108.17 44.9301 108.771C45.6635 109.366 46.1147 110.118 46.2837 111.027C46.3736 111.458 46.3891 111.909 46.3303 112.38C46.2733 112.843 46.1875 113.324 46.073 113.823L44.2798 121.636L42.4319 121.211L43.1271 118.182L43.4954 118.562C42.7854 119.475 41.9415 120.093 40.9639 120.419C39.9941 120.746 38.8971 120.77 37.673 120.489ZM38.3887 118.818C39.1373 118.99 39.8149 119.006 40.4215 118.866C41.0378 118.72 41.5636 118.468 41.9991 118.108C42.4364 117.741 42.7657 117.307 42.987 116.808C43.1934 116.445 43.3551 116.027 43.4721 115.553C43.5986 115.073 43.6914 114.704 43.7505 114.447L44.4031 114.929C43.7033 114.867 43.0161 114.804 42.3414 114.739C41.6667 114.675 41.0254 114.626 40.4173 114.593C39.8111 114.552 39.2588 114.545 38.7605 114.57C38.3924 114.6 38.0366 114.666 37.6931 114.768C37.3575 114.872 37.0647 115.038 36.815 115.268C36.5748 115.492 36.4091 115.803 36.3178 116.201C36.2391 116.544 36.2497 116.891 36.3496 117.242C36.4574 117.595 36.6721 117.911 36.9939 118.19C37.3234 118.471 37.7883 118.681 38.3887 118.818ZM55.9967 109.477C55.4119 109.342 54.9109 109.075 54.4937 108.676C54.0765 108.277 53.7782 107.806 53.5989 107.264C53.4213 106.714 53.4005 106.143 53.5365 105.551L55.2208 105.937C55.1259 106.351 55.1926 106.739 55.4209 107.104C55.6492 107.468 55.97 107.697 56.3832 107.792C56.8043 107.889 57.1931 107.822 57.5496 107.592C57.9139 107.364 58.1435 107.043 58.2383 106.63L59.9225 107.016C59.7865 107.609 59.5188 108.114 59.1193 108.531C58.7295 108.942 58.2558 109.236 57.6984 109.412C57.1487 109.589 56.5815 109.611 55.9967 109.477ZM60.559 112.075L57.6599 124.707L55.6482 124.245L57.785 114.935L49.0284 122.725L47.3091 122.331L50.2082 109.699L52.2199 110.161L50.1126 119.342L58.8514 111.683L60.559 112.075ZM65.6925 132.091L66.8467 127.061C65.57 126.973 64.4776 126.583 63.5696 125.891C62.6711 125.192 62.0407 124.255 61.6783 123.08C61.3255 121.899 61.3263 120.537 61.6806 118.993C62.0368 117.442 62.631 116.211 63.4634 115.302C64.3036 114.395 65.2794 113.827 66.3909 113.598C67.5119 113.363 68.666 113.484 69.8532 113.962L70.7364 110.114L72.6311 110.549L71.748 114.397C73.0247 114.485 74.1123 114.878 75.0107 115.576C75.9188 116.269 76.5492 117.206 76.902 118.387C77.2626 119.569 77.2648 120.937 76.9087 122.488C76.5544 124.032 75.9571 125.258 75.1169 126.165C74.2863 127.066 73.3105 127.634 72.1895 127.869C71.078 128.098 69.9287 127.974 68.7415 127.496L67.5872 132.525L65.6925 132.091ZM67.2843 125.155L69.413 115.88C68.8065 115.626 68.2133 115.51 67.6335 115.533C67.0555 115.548 66.5151 115.703 66.0124 115.998C65.5096 116.293 65.0688 116.73 64.6899 117.308C64.3111 117.886 64.0214 118.611 63.821 119.484C63.6223 120.35 63.5675 121.125 63.6565 121.811C63.7532 122.498 63.9635 123.083 64.2873 123.568C64.6206 124.047 65.0432 124.423 65.555 124.696C66.0686 124.962 66.645 125.115 67.2843 125.155ZM69.179 125.59C69.7717 125.832 70.3571 125.946 70.9351 125.931C71.5132 125.916 72.0565 125.766 72.5653 125.48C73.0758 125.187 73.5205 124.752 73.8994 124.174C74.2783 123.596 74.5679 122.87 74.7683 121.997C74.9706 121.116 75.0272 120.333 74.9382 119.647C74.8571 118.964 74.6546 118.38 74.3308 117.895C74.0071 117.41 73.5845 117.034 73.0631 116.767C72.5495 116.501 71.9644 116.351 71.3077 116.315L69.179 125.59ZM76.3449 128.995L82.6409 123.718L79.3492 116.388L81.8288 116.957L84.2278 122.383L88.7177 118.538L91.1972 119.107L85.0386 124.268L88.415 131.765L85.9238 131.193L83.4869 125.611L78.8361 129.567L76.3449 128.995ZM93.3427 133.266C92.3993 133.049 91.6472 132.696 91.0866 132.206C90.5355 131.71 90.1616 131.14 89.9647 130.496C89.7757 129.853 89.759 129.193 89.9147 128.514C90.0668 127.852 90.3231 127.307 90.6836 126.881C91.0536 126.449 91.5054 126.126 92.0388 125.912C92.574 125.69 93.1827 125.558 93.8651 125.518C94.503 125.492 95.2058 125.506 95.9734 125.559C96.7506 125.606 97.5328 125.666 98.3202 125.74C99.1076 125.814 99.8435 125.881 100.528 125.939L99.6798 126.2C99.9609 125.083 99.9254 124.2 99.5733 123.553C99.2289 122.908 98.4797 122.453 97.3257 122.188C96.5616 122.012 95.8508 122.034 95.1932 122.252C94.5453 122.465 94.0149 122.934 93.602 123.66L91.7623 122.61C92.3205 121.573 93.1087 120.838 94.127 120.407C95.1452 119.976 96.3678 119.924 97.7947 120.252C98.9409 120.515 99.876 120.947 100.6 121.548C101.333 122.143 101.784 122.895 101.953 123.804C102.043 124.235 102.059 124.686 102 125.157C101.943 125.62 101.857 126.101 101.743 126.6L99.9496 134.413L98.1016 133.988L98.7969 130.959L99.1652 131.339C98.4551 132.252 97.6113 132.87 96.6337 133.196C95.6639 133.523 94.5669 133.547 93.3427 133.266ZM94.0585 131.595C94.807 131.767 95.4846 131.783 96.0913 131.643C96.7075 131.497 97.2334 131.245 97.6689 130.885C98.1062 130.518 98.4355 130.084 98.6567 129.585C98.8632 129.222 99.0249 128.804 99.1418 128.33C99.2684 127.85 99.3612 127.481 99.4202 127.224L100.073 127.706C99.3731 127.644 98.6858 127.581 98.0112 127.516C97.3365 127.452 96.6951 127.403 96.0871 127.37C95.4808 127.329 94.9285 127.322 94.4303 127.347C94.0622 127.377 93.7064 127.443 93.3629 127.545C93.0272 127.649 92.7345 127.815 92.4847 128.045C92.2446 128.269 92.0788 128.58 91.9876 128.978C91.9088 129.321 91.9194 129.668 92.0194 130.019C92.1271 130.372 92.3419 130.688 92.6636 130.967C92.9931 131.248 93.4581 131.458 94.0585 131.595ZM102.979 135.108L105.89 122.479L107.995 122.962L106.599 129.044L113.293 124.178L115.995 124.798L108.966 129.834L113.751 137.58L110.838 136.912L106.492 129.512L105.096 135.594L102.979 135.108ZM128.153 127.589L125.254 140.22L123.242 139.759L125.379 130.449L116.622 138.239L114.903 137.845L117.802 125.213L119.814 125.675L117.707 134.856L126.446 127.197L128.153 127.589Z" fill="white"/>
<rect x="169" y="179" width="136" height="41" rx="20.5" fill="#FFCC8E"/>
<path d="M199.132 208V192.748H193.24V190.72H207.16V192.748H201.268V208H199.132ZM213.827 208.36C212.611 208.36 211.587 208.06 210.755 207.46C209.923 206.852 209.291 206.032 208.859 205C208.435 203.96 208.223 202.796 208.223 201.508C208.223 200.204 208.435 199.036 208.859 198.004C209.291 196.972 209.923 196.16 210.755 195.568C211.595 194.976 212.623 194.68 213.839 194.68C215.039 194.68 216.071 194.98 216.935 195.58C217.807 196.172 218.475 196.984 218.939 198.016C219.403 199.048 219.635 200.212 219.635 201.508C219.635 202.804 219.403 203.968 218.939 205C218.475 206.032 217.807 206.852 216.935 207.46C216.071 208.06 215.035 208.36 213.827 208.36ZM207.863 213.76V195.04H209.771V204.58H210.011V213.76H207.863ZM213.563 206.404C214.419 206.404 215.127 206.188 215.687 205.756C216.247 205.324 216.667 204.74 216.947 204.004C217.227 203.26 217.367 202.428 217.367 201.508C217.367 200.596 217.227 199.772 216.947 199.036C216.675 198.3 216.251 197.716 215.675 197.284C215.107 196.852 214.383 196.636 213.503 196.636C212.663 196.636 211.967 196.844 211.415 197.26C210.863 197.668 210.451 198.24 210.179 198.976C209.907 199.704 209.771 200.548 209.771 201.508C209.771 202.452 209.903 203.296 210.167 204.04C210.439 204.776 210.855 205.356 211.415 205.78C211.975 206.196 212.691 206.404 213.563 206.404ZM227.882 208.36C226.61 208.36 225.498 208.08 224.546 207.52C223.602 206.952 222.866 206.164 222.338 205.156C221.81 204.14 221.546 202.956 221.546 201.604C221.546 200.188 221.806 198.964 222.326 197.932C222.846 196.892 223.57 196.092 224.498 195.532C225.434 194.964 226.53 194.68 227.786 194.68C229.09 194.68 230.198 194.98 231.11 195.58C232.03 196.18 232.718 197.036 233.174 198.148C233.638 199.26 233.838 200.584 233.774 202.12H231.614V201.352C231.59 199.76 231.266 198.572 230.642 197.788C230.018 196.996 229.09 196.6 227.858 196.6C226.538 196.6 225.534 197.024 224.846 197.872C224.158 198.72 223.814 199.936 223.814 201.52C223.814 203.048 224.158 204.232 224.846 205.072C225.534 205.912 226.514 206.332 227.786 206.332C228.642 206.332 229.386 206.136 230.018 205.744C230.65 205.352 231.146 204.788 231.506 204.052L233.558 204.76C233.054 205.904 232.294 206.792 231.278 207.424C230.27 208.048 229.138 208.36 227.882 208.36ZM223.094 202.12V200.404H232.67V202.12H223.094ZM236.434 208V195.04H238.57V200.5H245.386V195.04H247.522V208H245.386V202.528H238.57V208H236.434ZM249.923 210.88V206.236C250.651 206.236 251.171 206 251.483 205.528C251.795 205.048 252.047 204.26 252.239 203.164C252.367 202.476 252.471 201.74 252.551 200.956C252.631 200.172 252.699 199.3 252.755 198.34C252.819 197.372 252.879 196.272 252.935 195.04H261.863V206.236H263.123V210.88H261.083V208H251.963V210.88H249.923ZM253.211 206.236H259.727V196.804H254.867C254.843 197.372 254.811 197.968 254.771 198.592C254.731 199.208 254.683 199.824 254.627 200.44C254.579 201.056 254.519 201.64 254.447 202.192C254.383 202.736 254.307 203.224 254.219 203.656C254.115 204.256 253.995 204.764 253.859 205.18C253.723 205.596 253.507 205.948 253.211 206.236ZM265.531 208L265.519 195.04H267.667V199.732H269.647C270.023 199.732 270.407 199.74 270.799 199.756C271.191 199.772 271.531 199.808 271.819 199.864C272.491 200 273.079 200.228 273.583 200.548C274.087 200.868 274.479 201.3 274.759 201.844C275.039 202.388 275.179 203.064 275.179 203.872C275.179 204.992 274.887 205.88 274.303 206.536C273.727 207.184 272.971 207.616 272.035 207.832C271.715 207.904 271.347 207.952 270.931 207.976C270.523 207.992 270.135 208 269.767 208H265.531ZM267.667 206.236H269.803C270.043 206.236 270.311 206.228 270.607 206.212C270.903 206.196 271.167 206.156 271.399 206.092C271.807 205.972 272.171 205.736 272.491 205.384C272.819 205.032 272.983 204.528 272.983 203.872C272.983 203.208 272.823 202.696 272.503 202.336C272.191 201.976 271.779 201.74 271.267 201.628C271.035 201.572 270.791 201.536 270.535 201.52C270.279 201.504 270.035 201.496 269.803 201.496H267.667V206.236ZM276.667 208V195.04H278.803V208H276.667Z" fill="#1E1E1E"/>
<rect x="161.783" y="99.3279" width="172" height="41" rx="20.5" transform="rotate(15.3416 161.783 99.3279)" fill="#9FE1DB"/>
<path d="M185.63 136.315C183.972 135.86 182.664 135.108 181.708 134.057C180.752 133.007 180.148 131.746 179.896 130.275C179.652 128.806 179.765 127.215 180.235 125.503C180.705 123.79 181.42 122.364 182.379 121.225C183.346 120.089 184.509 119.313 185.867 118.897C187.226 118.482 188.734 118.502 190.393 118.957C192.321 119.486 193.772 120.411 194.746 121.731C195.727 123.054 196.225 124.609 196.241 126.397L193.994 126.378C193.995 125.043 193.658 123.897 192.983 122.94C192.308 121.983 191.265 121.311 189.853 120.924C188.611 120.583 187.5 120.581 186.52 120.918C185.54 121.255 184.703 121.871 184.009 122.768C183.317 123.656 182.784 124.767 182.411 126.099C182.039 127.424 181.923 128.649 182.062 129.774C182.203 130.891 182.612 131.85 183.289 132.649C183.968 133.441 184.928 134.007 186.17 134.348C187.582 134.735 188.822 134.69 189.891 134.212C190.962 133.726 191.836 132.912 192.514 131.771L194.456 132.901C193.533 134.423 192.311 135.506 190.79 136.151C189.279 136.79 187.559 136.845 185.63 136.315ZM198.91 139.585L201.825 128.962L197.474 127.768L197.988 125.893L208.75 128.846L208.236 130.721L203.885 129.527L200.97 140.151L198.91 139.585ZM213.157 143.867C211.984 143.545 211.076 142.985 210.432 142.187C209.791 141.38 209.398 140.422 209.255 139.313C209.121 138.197 209.224 137.019 209.565 135.777C209.91 134.519 210.424 133.449 211.106 132.566C211.795 131.685 212.62 131.069 213.579 130.718C214.545 130.37 215.615 130.356 216.788 130.678C217.945 130.995 218.861 131.558 219.535 132.365C220.219 133.167 220.649 134.126 220.823 135.244C220.998 136.362 220.913 137.546 220.571 138.796C220.228 140.046 219.696 141.107 218.975 141.979C218.255 142.852 217.394 143.466 216.392 143.822C215.4 144.172 214.322 144.187 213.157 143.867ZM205.976 147.497L210.929 129.444L212.769 129.949L210.245 139.149L210.477 139.212L208.048 148.065L205.976 147.497ZM213.42 141.911C214.245 142.138 214.985 142.117 215.639 141.848C216.294 141.58 216.853 141.128 217.318 140.492C217.785 139.849 218.14 139.083 218.383 138.196C218.625 137.316 218.708 136.485 218.632 135.701C218.565 134.919 218.31 134.244 217.869 133.675C217.436 133.108 216.795 132.708 215.946 132.475C215.136 132.253 214.41 132.269 213.767 132.525C213.127 132.772 212.578 133.215 212.121 133.852C211.666 134.483 211.312 135.26 211.058 136.186C210.808 137.097 210.712 137.945 210.77 138.733C210.838 139.515 211.085 140.184 211.513 140.741C211.943 141.29 212.579 141.68 213.42 141.911ZM224.847 147.075C223.914 146.818 223.177 146.434 222.638 145.921C222.108 145.402 221.758 144.817 221.589 144.165C221.427 143.515 221.438 142.854 221.622 142.183C221.802 141.527 222.081 140.994 222.46 140.584C222.847 140.167 223.312 139.864 223.854 139.672C224.398 139.473 225.012 139.368 225.696 139.356C226.334 139.357 227.036 139.4 227.8 139.485C228.575 139.565 229.354 139.659 230.137 139.766C230.921 139.873 231.653 139.97 232.335 140.057L231.476 140.282C231.804 139.178 231.806 138.295 231.482 137.633C231.165 136.974 230.435 136.488 229.294 136.175C228.537 135.967 227.826 135.959 227.16 136.149C226.504 136.334 225.954 136.781 225.511 137.489L223.717 136.362C224.319 135.349 225.137 134.648 226.173 134.261C227.208 133.873 228.432 133.873 229.844 134.26C230.978 134.571 231.894 135.042 232.592 135.673C233.299 136.299 233.719 137.069 233.849 137.984C233.921 138.419 233.917 138.87 233.839 139.338C233.762 139.798 233.656 140.275 233.521 140.769L231.4 148.499L229.571 147.997L230.394 145L230.746 145.395C229.998 146.277 229.129 146.86 228.138 147.144C227.155 147.43 226.058 147.407 224.847 147.075ZM225.633 145.436C226.373 145.639 227.05 145.684 227.662 145.57C228.284 145.45 228.82 145.219 229.27 144.878C229.722 144.53 230.07 144.111 230.312 143.621C230.533 143.267 230.712 142.856 230.849 142.387C230.996 141.913 231.104 141.549 231.174 141.294L231.806 141.804C231.109 141.712 230.425 141.62 229.754 141.527C229.082 141.434 228.444 141.358 227.838 141.3C227.234 141.234 226.682 141.203 226.183 141.207C225.814 141.222 225.456 141.273 225.108 141.36C224.769 141.449 224.469 141.604 224.21 141.823C223.961 142.036 223.782 142.34 223.674 142.733C223.581 143.073 223.577 143.42 223.662 143.775C223.755 144.133 223.956 144.457 224.266 144.75C224.583 145.044 225.039 145.273 225.633 145.436ZM237.718 150.232L240.633 139.609L236.282 138.415L236.796 136.541L247.558 139.493L247.044 141.368L242.693 140.174L239.778 150.798L237.718 150.232ZM251.641 154.425C250.414 154.089 249.416 153.525 248.646 152.733C247.886 151.935 247.385 150.981 247.142 149.869C246.902 148.749 246.96 147.538 247.318 146.234C247.693 144.868 248.267 143.757 249.042 142.899C249.818 142.034 250.728 141.454 251.771 141.159C252.824 140.859 253.956 140.875 255.168 141.207C256.425 141.552 257.414 142.135 258.135 142.955C258.863 143.777 259.3 144.784 259.446 145.977C259.599 147.173 259.442 148.502 258.974 149.967L256.891 149.395L257.094 148.654C257.492 147.113 257.494 145.881 257.099 144.96C256.707 144.031 255.917 143.404 254.729 143.078C253.456 142.729 252.376 142.872 251.488 143.508C250.6 144.144 249.946 145.225 249.527 146.753C249.123 148.226 249.142 149.459 249.583 150.451C250.024 151.443 250.858 152.108 252.085 152.444C252.91 152.671 253.68 152.679 254.393 152.468C255.106 152.257 255.734 151.844 256.275 151.23L258.067 152.455C257.278 153.425 256.31 154.081 255.163 154.421C254.026 154.756 252.852 154.758 251.641 154.425ZM248.674 147.141L249.128 145.486L258.363 148.02L257.909 149.674L248.674 147.141ZM259.995 156.344L263.423 143.846L272.103 146.227L271.566 148.183L264.947 146.367L262.054 156.909L259.995 156.344ZM284.525 149.635L281.096 162.133L279.106 161.587L281.633 152.375L272.556 159.79L270.855 159.323L274.284 146.825L276.274 147.371L273.782 156.456L282.836 149.171L284.525 149.635ZM297.996 153.331L294.567 165.829L292.577 165.283L295.104 156.071L286.027 163.486L284.326 163.019L287.755 150.521L289.745 151.067L287.253 160.151L296.307 152.867L297.996 153.331Z" fill="#1E1E1E"/>
<rect x="289" y="190.859" width="121" height="41" rx="20.5" transform="rotate(-29.6502 289 190.859)" fill="#3253ED"/>
<path d="M325.664 203.358L317.115 188.341L318.972 187.284L322.985 194.334L325.542 183.544L327.878 182.214L325.207 193.386L336.958 196.929L334.56 198.294L323.341 194.959L327.52 202.301L325.664 203.358ZM342.842 193.994C341.736 194.623 340.632 194.93 339.527 194.914C338.426 194.888 337.396 194.567 336.439 193.952C335.477 193.33 334.662 192.432 333.993 191.257C333.293 190.026 332.913 188.834 332.855 187.68C332.792 186.519 333.025 185.465 333.555 184.52C334.087 183.563 334.899 182.774 335.991 182.153C337.124 181.507 338.236 181.22 339.325 181.29C340.421 181.357 341.443 181.76 342.389 182.501C343.342 183.238 344.171 184.29 344.875 185.656L342.998 186.725L342.618 186.057C341.81 184.686 340.941 183.813 340.01 183.441C339.076 183.061 338.074 183.176 337.003 183.786C335.856 184.439 335.193 185.304 335.015 186.381C334.837 187.458 335.139 188.685 335.923 190.062C336.679 191.39 337.563 192.249 338.577 192.638C339.59 193.028 340.65 192.908 341.755 192.279C342.499 191.855 343.049 191.317 343.404 190.664C343.759 190.01 343.911 189.275 343.86 188.457L345.994 188.057C346.122 189.301 345.9 190.448 345.33 191.5C344.763 192.541 343.933 193.372 342.842 193.994ZM335.594 190.94L334.745 189.448L343.067 184.711L343.916 186.202L335.594 190.94ZM347.796 174.107C347.275 174.404 346.725 174.546 346.148 174.534C345.57 174.523 345.032 174.378 344.534 174.1C344.031 173.815 343.629 173.409 343.328 172.881L344.83 172.026C345.04 172.394 345.352 172.635 345.767 172.749C346.181 172.863 346.573 172.815 346.941 172.605C347.317 172.392 347.558 172.079 347.665 171.669C347.779 171.254 347.731 170.863 347.521 170.494L349.023 169.639C349.323 170.168 349.468 170.721 349.456 171.298C349.447 171.865 349.297 172.401 349.005 172.908C348.721 173.41 348.318 173.81 347.796 174.107ZM352.914 172.934L359.325 184.197L357.531 185.218L352.806 176.916L351.629 188.578L350.096 189.45L343.684 178.187L345.478 177.166L350.138 185.353L351.391 173.8L352.914 172.934ZM367.169 180.146C366.029 180.795 364.915 181.093 363.826 181.041C362.741 180.978 361.734 180.616 360.806 179.957C359.879 179.297 359.081 178.398 358.414 177.259C357.76 176.076 357.391 174.919 357.308 173.787C357.229 172.645 357.446 171.596 357.961 170.64C358.476 169.685 359.296 168.886 360.422 168.245C361.611 167.568 362.799 167.279 363.987 167.376C365.182 167.469 366.214 167.94 367.084 168.789L365.563 170.387C364.954 169.868 364.28 169.58 363.538 169.523C362.804 169.462 362.093 169.628 361.405 170.02C360.633 170.459 360.1 171.002 359.805 171.648C359.506 172.288 359.415 172.993 359.532 173.764C359.645 174.529 359.929 175.319 360.386 176.137C361.112 177.38 361.976 178.228 362.979 178.679C363.984 179.119 365.046 179.021 366.166 178.383C366.903 177.964 367.42 177.449 367.716 176.838C368.009 176.22 368.099 175.52 367.985 174.738L370.141 174.16C370.349 175.431 370.198 176.581 369.687 177.608C369.176 178.635 368.337 179.481 367.169 180.146ZM373.937 175.879L367.516 164.622L369.382 163.559L371.704 167.637L373.424 166.657C373.751 166.471 374.089 166.288 374.437 166.108C374.786 165.928 375.099 165.791 375.377 165.697C376.029 165.483 376.652 165.39 377.249 165.419C377.845 165.448 378.399 165.629 378.912 165.964C379.424 166.298 379.88 166.816 380.28 167.518C380.834 168.492 381.02 169.408 380.837 170.267C380.657 171.115 380.213 171.864 379.507 172.515C379.264 172.736 378.968 172.96 378.619 173.187C378.272 173.402 377.939 173.601 377.619 173.783L373.937 175.879ZM374.921 173.289L376.777 172.232C376.986 172.114 377.215 171.974 377.464 171.814C377.714 171.653 377.923 171.488 378.093 171.318C378.388 171.012 378.588 170.626 378.692 170.162C378.803 169.694 378.696 169.175 378.372 168.605C378.043 168.028 377.651 167.662 377.195 167.507C376.745 167.349 376.271 167.348 375.77 167.504C375.541 167.57 375.311 167.659 375.081 167.772C374.85 167.885 374.634 167.998 374.433 168.113L372.576 169.17L374.921 173.289ZM383.615 170.37L377.204 159.107L379.06 158.05L385.472 169.313L383.615 170.37Z" fill="white"/>
<rect x="36.4412" y="186.591" width="152" height="41" rx="20.5" transform="rotate(-18.3079 36.4412 186.591)" fill="#FDE83B"/>
<path d="M82.5881 201.868L80.5374 202.547L76.293 189.719L71.9816 205.378L69.9309 206.056L64.5029 189.651L66.5535 188.973L70.7942 201.789L75.1094 186.142L77.16 185.463L82.5881 201.868ZM85.7623 200.818L81.6913 188.514L83.7192 187.843L85.4343 193.027L91.9053 190.886L90.1902 185.702L92.218 185.031L96.2891 197.335L94.2612 198.006L92.5423 192.811L86.0713 194.952L87.7902 200.147L85.7623 200.818ZM104.777 194.906C103.532 195.318 102.38 195.391 101.323 195.126C100.272 194.85 99.3558 194.298 98.5759 193.469C97.796 192.64 97.1912 191.602 96.7614 190.353C96.3519 189.065 96.2179 187.858 96.3596 186.732C96.5063 185.597 96.9259 184.611 97.6184 183.775C98.3109 182.939 99.2723 182.318 100.503 181.911C101.801 181.481 103.023 181.431 104.169 181.76C105.322 182.086 106.241 182.751 106.927 183.754L105.122 185.021C104.627 184.393 104.022 183.978 103.307 183.777C102.599 183.573 101.869 183.595 101.117 183.844C100.274 184.123 99.6443 184.55 99.2281 185.126C98.8095 185.694 98.5816 186.368 98.5444 187.147C98.5047 187.919 98.6281 188.75 98.9146 189.641C99.3821 191.003 100.063 192.004 100.957 192.643C101.856 193.273 102.917 193.385 104.14 192.981C104.945 192.714 105.553 192.311 105.964 191.77C106.373 191.222 106.598 190.554 106.64 189.764L108.868 189.621C108.822 190.909 108.448 192.006 107.745 192.913C107.042 193.819 106.053 194.484 104.777 194.906ZM115.752 191.275C114.833 191.579 114.007 191.667 113.273 191.539C112.545 191.4 111.93 191.107 111.427 190.658C110.932 190.207 110.576 189.65 110.357 188.99C110.143 188.344 110.08 187.746 110.168 187.194C110.26 186.633 110.479 186.122 110.824 185.663C111.166 185.195 111.619 184.768 112.181 184.379C112.713 184.026 113.321 183.674 114.005 183.321C114.694 182.958 115.394 182.604 116.106 182.259C116.818 181.914 117.481 181.589 118.096 181.285L117.507 181.947C117.168 180.846 116.68 180.11 116.043 179.739C115.414 179.366 114.537 179.365 113.413 179.737C112.669 179.984 112.072 180.371 111.624 180.898C111.18 181.416 110.969 182.092 110.993 182.927L108.875 182.983C108.815 181.807 109.108 180.77 109.755 179.873C110.402 178.977 111.421 178.298 112.81 177.839C113.927 177.469 114.951 177.354 115.881 177.492C116.817 177.621 117.593 178.03 118.208 178.72C118.509 179.042 118.756 179.419 118.95 179.852C119.141 180.277 119.317 180.733 119.478 181.219L121.996 188.83L120.196 189.425L119.22 186.474L119.732 186.608C119.597 187.757 119.197 188.723 118.53 189.509C117.87 190.292 116.944 190.88 115.752 191.275ZM115.498 189.475C116.227 189.234 116.815 188.896 117.261 188.462C117.712 188.018 118.031 187.529 118.217 186.996C118.4 186.455 118.457 185.914 118.387 185.372C118.375 184.955 118.297 184.513 118.151 184.047C118.01 183.571 117.899 183.208 117.816 182.957L118.624 183.031C117.993 183.341 117.373 183.643 116.762 183.938C116.152 184.233 115.578 184.523 115.041 184.811C114.502 185.09 114.026 185.37 113.613 185.65C113.314 185.867 113.044 186.108 112.803 186.373C112.57 186.636 112.406 186.93 112.311 187.256C112.222 187.572 112.242 187.924 112.37 188.311C112.48 188.645 112.669 188.937 112.937 189.185C113.212 189.431 113.56 189.59 113.98 189.662C114.407 189.731 114.913 189.669 115.498 189.475ZM125.71 172.357C125.14 172.546 124.573 172.577 124.009 172.452C123.445 172.327 122.946 172.079 122.512 171.709C122.075 171.331 121.761 170.853 121.57 170.276L123.211 169.733C123.344 170.136 123.603 170.434 123.987 170.627C124.371 170.82 124.764 170.85 125.167 170.717C125.577 170.581 125.875 170.322 126.06 169.941C126.253 169.557 126.283 169.163 126.15 168.761L127.791 168.218C127.982 168.795 128.015 169.366 127.889 169.93C127.769 170.483 127.516 170.98 127.131 171.419C126.753 171.856 126.279 172.169 125.71 172.357ZM130.958 172.213L135.029 184.517L133.07 185.166L130.069 176.097L126.621 187.299L124.947 187.853L120.876 175.549L122.835 174.901L125.794 183.844L129.295 172.764L130.958 172.213ZM138.213 186.497L136.754 182.088C137.445 181.86 137.865 181.472 138.013 180.926C138.158 180.373 138.15 179.545 137.988 178.444C137.893 177.751 137.761 177.02 137.591 176.25C137.42 175.481 137.211 174.632 136.962 173.703C136.719 172.763 136.431 171.7 136.097 170.513L144.573 167.709L148.09 178.338L149.286 177.942L150.745 182.351L148.808 182.992L147.903 180.258L139.245 183.122L140.15 185.857L138.213 186.497ZM139.876 181.056L146.062 179.009L143.099 170.054L138.485 171.581C138.641 172.128 138.798 172.704 138.956 173.308C139.111 173.906 139.259 174.506 139.399 175.108C139.547 175.708 139.674 176.281 139.779 176.828C139.889 177.365 139.97 177.852 140.022 178.29C140.112 178.892 140.158 179.412 140.159 179.85C140.161 180.287 140.066 180.689 139.876 181.056ZM152.127 178.86L148.044 166.56L150.083 165.885L151.557 170.34L153.437 169.718C153.794 169.6 154.161 169.487 154.538 169.379C154.916 169.271 155.25 169.198 155.541 169.161C156.221 169.079 156.851 169.111 157.43 169.256C158.009 169.402 158.517 169.689 158.954 170.117C159.391 170.546 159.736 171.143 159.99 171.91C160.341 172.974 160.343 173.909 159.995 174.715C159.651 175.511 159.069 176.159 158.249 176.658C157.967 176.827 157.633 176.988 157.246 177.141C156.863 177.284 156.498 177.414 156.148 177.53L152.127 178.86ZM153.6 176.515L155.628 175.844C155.856 175.768 156.108 175.676 156.384 175.568C156.66 175.46 156.898 175.339 157.098 175.205C157.448 174.963 157.719 174.625 157.913 174.19C158.113 173.753 158.111 173.223 157.905 172.6C157.696 171.97 157.383 171.534 156.967 171.293C156.557 171.049 156.092 170.954 155.571 171.009C155.333 171.029 155.09 171.071 154.842 171.136C154.594 171.202 154.36 171.271 154.139 171.343L152.111 172.014L153.6 176.515ZM162.699 175.362L158.628 163.058L160.656 162.387L164.727 174.691L162.699 175.362Z" fill="#1E1E1E"/>
<rect x="264.425" y="87.4041" width="126" height="41" rx="20.5" transform="rotate(8.67976 264.425 87.4041)" fill="#E6F4FD"/>
<path d="M292.403 121.375C290.703 121.116 289.317 120.52 288.245 119.587C287.174 118.655 286.428 117.473 286.007 116.041C285.594 114.61 285.522 113.017 285.79 111.261C286.058 109.506 286.602 108.007 287.423 106.764C288.252 105.523 289.317 104.618 290.618 104.047C291.919 103.477 293.419 103.322 295.119 103.581C297.097 103.883 298.645 104.633 299.765 105.832C300.893 107.032 301.568 108.519 301.791 110.293L299.557 110.535C299.403 109.208 298.936 108.109 298.155 107.237C297.373 106.365 296.259 105.819 294.812 105.598C293.538 105.404 292.435 105.531 291.5 105.979C290.566 106.427 289.806 107.136 289.221 108.107C288.637 109.07 288.237 110.235 288.02 111.602C287.804 112.961 287.831 114.191 288.1 115.292C288.37 116.385 288.887 117.29 289.652 118.005C290.418 118.713 291.438 119.164 292.711 119.359C294.158 119.58 295.385 119.39 296.391 118.791C297.398 118.184 298.172 117.275 298.713 116.063L300.773 116.96C300.032 118.579 298.944 119.796 297.509 120.613C296.082 121.423 294.38 121.677 292.403 121.375ZM301.156 122.347L307.044 116.618L303.219 109.552L305.734 109.936L308.528 115.17L312.721 111.003L315.236 111.387L309.476 116.99L313.399 124.216L310.872 123.83L308.028 118.444L303.683 122.733L301.156 122.347ZM320.334 125.639C319.076 125.447 318.019 125.003 317.163 124.305C316.315 123.601 315.706 122.711 315.337 121.635C314.968 120.551 314.886 119.341 315.09 118.004C315.303 116.605 315.745 115.434 316.415 114.492C317.086 113.542 317.922 112.861 318.924 112.447C319.935 112.027 321.062 111.912 322.303 112.101C323.592 112.298 324.642 112.762 325.453 113.493C326.272 114.225 326.823 115.175 327.106 116.343C327.397 117.512 327.395 118.851 327.1 120.36L324.965 120.034L325.08 119.275C325.297 117.697 325.156 116.474 324.657 115.605C324.16 114.728 323.303 114.196 322.085 114.01C320.78 113.811 319.723 114.079 318.915 114.813C318.107 115.548 317.584 116.698 317.344 118.264C317.114 119.774 317.275 120.996 317.829 121.931C318.382 122.865 319.287 123.428 320.545 123.62C321.391 123.749 322.156 123.668 322.84 123.375C323.524 123.083 324.099 122.601 324.566 121.927L326.488 122.937C325.817 123.992 324.932 124.755 323.832 125.226C322.741 125.691 321.575 125.829 320.334 125.639ZM316.542 118.748L316.801 117.052L326.267 118.497L326.009 120.193L316.542 118.748ZM328.494 126.521L330.45 113.709L332.265 113.986L335.611 124.67L341.992 115.471L343.807 115.748L341.851 128.56L339.811 128.248L341.095 119.838L335.73 127.625L334.615 127.455L331.819 118.422L330.535 126.832L328.494 126.521ZM345.165 129.066L347.109 116.252L349.232 116.576L348.524 121.215L350.481 121.513C350.853 121.57 351.231 121.636 351.616 121.711C352.001 121.786 352.332 121.873 352.608 121.972C353.252 122.208 353.799 122.522 354.249 122.914C354.699 123.307 355.021 123.793 355.216 124.373C355.411 124.953 355.447 125.642 355.325 126.441C355.156 127.548 354.733 128.382 354.057 128.942C353.39 129.496 352.577 129.809 351.619 129.881C351.292 129.904 350.921 129.896 350.506 129.857C350.101 129.811 349.716 129.76 349.352 129.705L345.165 129.066ZM347.542 127.644L349.654 127.967C349.891 128.003 350.157 128.035 350.452 128.064C350.747 128.093 351.014 128.093 351.253 128.065C351.675 128.008 352.07 127.83 352.44 127.53C352.817 127.231 353.055 126.758 353.154 126.11C353.254 125.453 353.174 124.923 352.912 124.519C352.657 124.116 352.286 123.82 351.797 123.632C351.576 123.542 351.34 123.469 351.089 123.415C350.839 123.361 350.599 123.316 350.369 123.281L348.258 122.958L347.542 127.644ZM356.173 130.746L358.129 117.935L360.24 118.257L358.285 131.069L356.173 130.746Z" fill="#1E1E1E"/>
<g filter="url(#filter0_f_3152_7538)">
<path d="M204 220C316.666 220 408 244.624 408 275C408 305.376 316.666 330 204 330C91.3339 330 0 305.376 0 275C0 244.624 91.3339 220 204 220ZM-47 0C-16.6243 0 8 49.2487 8 110C8 170.751 -16.6243 220 -47 220C-77.3757 220 -102 170.751 -102 110C-102 49.2487 -77.3757 0 -47 0ZM204 -60C316.666 -60 408 -35.3757 408 -5C408 -3.90322 407.879 -2.81429 407.645 -1.7334C411.92 -3.86668 416.394 -5 421 -5C451.376 -5 476 44.2487 476 105C476 165.751 451.376 215 421 215C390.624 215 366 165.751 366 105C366 70.6105 373.891 39.9074 386.249 19.7363C352.662 37.6871 283.664 50 204 50C91.3339 50 0 25.3757 0 -5C0 -35.3757 91.3339 -60 204 -60Z" fill="white"/>
</g>
</g>
<defs>
<filter id="filter0_f_3152_7538" x="-202" y="-160" width="778" height="590" filterUnits="userSpaceOnUse" color-interpolation-filters="sRGB">
<feFlood flood-opacity="0" result="BackgroundImageFix"/>
<feBlend mode="normal" in="SourceGraphic" in2="BackgroundImageFix" result="shape"/>
<feGaussianBlur stdDeviation="50" result="effect1_foregroundBlur_3152_7538"/>
</filter>
<clipPath id="clip0_3152_7538">
<rect width="408" height="220" rx="12" fill="white"/>
</clipPath>
</defs>
</svg>
