<svg width="408" height="220" viewBox="0 0 408 220" fill="none" xmlns="http://www.w3.org/2000/svg">
<g clip-path="url(#clip0_3152_7206)">
<rect width="408" height="220" rx="8" fill="#F4F6FE"/>
<rect x="50.5" y="48" width="157" height="36" rx="18" fill="white"/>
<g filter="url(#filter0_d_3152_7206)">
<g filter="url(#filter1_d_3152_7206)">
<circle cx="72.5" cy="66" r="10" fill="#3253ED"/>
</g>
<path d="M76.5 63L71 68.5L68.5 66" stroke="white" stroke-width="2" stroke-linecap="round" stroke-linejoin="round"/>
</g>
<path d="M96.464 71V67.016L96.704 67.394C96.444 67.59 96.112 67.748 95.708 67.868C95.308 67.984 94.864 68.042 94.376 68.042C93.636 68.042 93.044 67.902 92.6 67.622C92.156 67.342 91.834 66.958 91.634 66.47C91.438 65.978 91.34 65.414 91.34 64.778V62.36H92.42V64.424C92.42 64.788 92.45 65.128 92.51 65.444C92.574 65.756 92.684 66.03 92.84 66.266C92.996 66.502 93.212 66.686 93.488 66.818C93.764 66.946 94.114 67.01 94.538 67.01C95.05 67.01 95.488 66.93 95.852 66.77C96.22 66.61 96.486 66.438 96.65 66.254L96.464 66.968V62.36H97.538V71H96.464ZM104.519 64.52V71H103.487V66.224L100.091 71H99.209V64.52H100.241V69.23L103.643 64.52H104.519ZM108.929 71.18C108.273 71.18 107.715 71.034 107.255 70.742C106.799 70.446 106.451 70.04 106.211 69.524C105.971 69.008 105.847 68.42 105.839 67.76C105.847 67.084 105.973 66.49 106.217 65.978C106.465 65.462 106.819 65.06 107.279 64.772C107.739 64.484 108.293 64.34 108.941 64.34C109.625 64.34 110.213 64.508 110.705 64.844C111.201 65.18 111.533 65.64 111.701 66.224L110.645 66.542C110.509 66.166 110.287 65.874 109.979 65.666C109.675 65.458 109.325 65.354 108.929 65.354C108.485 65.354 108.119 65.458 107.831 65.666C107.543 65.87 107.329 66.154 107.189 66.518C107.049 66.878 106.977 67.292 106.973 67.76C106.981 68.48 107.147 69.062 107.471 69.506C107.799 69.946 108.285 70.166 108.929 70.166C109.353 70.166 109.705 70.07 109.985 69.878C110.265 69.682 110.477 69.4 110.621 69.032L111.701 69.314C111.477 69.918 111.127 70.38 110.651 70.7C110.175 71.02 109.601 71.18 108.929 71.18ZM114.525 71V65.492H112.269V64.52H117.849V65.492H115.593V71H114.525ZM120.616 71.18C120.132 71.18 119.726 71.092 119.398 70.916C119.074 70.736 118.828 70.5 118.66 70.208C118.496 69.916 118.414 69.596 118.414 69.248C118.414 68.908 118.478 68.614 118.606 68.366C118.738 68.114 118.922 67.906 119.158 67.742C119.394 67.574 119.676 67.442 120.004 67.346C120.312 67.262 120.656 67.19 121.036 67.13C121.42 67.066 121.808 67.008 122.2 66.956C122.592 66.904 122.958 66.854 123.298 66.806L122.914 67.028C122.926 66.452 122.81 66.026 122.566 65.75C122.326 65.474 121.91 65.336 121.318 65.336C120.926 65.336 120.582 65.426 120.286 65.606C119.994 65.782 119.788 66.07 119.668 66.47L118.654 66.164C118.81 65.596 119.112 65.15 119.56 64.826C120.008 64.502 120.598 64.34 121.33 64.34C121.918 64.34 122.422 64.446 122.842 64.658C123.266 64.866 123.57 65.182 123.754 65.606C123.846 65.806 123.904 66.024 123.928 66.26C123.952 66.492 123.964 66.736 123.964 66.992V71H123.016V69.446L123.238 69.59C122.994 70.114 122.652 70.51 122.212 70.778C121.776 71.046 121.244 71.18 120.616 71.18ZM120.778 70.286C121.162 70.286 121.494 70.218 121.774 70.082C122.058 69.942 122.286 69.76 122.458 69.536C122.63 69.308 122.742 69.06 122.794 68.792C122.854 68.592 122.886 68.37 122.89 68.126C122.898 67.878 122.902 67.688 122.902 67.556L123.274 67.718C122.926 67.766 122.584 67.812 122.248 67.856C121.912 67.9 121.594 67.948 121.294 68C120.994 68.048 120.724 68.106 120.484 68.174C120.308 68.23 120.142 68.302 119.986 68.39C119.834 68.478 119.71 68.592 119.614 68.732C119.522 68.868 119.476 69.038 119.476 69.242C119.476 69.418 119.52 69.586 119.608 69.746C119.7 69.906 119.84 70.036 120.028 70.136C120.22 70.236 120.47 70.286 120.778 70.286ZM129.526 71V68.654H128.128C127.964 68.654 127.782 68.648 127.582 68.636C127.386 68.62 127.202 68.598 127.03 68.57C126.562 68.482 126.166 68.276 125.842 67.952C125.522 67.628 125.362 67.18 125.362 66.608C125.362 66.052 125.512 65.606 125.812 65.27C126.116 64.93 126.49 64.71 126.934 64.61C127.134 64.562 127.336 64.536 127.54 64.532C127.748 64.524 127.924 64.52 128.068 64.52H130.594L130.6 71H129.526ZM125.164 71L126.886 68.36H128.038L126.316 71H125.164ZM128.05 67.772H129.526V65.402H128.05C127.958 65.402 127.836 65.406 127.684 65.414C127.536 65.422 127.394 65.446 127.258 65.486C127.13 65.522 127.004 65.588 126.88 65.684C126.76 65.78 126.66 65.904 126.58 66.056C126.5 66.208 126.46 66.388 126.46 66.596C126.46 66.896 126.544 67.14 126.712 67.328C126.88 67.512 127.084 67.636 127.324 67.7C127.456 67.732 127.586 67.752 127.714 67.76C127.846 67.768 127.958 67.772 128.05 67.772ZM136.53 71.18C136.046 71.18 135.64 71.092 135.312 70.916C134.988 70.736 134.742 70.5 134.574 70.208C134.41 69.916 134.328 69.596 134.328 69.248C134.328 68.908 134.392 68.614 134.52 68.366C134.652 68.114 134.836 67.906 135.072 67.742C135.308 67.574 135.59 67.442 135.918 67.346C136.226 67.262 136.57 67.19 136.95 67.13C137.334 67.066 137.722 67.008 138.114 66.956C138.506 66.904 138.872 66.854 139.212 66.806L138.828 67.028C138.84 66.452 138.724 66.026 138.48 65.75C138.24 65.474 137.824 65.336 137.232 65.336C136.84 65.336 136.496 65.426 136.2 65.606C135.908 65.782 135.702 66.07 135.582 66.47L134.568 66.164C134.724 65.596 135.026 65.15 135.474 64.826C135.922 64.502 136.512 64.34 137.244 64.34C137.832 64.34 138.336 64.446 138.756 64.658C139.18 64.866 139.484 65.182 139.668 65.606C139.76 65.806 139.818 66.024 139.842 66.26C139.866 66.492 139.878 66.736 139.878 66.992V71H138.93V69.446L139.152 69.59C138.908 70.114 138.566 70.51 138.126 70.778C137.69 71.046 137.158 71.18 136.53 71.18ZM136.692 70.286C137.076 70.286 137.408 70.218 137.688 70.082C137.972 69.942 138.2 69.76 138.372 69.536C138.544 69.308 138.656 69.06 138.708 68.792C138.768 68.592 138.8 68.37 138.804 68.126C138.812 67.878 138.816 67.688 138.816 67.556L139.188 67.718C138.84 67.766 138.498 67.812 138.162 67.856C137.826 67.9 137.508 67.948 137.208 68C136.908 68.048 136.638 68.106 136.398 68.174C136.222 68.23 136.056 68.302 135.9 68.39C135.748 68.478 135.624 68.592 135.528 68.732C135.436 68.868 135.39 69.038 135.39 69.242C135.39 69.418 135.434 69.586 135.522 69.746C135.614 69.906 135.754 70.036 135.942 70.136C136.134 70.236 136.384 70.286 136.692 70.286ZM141.432 71V64.52H142.5V67.25H145.908V64.52H146.976V71H145.908V68.264H142.5V71H141.432ZM150.498 71.18C150.014 71.18 149.608 71.092 149.28 70.916C148.956 70.736 148.71 70.5 148.542 70.208C148.378 69.916 148.296 69.596 148.296 69.248C148.296 68.908 148.36 68.614 148.488 68.366C148.62 68.114 148.804 67.906 149.04 67.742C149.276 67.574 149.558 67.442 149.886 67.346C150.194 67.262 150.538 67.19 150.918 67.13C151.302 67.066 151.69 67.008 152.082 66.956C152.474 66.904 152.84 66.854 153.18 66.806L152.796 67.028C152.808 66.452 152.692 66.026 152.448 65.75C152.208 65.474 151.792 65.336 151.2 65.336C150.808 65.336 150.464 65.426 150.168 65.606C149.876 65.782 149.67 66.07 149.55 66.47L148.536 66.164C148.692 65.596 148.994 65.15 149.442 64.826C149.89 64.502 150.48 64.34 151.212 64.34C151.8 64.34 152.304 64.446 152.724 64.658C153.148 64.866 153.452 65.182 153.636 65.606C153.728 65.806 153.786 66.024 153.81 66.26C153.834 66.492 153.846 66.736 153.846 66.992V71H152.898V69.446L153.12 69.59C152.876 70.114 152.534 70.51 152.094 70.778C151.658 71.046 151.126 71.18 150.498 71.18ZM150.66 70.286C151.044 70.286 151.376 70.218 151.656 70.082C151.94 69.942 152.168 69.76 152.34 69.536C152.512 69.308 152.624 69.06 152.676 68.792C152.736 68.592 152.768 68.37 152.772 68.126C152.78 67.878 152.784 67.688 152.784 67.556L153.156 67.718C152.808 67.766 152.466 67.812 152.13 67.856C151.794 67.9 151.476 67.948 151.176 68C150.876 68.048 150.606 68.106 150.366 68.174C150.19 68.23 150.024 68.302 149.868 68.39C149.716 68.478 149.592 68.592 149.496 68.732C149.404 68.868 149.358 69.038 149.358 69.242C149.358 69.418 149.402 69.586 149.49 69.746C149.582 69.906 149.722 70.036 149.91 70.136C150.102 70.236 150.352 70.286 150.66 70.286ZM154.806 71V70.082C155.046 70.126 155.228 70.118 155.352 70.058C155.48 69.994 155.574 69.884 155.634 69.728C155.698 69.568 155.75 69.368 155.79 69.128C155.858 68.748 155.916 68.324 155.964 67.856C156.016 67.388 156.062 66.876 156.102 66.32C156.146 65.76 156.186 65.16 156.222 64.52H160.752V71H159.684V65.534H157.194C157.17 65.902 157.14 66.28 157.104 66.668C157.072 67.056 157.038 67.434 157.002 67.802C156.966 68.166 156.926 68.506 156.882 68.822C156.842 69.134 156.798 69.404 156.75 69.632C156.674 70.024 156.568 70.338 156.432 70.574C156.296 70.806 156.1 70.956 155.844 71.024C155.588 71.096 155.242 71.088 154.806 71ZM167.742 64.52V71H166.71V66.224L163.314 71H162.432V64.52H163.464V69.23L166.866 64.52H167.742ZM171.138 71V65.492H168.882V64.52H174.462V65.492H172.206V71H171.138ZM180.902 64.52V71H179.87V66.224L176.474 71H175.592V64.52H176.624V69.23L180.026 64.52H180.902ZM182.576 71L182.582 64.52H183.662V67.64L186.38 64.52H187.766L184.904 67.76L188.102 71H186.608L183.662 67.88V71H182.576ZM190.541 71.18C190.057 71.18 189.651 71.092 189.323 70.916C188.999 70.736 188.753 70.5 188.585 70.208C188.421 69.916 188.339 69.596 188.339 69.248C188.339 68.908 188.403 68.614 188.531 68.366C188.663 68.114 188.847 67.906 189.083 67.742C189.319 67.574 189.601 67.442 189.929 67.346C190.237 67.262 190.581 67.19 190.961 67.13C191.345 67.066 191.733 67.008 192.125 66.956C192.517 66.904 192.883 66.854 193.223 66.806L192.839 67.028C192.851 66.452 192.735 66.026 192.491 65.75C192.251 65.474 191.835 65.336 191.243 65.336C190.851 65.336 190.507 65.426 190.211 65.606C189.919 65.782 189.713 66.07 189.593 66.47L188.579 66.164C188.735 65.596 189.037 65.15 189.485 64.826C189.933 64.502 190.523 64.34 191.255 64.34C191.843 64.34 192.347 64.446 192.767 64.658C193.191 64.866 193.495 65.182 193.679 65.606C193.771 65.806 193.829 66.024 193.853 66.26C193.877 66.492 193.889 66.736 193.889 66.992V71H192.941V69.446L193.163 69.59C192.919 70.114 192.577 70.51 192.137 70.778C191.701 71.046 191.169 71.18 190.541 71.18ZM190.703 70.286C191.087 70.286 191.419 70.218 191.699 70.082C191.983 69.942 192.211 69.76 192.383 69.536C192.555 69.308 192.667 69.06 192.719 68.792C192.779 68.592 192.811 68.37 192.815 68.126C192.823 67.878 192.827 67.688 192.827 67.556L193.199 67.718C192.851 67.766 192.509 67.812 192.173 67.856C191.837 67.9 191.519 67.948 191.219 68C190.919 68.048 190.649 68.106 190.409 68.174C190.233 68.23 190.067 68.302 189.911 68.39C189.759 68.478 189.635 68.592 189.539 68.732C189.447 68.868 189.401 69.038 189.401 69.242C189.401 69.418 189.445 69.586 189.533 69.746C189.625 69.906 189.765 70.036 189.953 70.136C190.145 70.236 190.395 70.286 190.703 70.286Z" fill="#1E1E1E"/>
<rect x="215.5" y="48" width="143" height="36" rx="18" fill="white"/>
<g filter="url(#filter2_d_3152_7206)">
<g filter="url(#filter3_d_3152_7206)">
<circle cx="237.5" cy="66" r="10" fill="#3253ED"/>
</g>
<path d="M241.5 63L236 68.5L233.5 66" stroke="white" stroke-width="2" stroke-linecap="round" stroke-linejoin="round"/>
</g>
<path d="M256.34 71V62.36H261.8V63.374H257.408V71H256.34ZM268.066 64.52V71H267.034V66.224L263.638 71H262.756V64.52H263.788V69.23L267.19 64.52H268.066ZM272.38 71.186C271.768 71.182 271.246 71.05 270.814 70.79C270.382 70.526 270.046 70.14 269.806 69.632C269.566 69.124 269.432 68.502 269.404 67.766C269.388 67.426 269.392 67.052 269.416 66.644C269.444 66.236 269.488 65.844 269.548 65.468C269.612 65.092 269.692 64.782 269.788 64.538C269.896 64.246 270.048 63.976 270.244 63.728C270.444 63.476 270.668 63.268 270.916 63.104C271.168 62.932 271.45 62.798 271.762 62.702C272.074 62.606 272.4 62.532 272.74 62.48C273.084 62.424 273.428 62.376 273.772 62.336C274.116 62.292 274.444 62.24 274.756 62.18L274.864 63.14C274.644 63.188 274.384 63.23 274.084 63.266C273.784 63.298 273.472 63.336 273.148 63.38C272.828 63.424 272.52 63.486 272.224 63.566C271.932 63.642 271.68 63.748 271.468 63.884C271.156 64.072 270.916 64.354 270.748 64.73C270.584 65.102 270.484 65.52 270.448 65.984C270.696 65.6 271.018 65.318 271.414 65.138C271.81 64.958 272.232 64.868 272.68 64.868C273.26 64.868 273.76 65.004 274.18 65.276C274.6 65.544 274.922 65.914 275.146 66.386C275.374 66.858 275.488 67.396 275.488 68C275.488 68.64 275.36 69.2 275.104 69.68C274.848 70.16 274.486 70.532 274.018 70.796C273.554 71.06 273.008 71.19 272.38 71.186ZM272.446 70.172C273.074 70.172 273.55 69.978 273.874 69.59C274.198 69.198 274.36 68.678 274.36 68.03C274.36 67.366 274.192 66.844 273.856 66.464C273.52 66.08 273.048 65.888 272.44 65.888C271.824 65.888 271.352 66.08 271.024 66.464C270.7 66.844 270.538 67.366 270.538 68.03C270.538 68.698 270.702 69.222 271.03 69.602C271.358 69.982 271.83 70.172 272.446 70.172ZM276.807 71L276.813 64.52H277.893V67.64L280.611 64.52H281.997L279.135 67.76L282.333 71H280.839L277.893 67.88V71H276.807ZM288.234 64.52V71H287.202V66.224L283.806 71H282.924V64.52H283.956V69.23L287.358 64.52H288.234ZM292.722 71.18C292.086 71.18 291.53 71.04 291.054 70.76C290.582 70.476 290.214 70.082 289.95 69.578C289.686 69.07 289.554 68.478 289.554 67.802C289.554 67.094 289.684 66.482 289.944 65.966C290.204 65.446 290.566 65.046 291.03 64.766C291.498 64.482 292.046 64.34 292.674 64.34C293.326 64.34 293.88 64.49 294.336 64.79C294.796 65.09 295.14 65.518 295.368 66.074C295.6 66.63 295.7 67.292 295.668 68.06H294.588V67.676C294.576 66.88 294.414 66.286 294.102 65.894C293.79 65.498 293.326 65.3 292.71 65.3C292.05 65.3 291.548 65.512 291.204 65.936C290.86 66.36 290.688 66.968 290.688 67.76C290.688 68.524 290.86 69.116 291.204 69.536C291.548 69.956 292.038 70.166 292.674 70.166C293.102 70.166 293.474 70.068 293.79 69.872C294.106 69.676 294.354 69.394 294.534 69.026L295.56 69.38C295.308 69.952 294.928 70.396 294.42 70.712C293.916 71.024 293.35 71.18 292.722 71.18ZM290.328 68.06V67.202H295.116V68.06H290.328ZM300.306 73.88L301.56 70.472L301.578 71.48L298.746 64.52H299.868L302.088 70.118H301.704L303.786 64.52H304.872L301.344 73.88H300.306ZM308.359 71.18C307.703 71.18 307.145 71.034 306.685 70.742C306.229 70.446 305.881 70.04 305.641 69.524C305.401 69.008 305.277 68.42 305.269 67.76C305.277 67.084 305.403 66.49 305.647 65.978C305.895 65.462 306.249 65.06 306.709 64.772C307.169 64.484 307.723 64.34 308.371 64.34C309.055 64.34 309.643 64.508 310.135 64.844C310.631 65.18 310.963 65.64 311.131 66.224L310.075 66.542C309.939 66.166 309.717 65.874 309.409 65.666C309.105 65.458 308.755 65.354 308.359 65.354C307.915 65.354 307.549 65.458 307.261 65.666C306.973 65.87 306.759 66.154 306.619 66.518C306.479 66.878 306.407 67.292 306.403 67.76C306.411 68.48 306.577 69.062 306.901 69.506C307.229 69.946 307.715 70.166 308.359 70.166C308.783 70.166 309.135 70.07 309.415 69.878C309.695 69.682 309.907 69.4 310.051 69.032L311.131 69.314C310.907 69.918 310.557 70.38 310.081 70.7C309.605 71.02 309.031 71.18 308.359 71.18ZM311.58 71V70.082C311.82 70.126 312.002 70.118 312.126 70.058C312.254 69.994 312.348 69.884 312.408 69.728C312.472 69.568 312.524 69.368 312.564 69.128C312.632 68.748 312.69 68.324 312.738 67.856C312.79 67.388 312.836 66.876 312.876 66.32C312.92 65.76 312.96 65.16 312.996 64.52H317.526V71H316.458V65.534H313.968C313.944 65.902 313.914 66.28 313.878 66.668C313.846 67.056 313.812 67.434 313.776 67.802C313.74 68.166 313.7 68.506 313.656 68.822C313.616 69.134 313.572 69.404 313.524 69.632C313.448 70.024 313.342 70.338 313.206 70.574C313.07 70.806 312.874 70.956 312.618 71.024C312.362 71.096 312.016 71.088 311.58 71ZM321.971 71.18C321.327 71.18 320.771 71.034 320.303 70.742C319.839 70.45 319.481 70.046 319.229 69.53C318.977 69.014 318.851 68.422 318.851 67.754C318.851 67.074 318.979 66.478 319.235 65.966C319.491 65.454 319.853 65.056 320.321 64.772C320.789 64.484 321.339 64.34 321.971 64.34C322.619 64.34 323.177 64.486 323.645 64.778C324.113 65.066 324.471 65.468 324.719 65.984C324.971 66.496 325.097 67.086 325.097 67.754C325.097 68.43 324.971 69.026 324.719 69.542C324.467 70.054 324.107 70.456 323.639 70.748C323.171 71.036 322.615 71.18 321.971 71.18ZM321.971 70.166C322.643 70.166 323.143 69.942 323.471 69.494C323.799 69.046 323.963 68.466 323.963 67.754C323.963 67.022 323.797 66.44 323.465 66.008C323.133 65.572 322.635 65.354 321.971 65.354C321.519 65.354 321.147 65.456 320.855 65.66C320.563 65.864 320.345 66.146 320.201 66.506C320.057 66.866 319.985 67.282 319.985 67.754C319.985 68.482 320.153 69.066 320.489 69.506C320.825 69.946 321.319 70.166 321.971 70.166ZM326.412 71V64.52H329.172C329.336 64.52 329.512 64.53 329.7 64.55C329.892 64.566 330.066 64.596 330.222 64.64C330.57 64.732 330.856 64.922 331.08 65.21C331.308 65.494 331.422 65.854 331.422 66.29C331.422 66.534 331.384 66.746 331.308 66.926C331.236 67.106 331.132 67.262 330.996 67.394C330.936 67.454 330.87 67.508 330.798 67.556C330.726 67.604 330.654 67.642 330.582 67.67C330.722 67.694 330.864 67.748 331.008 67.832C331.236 67.956 331.414 68.13 331.542 68.354C331.674 68.578 331.74 68.864 331.74 69.212C331.74 69.652 331.634 70.016 331.422 70.304C331.21 70.588 330.918 70.784 330.546 70.892C330.39 70.936 330.218 70.966 330.03 70.982C329.842 70.994 329.66 71 329.484 71H326.412ZM327.492 70.13H329.424C329.508 70.13 329.608 70.122 329.724 70.106C329.844 70.09 329.95 70.07 330.042 70.046C330.25 69.986 330.4 69.874 330.492 69.71C330.588 69.546 330.636 69.368 330.636 69.176C330.636 68.92 330.564 68.712 330.42 68.552C330.28 68.392 330.094 68.292 329.862 68.252C329.778 68.228 329.686 68.214 329.586 68.21C329.49 68.206 329.404 68.204 329.328 68.204H327.492V70.13ZM327.492 67.322H329.1C329.212 67.322 329.33 67.316 329.454 67.304C329.578 67.288 329.686 67.262 329.778 67.226C329.962 67.158 330.096 67.046 330.18 66.89C330.268 66.73 330.312 66.556 330.312 66.368C330.312 66.16 330.264 65.978 330.168 65.822C330.076 65.662 329.934 65.552 329.742 65.492C329.614 65.444 329.47 65.418 329.31 65.414C329.154 65.406 329.054 65.402 329.01 65.402H327.492V67.322ZM338.249 64.52V71H337.217V66.224L333.821 71H332.939V64.52H333.971V69.23L337.373 64.52H338.249ZM343.932 71V68.654H342.534C342.37 68.654 342.188 68.648 341.988 68.636C341.792 68.62 341.608 68.598 341.436 68.57C340.968 68.482 340.572 68.276 340.248 67.952C339.928 67.628 339.768 67.18 339.768 66.608C339.768 66.052 339.918 65.606 340.218 65.27C340.522 64.93 340.896 64.71 341.34 64.61C341.54 64.562 341.742 64.536 341.946 64.532C342.154 64.524 342.33 64.52 342.474 64.52H345L345.006 71H343.932ZM339.57 71L341.292 68.36H342.444L340.722 71H339.57ZM342.456 67.772H343.932V65.402H342.456C342.364 65.402 342.242 65.406 342.09 65.414C341.942 65.422 341.8 65.446 341.664 65.486C341.536 65.522 341.41 65.588 341.286 65.684C341.166 65.78 341.066 65.904 340.986 66.056C340.906 66.208 340.866 66.388 340.866 66.596C340.866 66.896 340.95 67.14 341.118 67.328C341.286 67.512 341.49 67.636 341.73 67.7C341.862 67.732 341.992 67.752 342.12 67.76C342.252 67.768 342.364 67.772 342.456 67.772Z" fill="#1E1E1E"/>
<rect x="110.5" y="92" width="188" height="36" rx="18" fill="white"/>
<g filter="url(#filter4_d_3152_7206)">
<g filter="url(#filter5_d_3152_7206)">
<circle cx="132.5" cy="110" r="10" fill="#3253ED"/>
</g>
<path d="M136.5 107L131 112.5L128.5 110" stroke="white" stroke-width="2" stroke-linecap="round" stroke-linejoin="round"/>
</g>
<path d="M154.664 115.18C154.036 115.18 153.468 115.074 152.96 114.862C152.456 114.65 152.03 114.34 151.682 113.932C151.334 113.524 151.08 113.024 150.92 112.432L151.97 112.162C152.154 112.774 152.478 113.262 152.942 113.626C153.406 113.99 153.962 114.168 154.61 114.16C155.054 114.152 155.47 114.068 155.858 113.908C156.25 113.744 156.572 113.49 156.824 113.146C157.056 112.846 157.218 112.532 157.31 112.204C157.402 111.872 157.46 111.532 157.484 111.184H154.352V110.17H157.49C157.442 109.582 157.3 109.064 157.064 108.616C156.832 108.168 156.51 107.82 156.098 107.572C155.69 107.32 155.194 107.198 154.61 107.206C153.922 107.214 153.344 107.406 152.876 107.782C152.408 108.154 152.096 108.664 151.94 109.312L150.86 109.156C151.076 108.208 151.518 107.476 152.186 106.96C152.854 106.44 153.68 106.18 154.664 106.18C155.504 106.18 156.218 106.368 156.806 106.744C157.394 107.12 157.844 107.646 158.156 108.322C158.472 108.998 158.634 109.784 158.642 110.68C158.654 111.52 158.506 112.28 158.198 112.96C157.89 113.64 157.436 114.18 156.836 114.58C156.24 114.98 155.516 115.18 154.664 115.18ZM159.83 115L159.836 108.52H160.916V111.64L163.634 108.52H165.02L162.158 111.76L165.356 115H163.862L160.916 111.88V115H159.83ZM168.566 115.18C167.91 115.18 167.352 115.034 166.892 114.742C166.436 114.446 166.088 114.04 165.848 113.524C165.608 113.008 165.484 112.42 165.476 111.76C165.484 111.084 165.61 110.49 165.854 109.978C166.102 109.462 166.456 109.06 166.916 108.772C167.376 108.484 167.93 108.34 168.578 108.34C169.262 108.34 169.85 108.508 170.342 108.844C170.838 109.18 171.17 109.64 171.338 110.224L170.282 110.542C170.146 110.166 169.924 109.874 169.616 109.666C169.312 109.458 168.962 109.354 168.566 109.354C168.122 109.354 167.756 109.458 167.468 109.666C167.18 109.87 166.966 110.154 166.826 110.518C166.686 110.878 166.614 111.292 166.61 111.76C166.618 112.48 166.784 113.062 167.108 113.506C167.436 113.946 167.922 114.166 168.566 114.166C168.99 114.166 169.342 114.07 169.622 113.878C169.902 113.682 170.114 113.4 170.258 113.032L171.338 113.314C171.114 113.918 170.764 114.38 170.288 114.7C169.812 115.02 169.238 115.18 168.566 115.18ZM172.557 115L172.563 108.52H173.643V111.64L176.361 108.52H177.747L174.885 111.76L178.083 115H176.589L173.643 111.88V115H172.557ZM177.963 115V114.082C178.203 114.126 178.385 114.118 178.509 114.058C178.637 113.994 178.731 113.884 178.791 113.728C178.855 113.568 178.907 113.368 178.947 113.128C179.015 112.748 179.073 112.324 179.121 111.856C179.173 111.388 179.219 110.876 179.259 110.32C179.303 109.76 179.343 109.16 179.379 108.52H183.909V115H182.841V109.534H180.351C180.327 109.902 180.297 110.28 180.261 110.668C180.229 111.056 180.195 111.434 180.159 111.802C180.123 112.166 180.083 112.506 180.039 112.822C179.999 113.134 179.955 113.404 179.907 113.632C179.831 114.024 179.725 114.338 179.589 114.574C179.453 114.806 179.257 114.956 179.001 115.024C178.745 115.096 178.399 115.088 177.963 115ZM190.88 115.18C190.328 115.18 189.84 115.062 189.416 114.826C188.996 114.59 188.658 114.256 188.402 113.824C188.146 113.392 187.986 112.882 187.922 112.294H186.656V115H185.588V108.52H186.656V111.226H187.916C187.98 110.626 188.142 110.11 188.402 109.678C188.662 109.246 189.004 108.916 189.428 108.688C189.852 108.456 190.34 108.34 190.892 108.34C191.536 108.34 192.09 108.486 192.554 108.778C193.022 109.07 193.38 109.472 193.628 109.984C193.88 110.496 194.006 111.084 194.006 111.748C194.006 112.424 193.878 113.02 193.622 113.536C193.37 114.052 193.01 114.456 192.542 114.748C192.078 115.036 191.524 115.18 190.88 115.18ZM190.862 114.166C191.542 114.166 192.046 113.944 192.374 113.5C192.706 113.052 192.872 112.47 192.872 111.754C192.872 111.018 192.704 110.434 192.368 110.002C192.036 109.57 191.536 109.354 190.868 109.354C190.224 109.354 189.734 109.568 189.398 109.996C189.062 110.424 188.894 111.008 188.894 111.748C188.894 112.48 189.06 113.066 189.392 113.506C189.728 113.946 190.218 114.166 190.862 114.166ZM197.49 115.18C196.85 115.18 196.284 115.042 195.792 114.766C195.3 114.486 194.912 114.102 194.628 113.614L195.48 113.062C195.716 113.418 195.998 113.692 196.326 113.884C196.654 114.072 197.028 114.166 197.448 114.166C197.888 114.166 198.238 114.066 198.498 113.866C198.758 113.662 198.888 113.388 198.888 113.044C198.888 112.788 198.824 112.592 198.696 112.456C198.568 112.32 198.384 112.226 198.144 112.174C197.904 112.122 197.618 112.096 197.286 112.096H196.614V111.214H197.28C197.7 111.214 198.042 111.146 198.306 111.01C198.57 110.874 198.702 110.642 198.702 110.314C198.702 109.978 198.578 109.734 198.33 109.582C198.086 109.426 197.794 109.348 197.454 109.348C197.094 109.348 196.75 109.424 196.422 109.576C196.094 109.724 195.812 109.912 195.576 110.14L194.928 109.414C195.264 109.07 195.65 108.806 196.086 108.622C196.526 108.434 197.004 108.34 197.52 108.34C197.936 108.34 198.316 108.414 198.66 108.562C199.008 108.706 199.284 108.92 199.488 109.204C199.696 109.484 199.8 109.826 199.8 110.23C199.8 110.574 199.72 110.88 199.56 111.148C199.4 111.416 199.164 111.65 198.852 111.85L198.81 111.472C199.074 111.536 199.292 111.654 199.464 111.826C199.64 111.994 199.77 112.194 199.854 112.426C199.938 112.658 199.98 112.9 199.98 113.152C199.98 113.576 199.868 113.94 199.644 114.244C199.424 114.544 199.126 114.776 198.75 114.94C198.374 115.1 197.954 115.18 197.49 115.18ZM206.601 108.52V115H205.569V110.224L202.173 115H201.291V108.52H202.323V113.23L205.725 108.52H206.601ZM208.275 115V108.52H211.035C211.199 108.52 211.375 108.53 211.563 108.55C211.755 108.566 211.929 108.596 212.085 108.64C212.433 108.732 212.719 108.922 212.943 109.21C213.171 109.494 213.285 109.854 213.285 110.29C213.285 110.534 213.247 110.746 213.171 110.926C213.099 111.106 212.995 111.262 212.859 111.394C212.799 111.454 212.733 111.508 212.661 111.556C212.589 111.604 212.517 111.642 212.445 111.67C212.585 111.694 212.727 111.748 212.871 111.832C213.099 111.956 213.277 112.13 213.405 112.354C213.537 112.578 213.603 112.864 213.603 113.212C213.603 113.652 213.497 114.016 213.285 114.304C213.073 114.588 212.781 114.784 212.409 114.892C212.253 114.936 212.081 114.966 211.893 114.982C211.705 114.994 211.523 115 211.347 115H208.275ZM209.355 114.13H211.287C211.371 114.13 211.471 114.122 211.587 114.106C211.707 114.09 211.813 114.07 211.905 114.046C212.113 113.986 212.263 113.874 212.355 113.71C212.451 113.546 212.499 113.368 212.499 113.176C212.499 112.92 212.427 112.712 212.283 112.552C212.143 112.392 211.957 112.292 211.725 112.252C211.641 112.228 211.549 112.214 211.449 112.21C211.353 112.206 211.267 112.204 211.191 112.204H209.355V114.13ZM209.355 111.322H210.963C211.075 111.322 211.193 111.316 211.317 111.304C211.441 111.288 211.549 111.262 211.641 111.226C211.825 111.158 211.959 111.046 212.043 110.89C212.131 110.73 212.175 110.556 212.175 110.368C212.175 110.16 212.127 109.978 212.031 109.822C211.939 109.662 211.797 109.552 211.605 109.492C211.477 109.444 211.333 109.418 211.173 109.414C211.017 109.406 210.917 109.402 210.873 109.402H209.355V111.322ZM214.803 115V108.52H215.871V111.25H219.279V108.52H220.347V115H219.279V112.264H215.871V115H214.803ZM222.028 115L222.022 108.52H223.096V110.866H224.086C224.274 110.866 224.466 110.87 224.662 110.878C224.858 110.886 225.028 110.904 225.172 110.932C225.508 111 225.802 111.114 226.054 111.274C226.306 111.434 226.502 111.65 226.642 111.922C226.782 112.194 226.852 112.532 226.852 112.936C226.852 113.496 226.706 113.94 226.414 114.268C226.126 114.592 225.748 114.808 225.28 114.916C225.12 114.952 224.936 114.976 224.728 114.988C224.524 114.996 224.33 115 224.146 115H222.028ZM223.096 114.118H224.164C224.284 114.118 224.418 114.114 224.566 114.106C224.714 114.098 224.846 114.078 224.962 114.046C225.166 113.986 225.348 113.868 225.508 113.692C225.672 113.516 225.754 113.264 225.754 112.936C225.754 112.604 225.674 112.348 225.514 112.168C225.358 111.988 225.152 111.87 224.896 111.814C224.78 111.786 224.658 111.768 224.53 111.76C224.402 111.752 224.28 111.748 224.164 111.748H223.096V114.118ZM227.596 115V108.52H228.664V115H227.596ZM233.156 115.18C232.52 115.18 231.964 115.04 231.488 114.76C231.016 114.476 230.648 114.082 230.384 113.578C230.12 113.07 229.988 112.478 229.988 111.802C229.988 111.094 230.118 110.482 230.378 109.966C230.638 109.446 231 109.046 231.464 108.766C231.932 108.482 232.48 108.34 233.108 108.34C233.76 108.34 234.314 108.49 234.77 108.79C235.23 109.09 235.574 109.518 235.802 110.074C236.034 110.63 236.134 111.292 236.102 112.06H235.022V111.676C235.01 110.88 234.848 110.286 234.536 109.894C234.224 109.498 233.76 109.3 233.144 109.3C232.484 109.3 231.982 109.512 231.638 109.936C231.294 110.36 231.122 110.968 231.122 111.76C231.122 112.524 231.294 113.116 231.638 113.536C231.982 113.956 232.472 114.166 233.108 114.166C233.536 114.166 233.908 114.068 234.224 113.872C234.54 113.676 234.788 113.394 234.968 113.026L235.994 113.38C235.742 113.952 235.362 114.396 234.854 114.712C234.35 115.024 233.784 115.18 233.156 115.18ZM230.762 112.06V111.202H235.55V112.06H230.762ZM242.6 115.18C241.956 115.18 241.4 115.034 240.932 114.742C240.468 114.45 240.11 114.046 239.858 113.53C239.606 113.014 239.48 112.422 239.48 111.754C239.48 111.074 239.608 110.478 239.864 109.966C240.12 109.454 240.482 109.056 240.95 108.772C241.418 108.484 241.968 108.34 242.6 108.34C243.248 108.34 243.806 108.486 244.274 108.778C244.742 109.066 245.1 109.468 245.348 109.984C245.6 110.496 245.726 111.086 245.726 111.754C245.726 112.43 245.6 113.026 245.348 113.542C245.096 114.054 244.736 114.456 244.268 114.748C243.8 115.036 243.244 115.18 242.6 115.18ZM242.6 114.166C243.272 114.166 243.772 113.942 244.1 113.494C244.428 113.046 244.592 112.466 244.592 111.754C244.592 111.022 244.426 110.44 244.094 110.008C243.762 109.572 243.264 109.354 242.6 109.354C242.148 109.354 241.776 109.456 241.484 109.66C241.192 109.864 240.974 110.146 240.83 110.506C240.686 110.866 240.614 111.282 240.614 111.754C240.614 112.482 240.782 113.066 241.118 113.506C241.454 113.946 241.948 114.166 242.6 114.166ZM250.107 117.7V115.12C249.475 115.22 248.899 115.152 248.379 114.916C247.863 114.676 247.451 114.29 247.143 113.758C246.839 113.222 246.687 112.558 246.687 111.766C246.687 110.97 246.839 110.304 247.143 109.768C247.451 109.232 247.863 108.846 248.379 108.61C248.899 108.37 249.475 108.3 250.107 108.4V106.426H251.079V108.4C251.711 108.3 252.285 108.37 252.801 108.61C253.321 108.846 253.733 109.232 254.037 109.768C254.345 110.304 254.499 110.97 254.499 111.766C254.499 112.558 254.345 113.222 254.037 113.758C253.733 114.29 253.321 114.676 252.801 114.916C252.285 115.152 251.711 115.22 251.079 115.12V117.7H250.107ZM250.107 114.142V109.384C249.783 109.328 249.481 109.338 249.201 109.414C248.921 109.486 248.675 109.622 248.463 109.822C248.251 110.022 248.085 110.284 247.965 110.608C247.845 110.932 247.785 111.318 247.785 111.766C247.785 112.21 247.845 112.594 247.965 112.918C248.089 113.242 248.257 113.504 248.469 113.704C248.685 113.9 248.933 114.036 249.213 114.112C249.493 114.184 249.791 114.194 250.107 114.142ZM251.079 114.142C251.395 114.194 251.693 114.184 251.973 114.112C252.253 114.04 252.501 113.906 252.717 113.71C252.933 113.51 253.101 113.248 253.221 112.924C253.341 112.6 253.401 112.214 253.401 111.766C253.401 111.314 253.341 110.926 253.221 110.602C253.105 110.278 252.941 110.016 252.729 109.816C252.517 109.616 252.269 109.48 251.985 109.408C251.705 109.336 251.403 109.328 251.079 109.384V114.142ZM258.884 117.7V115.12C258.252 115.22 257.676 115.152 257.156 114.916C256.64 114.676 256.228 114.29 255.92 113.758C255.616 113.222 255.464 112.558 255.464 111.766C255.464 110.97 255.616 110.304 255.92 109.768C256.228 109.232 256.64 108.846 257.156 108.61C257.676 108.37 258.252 108.3 258.884 108.4V106.426H259.856V108.4C260.488 108.3 261.062 108.37 261.578 108.61C262.098 108.846 262.51 109.232 262.814 109.768C263.122 110.304 263.276 110.97 263.276 111.766C263.276 112.558 263.122 113.222 262.814 113.758C262.51 114.29 262.098 114.676 261.578 114.916C261.062 115.152 260.488 115.22 259.856 115.12V117.7H258.884ZM258.884 114.142V109.384C258.56 109.328 258.258 109.338 257.978 109.414C257.698 109.486 257.452 109.622 257.24 109.822C257.028 110.022 256.862 110.284 256.742 110.608C256.622 110.932 256.562 111.318 256.562 111.766C256.562 112.21 256.622 112.594 256.742 112.918C256.866 113.242 257.034 113.504 257.246 113.704C257.462 113.9 257.71 114.036 257.99 114.112C258.27 114.184 258.568 114.194 258.884 114.142ZM259.856 114.142C260.172 114.194 260.47 114.184 260.75 114.112C261.03 114.04 261.278 113.906 261.494 113.71C261.71 113.51 261.878 113.248 261.998 112.924C262.118 112.6 262.178 112.214 262.178 111.766C262.178 111.314 262.118 110.926 261.998 110.602C261.882 110.278 261.718 110.016 261.506 109.816C261.294 109.616 261.046 109.48 260.762 109.408C260.482 109.336 260.18 109.328 259.856 109.384V114.142ZM267.41 115.18C266.774 115.18 266.218 115.04 265.742 114.76C265.27 114.476 264.902 114.082 264.638 113.578C264.374 113.07 264.242 112.478 264.242 111.802C264.242 111.094 264.372 110.482 264.632 109.966C264.892 109.446 265.254 109.046 265.718 108.766C266.186 108.482 266.734 108.34 267.362 108.34C268.014 108.34 268.568 108.49 269.024 108.79C269.484 109.09 269.828 109.518 270.056 110.074C270.288 110.63 270.388 111.292 270.356 112.06H269.276V111.676C269.264 110.88 269.102 110.286 268.79 109.894C268.478 109.498 268.014 109.3 267.398 109.3C266.738 109.3 266.236 109.512 265.892 109.936C265.548 110.36 265.376 110.968 265.376 111.76C265.376 112.524 265.548 113.116 265.892 113.536C266.236 113.956 266.726 114.166 267.362 114.166C267.79 114.166 268.162 114.068 268.478 113.872C268.794 113.676 269.042 113.394 269.222 113.026L270.248 113.38C269.996 113.952 269.616 114.396 269.108 114.712C268.604 115.024 268.038 115.18 267.41 115.18ZM265.016 112.06V111.202H269.804V112.06H265.016ZM274.668 115.18C274.06 115.18 273.548 115.03 273.132 114.73C272.716 114.426 272.4 114.016 272.184 113.5C271.972 112.98 271.866 112.398 271.866 111.754C271.866 111.102 271.972 110.518 272.184 110.002C272.4 109.486 272.716 109.08 273.132 108.784C273.552 108.488 274.066 108.34 274.674 108.34C275.274 108.34 275.79 108.49 276.222 108.79C276.658 109.086 276.992 109.492 277.224 110.008C277.456 110.524 277.572 111.106 277.572 111.754C277.572 112.402 277.456 112.984 277.224 113.5C276.992 114.016 276.658 114.426 276.222 114.73C275.79 115.03 275.272 115.18 274.668 115.18ZM271.686 117.88V108.52H272.64V113.29H272.76V117.88H271.686ZM274.536 114.202C274.964 114.202 275.318 114.094 275.598 113.878C275.878 113.662 276.088 113.37 276.228 113.002C276.368 112.63 276.438 112.214 276.438 111.754C276.438 111.298 276.368 110.886 276.228 110.518C276.092 110.15 275.88 109.858 275.592 109.642C275.308 109.426 274.946 109.318 274.506 109.318C274.086 109.318 273.738 109.422 273.462 109.63C273.186 109.834 272.98 110.12 272.844 110.488C272.708 110.852 272.64 111.274 272.64 111.754C272.64 112.226 272.706 112.648 272.838 113.02C272.974 113.388 273.182 113.678 273.462 113.89C273.742 114.098 274.1 114.202 274.536 114.202ZM278.887 115L278.881 108.52H279.955V110.866H280.945C281.133 110.866 281.325 110.87 281.521 110.878C281.717 110.886 281.887 110.904 282.031 110.932C282.367 111 282.661 111.114 282.913 111.274C283.165 111.434 283.361 111.65 283.501 111.922C283.641 112.194 283.711 112.532 283.711 112.936C283.711 113.496 283.565 113.94 283.273 114.268C282.985 114.592 282.607 114.808 282.139 114.916C281.979 114.952 281.795 114.976 281.587 114.988C281.383 114.996 281.189 115 281.005 115H278.887ZM279.955 114.118H281.023C281.143 114.118 281.277 114.114 281.425 114.106C281.573 114.098 281.705 114.078 281.821 114.046C282.025 113.986 282.207 113.868 282.367 113.692C282.531 113.516 282.613 113.264 282.613 112.936C282.613 112.604 282.533 112.348 282.373 112.168C282.217 111.988 282.011 111.87 281.755 111.814C281.639 111.786 281.517 111.768 281.389 111.76C281.261 111.752 281.139 111.748 281.023 111.748H279.955V114.118ZM284.455 115V108.52H285.523V115H284.455Z" fill="#1E1E1E"/>
<rect x="22" y="136" width="201" height="36" rx="18" fill="white"/>
<g filter="url(#filter6_d_3152_7206)">
<g filter="url(#filter7_d_3152_7206)">
<circle cx="44" cy="154" r="10" fill="#3253ED"/>
</g>
<path d="M48 151L42.5 156.5L40 154" stroke="white" stroke-width="2" stroke-linecap="round" stroke-linejoin="round"/>
</g>
<path d="M62.84 159V150.36H69.584V159H68.516V151.374H63.908V159H62.84ZM74.0738 159.18C73.4378 159.18 72.8818 159.04 72.4058 158.76C71.9338 158.476 71.5658 158.082 71.3018 157.578C71.0378 157.07 70.9058 156.478 70.9058 155.802C70.9058 155.094 71.0358 154.482 71.2958 153.966C71.5558 153.446 71.9178 153.046 72.3818 152.766C72.8498 152.482 73.3978 152.34 74.0258 152.34C74.6778 152.34 75.2318 152.49 75.6878 152.79C76.1478 153.09 76.4918 153.518 76.7198 154.074C76.9518 154.63 77.0518 155.292 77.0198 156.06H75.9398V155.676C75.9278 154.88 75.7658 154.286 75.4538 153.894C75.1418 153.498 74.6778 153.3 74.0618 153.3C73.4018 153.3 72.8998 153.512 72.5558 153.936C72.2118 154.36 72.0398 154.968 72.0398 155.76C72.0398 156.524 72.2118 157.116 72.5558 157.536C72.8998 157.956 73.3898 158.166 74.0258 158.166C74.4538 158.166 74.8258 158.068 75.1418 157.872C75.4578 157.676 75.7058 157.394 75.8858 157.026L76.9118 157.38C76.6598 157.952 76.2798 158.396 75.7718 158.712C75.2678 159.024 74.7018 159.18 74.0738 159.18ZM71.6798 156.06V155.202H76.4678V156.06H71.6798ZM81.3316 159.18C80.7236 159.18 80.2116 159.03 79.7956 158.73C79.3796 158.426 79.0636 158.016 78.8476 157.5C78.6356 156.98 78.5296 156.398 78.5296 155.754C78.5296 155.102 78.6356 154.518 78.8476 154.002C79.0636 153.486 79.3796 153.08 79.7956 152.784C80.2156 152.488 80.7296 152.34 81.3376 152.34C81.9376 152.34 82.4536 152.49 82.8856 152.79C83.3216 153.086 83.6556 153.492 83.8876 154.008C84.1196 154.524 84.2356 155.106 84.2356 155.754C84.2356 156.402 84.1196 156.984 83.8876 157.5C83.6556 158.016 83.3216 158.426 82.8856 158.73C82.4536 159.03 81.9356 159.18 81.3316 159.18ZM78.3496 161.88V152.52H79.3036V157.29H79.4236V161.88H78.3496ZM81.1996 158.202C81.6276 158.202 81.9816 158.094 82.2616 157.878C82.5416 157.662 82.7516 157.37 82.8916 157.002C83.0316 156.63 83.1016 156.214 83.1016 155.754C83.1016 155.298 83.0316 154.886 82.8916 154.518C82.7556 154.15 82.5436 153.858 82.2556 153.642C81.9716 153.426 81.6096 153.318 81.1696 153.318C80.7496 153.318 80.4016 153.422 80.1256 153.63C79.8496 153.834 79.6436 154.12 79.5076 154.488C79.3716 154.852 79.3036 155.274 79.3036 155.754C79.3036 156.226 79.3696 156.648 79.5016 157.02C79.6376 157.388 79.8456 157.678 80.1256 157.89C80.4056 158.098 80.7636 158.202 81.1996 158.202ZM88.2809 159.18C87.6249 159.18 87.0669 159.034 86.6069 158.742C86.1509 158.446 85.8029 158.04 85.5629 157.524C85.3229 157.008 85.1989 156.42 85.1909 155.76C85.1989 155.084 85.3249 154.49 85.5689 153.978C85.8169 153.462 86.1709 153.06 86.6309 152.772C87.0909 152.484 87.6449 152.34 88.2929 152.34C88.9769 152.34 89.5649 152.508 90.0569 152.844C90.5529 153.18 90.8849 153.64 91.0529 154.224L89.9969 154.542C89.8609 154.166 89.6389 153.874 89.3309 153.666C89.0269 153.458 88.6769 153.354 88.2809 153.354C87.8369 153.354 87.4709 153.458 87.1829 153.666C86.8949 153.87 86.6809 154.154 86.5409 154.518C86.4009 154.878 86.3289 155.292 86.3249 155.76C86.3329 156.48 86.4989 157.062 86.8229 157.506C87.1509 157.946 87.6369 158.166 88.2809 158.166C88.7049 158.166 89.0569 158.07 89.3369 157.878C89.6169 157.682 89.8289 157.4 89.9729 157.032L91.0529 157.314C90.8289 157.918 90.4789 158.38 90.0029 158.7C89.5269 159.02 88.9529 159.18 88.2809 159.18ZM94.8617 159.18C94.2177 159.18 93.6617 159.034 93.1937 158.742C92.7297 158.45 92.3717 158.046 92.1197 157.53C91.8677 157.014 91.7417 156.422 91.7417 155.754C91.7417 155.074 91.8697 154.478 92.1257 153.966C92.3817 153.454 92.7437 153.056 93.2117 152.772C93.6797 152.484 94.2297 152.34 94.8617 152.34C95.5097 152.34 96.0677 152.486 96.5357 152.778C97.0037 153.066 97.3617 153.468 97.6097 153.984C97.8617 154.496 97.9877 155.086 97.9877 155.754C97.9877 156.43 97.8617 157.026 97.6097 157.542C97.3577 158.054 96.9977 158.456 96.5297 158.748C96.0617 159.036 95.5057 159.18 94.8617 159.18ZM94.8617 158.166C95.5337 158.166 96.0337 157.942 96.3617 157.494C96.6897 157.046 96.8537 156.466 96.8537 155.754C96.8537 155.022 96.6877 154.44 96.3557 154.008C96.0237 153.572 95.5257 153.354 94.8617 153.354C94.4097 153.354 94.0377 153.456 93.7457 153.66C93.4537 153.864 93.2357 154.146 93.0917 154.506C92.9477 154.866 92.8757 155.282 92.8757 155.754C92.8757 156.482 93.0437 157.066 93.3797 157.506C93.7157 157.946 94.2097 158.166 94.8617 158.166ZM99.3028 159V152.52H100.371V155.25H103.779V152.52H104.847V159H103.779V156.264H100.371V159H99.3028ZM108.37 159.18C107.886 159.18 107.48 159.092 107.152 158.916C106.828 158.736 106.582 158.5 106.414 158.208C106.25 157.916 106.168 157.596 106.168 157.248C106.168 156.908 106.232 156.614 106.36 156.366C106.492 156.114 106.676 155.906 106.912 155.742C107.148 155.574 107.43 155.442 107.758 155.346C108.066 155.262 108.41 155.19 108.79 155.13C109.174 155.066 109.562 155.008 109.954 154.956C110.346 154.904 110.712 154.854 111.052 154.806L110.668 155.028C110.68 154.452 110.564 154.026 110.32 153.75C110.08 153.474 109.664 153.336 109.072 153.336C108.68 153.336 108.336 153.426 108.04 153.606C107.748 153.782 107.542 154.07 107.422 154.47L106.408 154.164C106.564 153.596 106.866 153.15 107.314 152.826C107.762 152.502 108.352 152.34 109.084 152.34C109.672 152.34 110.176 152.446 110.596 152.658C111.02 152.866 111.324 153.182 111.508 153.606C111.6 153.806 111.658 154.024 111.682 154.26C111.706 154.492 111.717 154.736 111.717 154.992V159H110.77V157.446L110.992 157.59C110.748 158.114 110.406 158.51 109.966 158.778C109.53 159.046 108.998 159.18 108.37 159.18ZM108.532 158.286C108.916 158.286 109.248 158.218 109.528 158.082C109.812 157.942 110.04 157.76 110.212 157.536C110.384 157.308 110.496 157.06 110.548 156.792C110.608 156.592 110.64 156.37 110.644 156.126C110.652 155.878 110.656 155.688 110.656 155.556L111.028 155.718C110.68 155.766 110.338 155.812 110.002 155.856C109.666 155.9 109.348 155.948 109.048 156C108.748 156.048 108.478 156.106 108.238 156.174C108.062 156.23 107.896 156.302 107.74 156.39C107.588 156.478 107.464 156.592 107.368 156.732C107.275 156.868 107.229 157.038 107.229 157.242C107.229 157.418 107.274 157.586 107.362 157.746C107.454 157.906 107.594 158.036 107.782 158.136C107.974 158.236 108.224 158.286 108.532 158.286ZM112.678 159V158.082C112.918 158.126 113.1 158.118 113.224 158.058C113.352 157.994 113.446 157.884 113.506 157.728C113.57 157.568 113.622 157.368 113.662 157.128C113.73 156.748 113.788 156.324 113.836 155.856C113.888 155.388 113.934 154.876 113.974 154.32C114.018 153.76 114.058 153.16 114.094 152.52H118.624V159H117.556V153.534H115.066C115.042 153.902 115.012 154.28 114.976 154.668C114.944 155.056 114.91 155.434 114.874 155.802C114.838 156.166 114.798 156.506 114.754 156.822C114.714 157.134 114.67 157.404 114.622 157.632C114.546 158.024 114.44 158.338 114.304 158.574C114.168 158.806 113.972 158.956 113.716 159.024C113.46 159.096 113.114 159.088 112.678 159ZM120.309 159L120.303 152.52H121.377V154.866H122.775C122.963 154.866 123.155 154.87 123.351 154.878C123.547 154.886 123.717 154.904 123.861 154.932C124.197 154.996 124.491 155.108 124.743 155.268C124.995 155.428 125.191 155.646 125.331 155.922C125.471 156.194 125.541 156.532 125.541 156.936C125.541 157.496 125.395 157.94 125.103 158.268C124.815 158.592 124.437 158.808 123.969 158.916C123.809 158.952 123.625 158.976 123.417 158.988C123.213 158.996 123.019 159 122.835 159H120.309ZM121.377 158.118H122.853C122.973 158.118 123.107 158.114 123.255 158.106C123.403 158.098 123.535 158.078 123.651 158.046C123.855 157.986 124.037 157.868 124.197 157.692C124.361 157.516 124.443 157.264 124.443 156.936C124.443 156.604 124.363 156.348 124.203 156.168C124.047 155.988 123.841 155.87 123.585 155.814C123.469 155.786 123.347 155.768 123.219 155.76C123.091 155.752 122.969 155.748 122.853 155.748H121.377V158.118ZM126.678 159V152.52H127.746V155.25H131.154V152.52H132.222V159H131.154V156.264H127.746V159H126.678ZM133.903 159L133.897 152.52H134.971V154.866H135.961C136.149 154.866 136.341 154.87 136.537 154.878C136.733 154.886 136.903 154.904 137.047 154.932C137.383 155 137.677 155.114 137.929 155.274C138.181 155.434 138.377 155.65 138.517 155.922C138.657 156.194 138.727 156.532 138.727 156.936C138.727 157.496 138.581 157.94 138.289 158.268C138.001 158.592 137.623 158.808 137.155 158.916C136.995 158.952 136.811 158.976 136.603 158.988C136.399 158.996 136.205 159 136.021 159H133.903ZM134.971 158.118H136.039C136.159 158.118 136.293 158.114 136.441 158.106C136.589 158.098 136.721 158.078 136.837 158.046C137.041 157.986 137.223 157.868 137.383 157.692C137.547 157.516 137.629 157.264 137.629 156.936C137.629 156.604 137.549 156.348 137.389 156.168C137.233 155.988 137.027 155.87 136.771 155.814C136.655 155.786 136.533 155.768 136.405 155.76C136.277 155.752 136.155 155.748 136.039 155.748H134.971V158.118ZM139.471 159V152.52H140.539V159H139.471ZM145.013 151.764C144.713 151.764 144.439 151.69 144.191 151.542C143.943 151.394 143.745 151.198 143.597 150.954C143.449 150.706 143.375 150.43 143.375 150.126H144.239C144.239 150.338 144.315 150.52 144.467 150.672C144.619 150.824 144.801 150.9 145.013 150.9C145.229 150.9 145.411 150.824 145.559 150.672C145.711 150.52 145.787 150.338 145.787 150.126H146.651C146.651 150.43 146.577 150.706 146.429 150.954C146.285 151.198 146.087 151.394 145.835 151.542C145.587 151.69 145.313 151.764 145.013 151.764ZM147.527 152.52V159H146.495V154.224L143.099 159H142.217V152.52H143.249V157.23L146.651 152.52H147.527ZM151.604 159V152.52H152.522L154.982 157.548L157.442 152.52H158.36V159H157.328V154.746L155.264 159H154.7L152.636 154.746V159H151.604ZM162.843 159.18C162.207 159.18 161.651 159.04 161.175 158.76C160.703 158.476 160.335 158.082 160.071 157.578C159.807 157.07 159.675 156.478 159.675 155.802C159.675 155.094 159.805 154.482 160.065 153.966C160.325 153.446 160.687 153.046 161.151 152.766C161.619 152.482 162.167 152.34 162.795 152.34C163.447 152.34 164.001 152.49 164.457 152.79C164.917 153.09 165.261 153.518 165.489 154.074C165.721 154.63 165.821 155.292 165.789 156.06H164.709V155.676C164.697 154.88 164.535 154.286 164.223 153.894C163.911 153.498 163.447 153.3 162.831 153.3C162.171 153.3 161.669 153.512 161.325 153.936C160.981 154.36 160.809 154.968 160.809 155.76C160.809 156.524 160.981 157.116 161.325 157.536C161.669 157.956 162.159 158.166 162.795 158.166C163.223 158.166 163.595 158.068 163.911 157.872C164.227 157.676 164.475 157.394 164.655 157.026L165.681 157.38C165.429 157.952 165.049 158.396 164.541 158.712C164.037 159.024 163.471 159.18 162.843 159.18ZM160.449 156.06V155.202H165.237V156.06H160.449ZM167.119 159V152.52H168.187V155.25H171.595V152.52H172.663V159H171.595V156.264H168.187V159H167.119ZM177.152 159.18C176.516 159.18 175.96 159.04 175.484 158.76C175.012 158.476 174.644 158.082 174.38 157.578C174.116 157.07 173.984 156.478 173.984 155.802C173.984 155.094 174.114 154.482 174.374 153.966C174.634 153.446 174.996 153.046 175.46 152.766C175.928 152.482 176.476 152.34 177.104 152.34C177.756 152.34 178.31 152.49 178.766 152.79C179.226 153.09 179.57 153.518 179.798 154.074C180.03 154.63 180.13 155.292 180.098 156.06H179.018V155.676C179.006 154.88 178.844 154.286 178.532 153.894C178.22 153.498 177.756 153.3 177.14 153.3C176.48 153.3 175.978 153.512 175.634 153.936C175.29 154.36 175.118 154.968 175.118 155.76C175.118 156.524 175.29 157.116 175.634 157.536C175.978 157.956 176.468 158.166 177.104 158.166C177.532 158.166 177.904 158.068 178.22 157.872C178.536 157.676 178.784 157.394 178.964 157.026L179.99 157.38C179.738 157.952 179.358 158.396 178.85 158.712C178.346 159.024 177.78 159.18 177.152 159.18ZM174.758 156.06V155.202H179.546V156.06H174.758ZM180.954 160.44V158.118C181.318 158.118 181.578 158 181.734 157.764C181.89 157.524 182.016 157.13 182.112 156.582C182.176 156.238 182.228 155.87 182.268 155.478C182.308 155.086 182.342 154.65 182.37 154.17C182.402 153.686 182.432 153.136 182.46 152.52H186.924V158.118H187.554V160.44H186.534V159H181.974V160.44H180.954ZM182.598 158.118H185.856V153.402H183.426C183.414 153.686 183.398 153.984 183.378 154.296C183.358 154.604 183.334 154.912 183.306 155.22C183.282 155.528 183.252 155.82 183.216 156.096C183.184 156.368 183.146 156.612 183.102 156.828C183.05 157.128 182.99 157.382 182.922 157.59C182.854 157.798 182.746 157.974 182.598 158.118ZM188.038 159L190.654 155.76L188.164 152.52H189.352L191.758 155.7V152.52H192.73V155.7L195.136 152.52H196.324L193.834 155.76L196.45 159H195.208L192.73 155.82V159H191.758V155.82L189.28 159H188.038ZM199.98 159.18C199.344 159.18 198.788 159.04 198.312 158.76C197.84 158.476 197.472 158.082 197.208 157.578C196.944 157.07 196.812 156.478 196.812 155.802C196.812 155.094 196.942 154.482 197.202 153.966C197.462 153.446 197.824 153.046 198.288 152.766C198.756 152.482 199.304 152.34 199.932 152.34C200.584 152.34 201.138 152.49 201.594 152.79C202.054 153.09 202.398 153.518 202.626 154.074C202.858 154.63 202.958 155.292 202.926 156.06H201.846V155.676C201.834 154.88 201.672 154.286 201.36 153.894C201.048 153.498 200.584 153.3 199.968 153.3C199.308 153.3 198.806 153.512 198.462 153.936C198.118 154.36 197.946 154.968 197.946 155.76C197.946 156.524 198.118 157.116 198.462 157.536C198.806 157.956 199.296 158.166 199.932 158.166C200.36 158.166 200.732 158.068 201.048 157.872C201.364 157.676 201.612 157.394 201.792 157.026L202.818 157.38C202.566 157.952 202.186 158.396 201.678 158.712C201.174 159.024 200.608 159.18 199.98 159.18ZM197.586 156.06V155.202H202.374V156.06H197.586ZM207.238 159.18C206.63 159.18 206.118 159.03 205.702 158.73C205.286 158.426 204.97 158.016 204.754 157.5C204.542 156.98 204.436 156.398 204.436 155.754C204.436 155.102 204.542 154.518 204.754 154.002C204.97 153.486 205.286 153.08 205.702 152.784C206.122 152.488 206.636 152.34 207.244 152.34C207.844 152.34 208.36 152.49 208.792 152.79C209.228 153.086 209.562 153.492 209.794 154.008C210.026 154.524 210.142 155.106 210.142 155.754C210.142 156.402 210.026 156.984 209.794 157.5C209.562 158.016 209.228 158.426 208.792 158.73C208.36 159.03 207.842 159.18 207.238 159.18ZM204.256 161.88V152.52H205.21V157.29H205.33V161.88H204.256ZM207.106 158.202C207.534 158.202 207.888 158.094 208.168 157.878C208.448 157.662 208.658 157.37 208.798 157.002C208.938 156.63 209.008 156.214 209.008 155.754C209.008 155.298 208.938 154.886 208.798 154.518C208.662 154.15 208.45 153.858 208.162 153.642C207.878 153.426 207.516 153.318 207.076 153.318C206.656 153.318 206.308 153.422 206.032 153.63C205.756 153.834 205.55 154.12 205.414 154.488C205.278 154.852 205.21 155.274 205.21 155.754C205.21 156.226 205.276 156.648 205.408 157.02C205.544 157.388 205.752 157.678 206.032 157.89C206.312 158.098 206.67 158.202 207.106 158.202Z" fill="#1E1E1E"/>
<rect x="231" y="136" width="156" height="36" rx="18" fill="white"/>
<g filter="url(#filter8_d_3152_7206)">
<g filter="url(#filter9_d_3152_7206)">
<circle cx="253" cy="154" r="10" fill="#3253ED"/>
</g>
<path d="M257 151L251.5 156.5L249 154" stroke="white" stroke-width="2" stroke-linecap="round" stroke-linejoin="round"/>
</g>
<path d="M271.84 159V150.36H277.324V151.374H272.908V153.672H275.254C275.338 153.672 275.438 153.676 275.554 153.684C275.67 153.688 275.782 153.698 275.89 153.714C276.346 153.77 276.732 153.922 277.048 154.17C277.368 154.414 277.61 154.724 277.774 155.1C277.942 155.476 278.026 155.888 278.026 156.336C278.026 156.78 277.944 157.19 277.78 157.566C277.616 157.942 277.374 158.254 277.054 158.502C276.738 158.746 276.35 158.898 275.89 158.958C275.782 158.97 275.67 158.98 275.554 158.988C275.438 158.996 275.338 159 275.254 159H271.84ZM272.908 157.986H275.218C275.294 157.986 275.38 157.982 275.476 157.974C275.576 157.966 275.67 157.954 275.758 157.938C276.174 157.854 276.474 157.656 276.658 157.344C276.842 157.028 276.934 156.692 276.934 156.336C276.934 155.972 276.842 155.636 276.658 155.328C276.474 155.016 276.174 154.818 275.758 154.734C275.67 154.714 275.576 154.702 275.476 154.698C275.38 154.69 275.294 154.686 275.218 154.686H272.908V157.986ZM279.223 159L279.217 152.52H280.291V154.866H281.281C281.469 154.866 281.661 154.87 281.857 154.878C282.053 154.886 282.223 154.904 282.367 154.932C282.703 155 282.997 155.114 283.249 155.274C283.501 155.434 283.697 155.65 283.837 155.922C283.977 156.194 284.047 156.532 284.047 156.936C284.047 157.496 283.901 157.94 283.609 158.268C283.321 158.592 282.943 158.808 282.475 158.916C282.315 158.952 282.131 158.976 281.923 158.988C281.719 158.996 281.525 159 281.341 159H279.223ZM280.291 158.118H281.359C281.479 158.118 281.613 158.114 281.761 158.106C281.909 158.098 282.041 158.078 282.157 158.046C282.361 157.986 282.543 157.868 282.703 157.692C282.867 157.516 282.949 157.264 282.949 156.936C282.949 156.604 282.869 156.348 282.709 156.168C282.553 155.988 282.347 155.87 282.091 155.814C281.975 155.786 281.853 155.768 281.725 155.76C281.597 155.752 281.475 155.748 281.359 155.748H280.291V158.118ZM284.791 159V152.52H285.859V159H284.791ZM290.273 159.18C289.617 159.18 289.059 159.034 288.599 158.742C288.143 158.446 287.795 158.04 287.555 157.524C287.315 157.008 287.191 156.42 287.183 155.76C287.191 155.084 287.317 154.49 287.561 153.978C287.809 153.462 288.163 153.06 288.623 152.772C289.083 152.484 289.637 152.34 290.285 152.34C290.969 152.34 291.557 152.508 292.049 152.844C292.545 153.18 292.877 153.64 293.045 154.224L291.989 154.542C291.853 154.166 291.631 153.874 291.323 153.666C291.019 153.458 290.669 153.354 290.273 153.354C289.829 153.354 289.463 153.458 289.175 153.666C288.887 153.87 288.673 154.154 288.533 154.518C288.393 154.878 288.321 155.292 288.317 155.76C288.325 156.48 288.491 157.062 288.815 157.506C289.143 157.946 289.629 158.166 290.273 158.166C290.697 158.166 291.049 158.07 291.329 157.878C291.609 157.682 291.821 157.4 291.965 157.032L293.045 157.314C292.821 157.918 292.471 158.38 291.995 158.7C291.519 159.02 290.945 159.18 290.273 159.18ZM295.869 159V153.492H293.613V152.52H299.193V153.492H296.937V159H295.869ZM303.304 159.18C302.696 159.18 302.184 159.03 301.768 158.73C301.352 158.426 301.036 158.016 300.82 157.5C300.608 156.98 300.502 156.398 300.502 155.754C300.502 155.102 300.608 154.518 300.82 154.002C301.036 153.486 301.352 153.08 301.768 152.784C302.188 152.488 302.702 152.34 303.31 152.34C303.91 152.34 304.426 152.49 304.858 152.79C305.294 153.086 305.628 153.492 305.86 154.008C306.092 154.524 306.208 155.106 306.208 155.754C306.208 156.402 306.092 156.984 305.86 157.5C305.628 158.016 305.294 158.426 304.858 158.73C304.426 159.03 303.908 159.18 303.304 159.18ZM300.322 161.88V152.52H301.276V157.29H301.396V161.88H300.322ZM303.172 158.202C303.6 158.202 303.954 158.094 304.234 157.878C304.514 157.662 304.724 157.37 304.864 157.002C305.004 156.63 305.074 156.214 305.074 155.754C305.074 155.298 305.004 154.886 304.864 154.518C304.728 154.15 304.516 153.858 304.228 153.642C303.944 153.426 303.582 153.318 303.142 153.318C302.722 153.318 302.374 153.422 302.098 153.63C301.822 153.834 301.616 154.12 301.48 154.488C301.344 154.852 301.276 155.274 301.276 155.754C301.276 156.226 301.342 156.648 301.474 157.02C301.61 157.388 301.818 157.678 302.098 157.89C302.378 158.098 302.736 158.202 303.172 158.202ZM307.524 159L307.518 152.52H308.592V154.866H309.582C309.77 154.866 309.962 154.87 310.158 154.878C310.354 154.886 310.524 154.904 310.668 154.932C311.004 155 311.298 155.114 311.55 155.274C311.802 155.434 311.998 155.65 312.138 155.922C312.278 156.194 312.348 156.532 312.348 156.936C312.348 157.496 312.202 157.94 311.91 158.268C311.622 158.592 311.244 158.808 310.776 158.916C310.616 158.952 310.432 158.976 310.224 158.988C310.02 158.996 309.826 159 309.642 159H307.524ZM308.592 158.118H309.66C309.78 158.118 309.914 158.114 310.062 158.106C310.21 158.098 310.342 158.078 310.458 158.046C310.662 157.986 310.844 157.868 311.004 157.692C311.168 157.516 311.25 157.264 311.25 156.936C311.25 156.604 311.17 156.348 311.01 156.168C310.854 155.988 310.648 155.87 310.392 155.814C310.276 155.786 310.154 155.768 310.026 155.76C309.898 155.752 309.776 155.748 309.66 155.748H308.592V158.118ZM313.092 159V152.52H314.16V159H313.092ZM318.652 159.18C318.016 159.18 317.46 159.04 316.984 158.76C316.512 158.476 316.144 158.082 315.88 157.578C315.616 157.07 315.484 156.478 315.484 155.802C315.484 155.094 315.614 154.482 315.874 153.966C316.134 153.446 316.496 153.046 316.96 152.766C317.428 152.482 317.976 152.34 318.604 152.34C319.256 152.34 319.81 152.49 320.266 152.79C320.726 153.09 321.07 153.518 321.298 154.074C321.53 154.63 321.63 155.292 321.598 156.06H320.518V155.676C320.506 154.88 320.344 154.286 320.032 153.894C319.72 153.498 319.256 153.3 318.64 153.3C317.98 153.3 317.478 153.512 317.134 153.936C316.79 154.36 316.618 154.968 316.618 155.76C316.618 156.524 316.79 157.116 317.134 157.536C317.478 157.956 317.968 158.166 318.604 158.166C319.032 158.166 319.404 158.068 319.72 157.872C320.036 157.676 320.284 157.394 320.464 157.026L321.49 157.38C321.238 157.952 320.858 158.396 320.35 158.712C319.846 159.024 319.28 159.18 318.652 159.18ZM316.258 156.06V155.202H321.046V156.06H316.258ZM325.33 159V152.52H328.09C328.254 152.52 328.43 152.53 328.618 152.55C328.81 152.566 328.984 152.596 329.14 152.64C329.488 152.732 329.774 152.922 329.998 153.21C330.226 153.494 330.34 153.854 330.34 154.29C330.34 154.534 330.302 154.746 330.226 154.926C330.154 155.106 330.05 155.262 329.914 155.394C329.854 155.454 329.788 155.508 329.716 155.556C329.644 155.604 329.572 155.642 329.5 155.67C329.64 155.694 329.782 155.748 329.926 155.832C330.154 155.956 330.332 156.13 330.46 156.354C330.592 156.578 330.658 156.864 330.658 157.212C330.658 157.652 330.552 158.016 330.34 158.304C330.128 158.588 329.836 158.784 329.464 158.892C329.308 158.936 329.136 158.966 328.948 158.982C328.76 158.994 328.578 159 328.402 159H325.33ZM326.41 158.13H328.342C328.426 158.13 328.526 158.122 328.642 158.106C328.762 158.09 328.868 158.07 328.96 158.046C329.168 157.986 329.318 157.874 329.41 157.71C329.506 157.546 329.554 157.368 329.554 157.176C329.554 156.92 329.482 156.712 329.338 156.552C329.198 156.392 329.012 156.292 328.78 156.252C328.696 156.228 328.604 156.214 328.504 156.21C328.408 156.206 328.322 156.204 328.246 156.204H326.41V158.13ZM326.41 155.322H328.018C328.13 155.322 328.248 155.316 328.372 155.304C328.496 155.288 328.604 155.262 328.696 155.226C328.88 155.158 329.014 155.046 329.098 154.89C329.186 154.73 329.23 154.556 329.23 154.368C329.23 154.16 329.182 153.978 329.086 153.822C328.994 153.662 328.852 153.552 328.66 153.492C328.532 153.444 328.388 153.418 328.228 153.414C328.072 153.406 327.972 153.402 327.928 153.402H326.41V155.322ZM331.863 159L331.857 152.52H332.931V154.866H333.921C334.109 154.866 334.301 154.87 334.497 154.878C334.693 154.886 334.863 154.904 335.007 154.932C335.343 155 335.637 155.114 335.889 155.274C336.141 155.434 336.337 155.65 336.477 155.922C336.617 156.194 336.687 156.532 336.687 156.936C336.687 157.496 336.541 157.94 336.249 158.268C335.961 158.592 335.583 158.808 335.115 158.916C334.955 158.952 334.771 158.976 334.563 158.988C334.359 158.996 334.165 159 333.981 159H331.863ZM332.931 158.118H333.999C334.119 158.118 334.253 158.114 334.401 158.106C334.549 158.098 334.681 158.078 334.797 158.046C335.001 157.986 335.183 157.868 335.343 157.692C335.507 157.516 335.589 157.264 335.589 156.936C335.589 156.604 335.509 156.348 335.349 156.168C335.193 155.988 334.987 155.87 334.731 155.814C334.615 155.786 334.493 155.768 334.365 155.76C334.237 155.752 334.115 155.748 333.999 155.748H332.931V158.118ZM337.431 159V152.52H338.499V159H337.431ZM340.178 159V152.52H345.488V159H344.42V153.534H341.246V159H340.178ZM346.568 159V158.082C346.808 158.126 346.99 158.118 347.114 158.058C347.242 157.994 347.336 157.884 347.396 157.728C347.46 157.568 347.512 157.368 347.552 157.128C347.62 156.748 347.678 156.324 347.726 155.856C347.778 155.388 347.824 154.876 347.864 154.32C347.908 153.76 347.948 153.16 347.984 152.52H352.514V159H351.446V153.534H348.956C348.932 153.902 348.902 154.28 348.866 154.668C348.834 155.056 348.8 155.434 348.764 155.802C348.728 156.166 348.688 156.506 348.644 156.822C348.604 157.134 348.56 157.404 348.512 157.632C348.436 158.024 348.33 158.338 348.194 158.574C348.058 158.806 347.862 158.956 347.606 159.024C347.35 159.096 347.004 159.088 346.568 159ZM356.041 159.18C355.557 159.18 355.151 159.092 354.823 158.916C354.499 158.736 354.253 158.5 354.085 158.208C353.921 157.916 353.839 157.596 353.839 157.248C353.839 156.908 353.903 156.614 354.031 156.366C354.163 156.114 354.347 155.906 354.583 155.742C354.819 155.574 355.101 155.442 355.429 155.346C355.737 155.262 356.081 155.19 356.461 155.13C356.845 155.066 357.233 155.008 357.625 154.956C358.017 154.904 358.383 154.854 358.723 154.806L358.339 155.028C358.351 154.452 358.235 154.026 357.991 153.75C357.751 153.474 357.335 153.336 356.743 153.336C356.351 153.336 356.007 153.426 355.711 153.606C355.419 153.782 355.213 154.07 355.093 154.47L354.079 154.164C354.235 153.596 354.537 153.15 354.985 152.826C355.433 152.502 356.023 152.34 356.755 152.34C357.343 152.34 357.847 152.446 358.267 152.658C358.691 152.866 358.995 153.182 359.179 153.606C359.271 153.806 359.329 154.024 359.353 154.26C359.377 154.492 359.389 154.736 359.389 154.992V159H358.441V157.446L358.663 157.59C358.419 158.114 358.077 158.51 357.637 158.778C357.201 159.046 356.669 159.18 356.041 159.18ZM356.203 158.286C356.587 158.286 356.919 158.218 357.199 158.082C357.483 157.942 357.711 157.76 357.883 157.536C358.055 157.308 358.167 157.06 358.219 156.792C358.279 156.592 358.311 156.37 358.315 156.126C358.323 155.878 358.327 155.688 358.327 155.556L358.699 155.718C358.351 155.766 358.009 155.812 357.673 155.856C357.337 155.9 357.019 155.948 356.719 156C356.419 156.048 356.149 156.106 355.909 156.174C355.733 156.23 355.567 156.302 355.411 156.39C355.259 156.478 355.135 156.592 355.039 156.732C354.947 156.868 354.901 157.038 354.901 157.242C354.901 157.418 354.945 157.586 355.033 157.746C355.125 157.906 355.265 158.036 355.453 158.136C355.645 158.236 355.895 158.286 356.203 158.286ZM362.665 159V153.492H360.409V152.52H365.989V153.492H363.733V159H362.665ZM367.125 159L367.119 152.52H368.193V154.866H369.183C369.371 154.866 369.563 154.87 369.759 154.878C369.955 154.886 370.125 154.904 370.269 154.932C370.605 155 370.899 155.114 371.151 155.274C371.403 155.434 371.599 155.65 371.739 155.922C371.879 156.194 371.949 156.532 371.949 156.936C371.949 157.496 371.803 157.94 371.511 158.268C371.223 158.592 370.845 158.808 370.377 158.916C370.217 158.952 370.033 158.976 369.825 158.988C369.621 158.996 369.427 159 369.243 159H367.125ZM368.193 158.118H369.261C369.381 158.118 369.515 158.114 369.663 158.106C369.811 158.098 369.943 158.078 370.059 158.046C370.263 157.986 370.445 157.868 370.605 157.692C370.769 157.516 370.851 157.264 370.851 156.936C370.851 156.604 370.771 156.348 370.611 156.168C370.455 155.988 370.249 155.87 369.993 155.814C369.877 155.786 369.755 155.768 369.627 155.76C369.499 155.752 369.377 155.748 369.261 155.748H368.193V158.118ZM372.693 159V152.52H373.761V159H372.693Z" fill="#1E1E1E"/>
<g filter="url(#filter10_f_3152_7206)">
<path d="M204 196C316.666 196 408 220.624 408 251C408 281.376 316.666 306 204 306C91.3339 306 0 281.376 0 251C0 220.624 91.3339 196 204 196ZM431 -23C461.376 -23 486 26.2487 486 87C486 147.751 461.376 197 431 197C400.624 197 376 147.751 376 87C376 26.2487 400.624 -23 431 -23ZM167 -88C279.666 -88 371 -63.3757 371 -33C371 -2.62434 279.666 22 167 22C99.1479 22 39.0329 13.0689 1.94531 -0.670898C11.8659 19.2264 18 46.6805 18 77C18 137.751 -6.62434 187 -37 187C-67.3757 187 -92 137.751 -92 77C-92 16.2487 -67.3757 -33 -37 -33C-37 -63.3757 54.3339 -88 167 -88Z" fill="white"/>
</g>
</g>
<defs>
<filter id="filter0_d_3152_7206" x="58.5" y="52" width="28" height="28" filterUnits="userSpaceOnUse" color-interpolation-filters="sRGB">
<feFlood flood-opacity="0" result="BackgroundImageFix"/>
<feColorMatrix in="SourceAlpha" type="matrix" values="0 0 0 0 0 0 0 0 0 0 0 0 0 0 0 0 0 0 127 0" result="hardAlpha"/>
<feOffset/>
<feGaussianBlur stdDeviation="2"/>
<feComposite in2="hardAlpha" operator="out"/>
<feColorMatrix type="matrix" values="0 0 0 0 0 0 0 0 0 0 0 0 0 0 0 0 0 0 0.25 0"/>
<feBlend mode="normal" in2="BackgroundImageFix" result="effect1_dropShadow_3152_7206"/>
<feBlend mode="normal" in="SourceGraphic" in2="effect1_dropShadow_3152_7206" result="shape"/>
</filter>
<filter id="filter1_d_3152_7206" x="56.5" y="50" width="32" height="32" filterUnits="userSpaceOnUse" color-interpolation-filters="sRGB">
<feFlood flood-opacity="0" result="BackgroundImageFix"/>
<feColorMatrix in="SourceAlpha" type="matrix" values="0 0 0 0 0 0 0 0 0 0 0 0 0 0 0 0 0 0 127 0" result="hardAlpha"/>
<feMorphology radius="2" operator="dilate" in="SourceAlpha" result="effect1_dropShadow_3152_7206"/>
<feOffset/>
<feGaussianBlur stdDeviation="2"/>
<feComposite in2="hardAlpha" operator="out"/>
<feColorMatrix type="matrix" values="0 0 0 0 0.196078 0 0 0 0 0.32549 0 0 0 0 0.929412 0 0 0 0.15 0"/>
<feBlend mode="normal" in2="BackgroundImageFix" result="effect1_dropShadow_3152_7206"/>
<feBlend mode="normal" in="SourceGraphic" in2="effect1_dropShadow_3152_7206" result="shape"/>
</filter>
<filter id="filter2_d_3152_7206" x="223.5" y="52" width="28" height="28" filterUnits="userSpaceOnUse" color-interpolation-filters="sRGB">
<feFlood flood-opacity="0" result="BackgroundImageFix"/>
<feColorMatrix in="SourceAlpha" type="matrix" values="0 0 0 0 0 0 0 0 0 0 0 0 0 0 0 0 0 0 127 0" result="hardAlpha"/>
<feOffset/>
<feGaussianBlur stdDeviation="2"/>
<feComposite in2="hardAlpha" operator="out"/>
<feColorMatrix type="matrix" values="0 0 0 0 0 0 0 0 0 0 0 0 0 0 0 0 0 0 0.25 0"/>
<feBlend mode="normal" in2="BackgroundImageFix" result="effect1_dropShadow_3152_7206"/>
<feBlend mode="normal" in="SourceGraphic" in2="effect1_dropShadow_3152_7206" result="shape"/>
</filter>
<filter id="filter3_d_3152_7206" x="221.5" y="50" width="32" height="32" filterUnits="userSpaceOnUse" color-interpolation-filters="sRGB">
<feFlood flood-opacity="0" result="BackgroundImageFix"/>
<feColorMatrix in="SourceAlpha" type="matrix" values="0 0 0 0 0 0 0 0 0 0 0 0 0 0 0 0 0 0 127 0" result="hardAlpha"/>
<feMorphology radius="2" operator="dilate" in="SourceAlpha" result="effect1_dropShadow_3152_7206"/>
<feOffset/>
<feGaussianBlur stdDeviation="2"/>
<feComposite in2="hardAlpha" operator="out"/>
<feColorMatrix type="matrix" values="0 0 0 0 0.196078 0 0 0 0 0.32549 0 0 0 0 0.929412 0 0 0 0.15 0"/>
<feBlend mode="normal" in2="BackgroundImageFix" result="effect1_dropShadow_3152_7206"/>
<feBlend mode="normal" in="SourceGraphic" in2="effect1_dropShadow_3152_7206" result="shape"/>
</filter>
<filter id="filter4_d_3152_7206" x="118.5" y="96" width="28" height="28" filterUnits="userSpaceOnUse" color-interpolation-filters="sRGB">
<feFlood flood-opacity="0" result="BackgroundImageFix"/>
<feColorMatrix in="SourceAlpha" type="matrix" values="0 0 0 0 0 0 0 0 0 0 0 0 0 0 0 0 0 0 127 0" result="hardAlpha"/>
<feOffset/>
<feGaussianBlur stdDeviation="2"/>
<feComposite in2="hardAlpha" operator="out"/>
<feColorMatrix type="matrix" values="0 0 0 0 0 0 0 0 0 0 0 0 0 0 0 0 0 0 0.25 0"/>
<feBlend mode="normal" in2="BackgroundImageFix" result="effect1_dropShadow_3152_7206"/>
<feBlend mode="normal" in="SourceGraphic" in2="effect1_dropShadow_3152_7206" result="shape"/>
</filter>
<filter id="filter5_d_3152_7206" x="116.5" y="94" width="32" height="32" filterUnits="userSpaceOnUse" color-interpolation-filters="sRGB">
<feFlood flood-opacity="0" result="BackgroundImageFix"/>
<feColorMatrix in="SourceAlpha" type="matrix" values="0 0 0 0 0 0 0 0 0 0 0 0 0 0 0 0 0 0 127 0" result="hardAlpha"/>
<feMorphology radius="2" operator="dilate" in="SourceAlpha" result="effect1_dropShadow_3152_7206"/>
<feOffset/>
<feGaussianBlur stdDeviation="2"/>
<feComposite in2="hardAlpha" operator="out"/>
<feColorMatrix type="matrix" values="0 0 0 0 0.196078 0 0 0 0 0.32549 0 0 0 0 0.929412 0 0 0 0.15 0"/>
<feBlend mode="normal" in2="BackgroundImageFix" result="effect1_dropShadow_3152_7206"/>
<feBlend mode="normal" in="SourceGraphic" in2="effect1_dropShadow_3152_7206" result="shape"/>
</filter>
<filter id="filter6_d_3152_7206" x="30" y="140" width="28" height="28" filterUnits="userSpaceOnUse" color-interpolation-filters="sRGB">
<feFlood flood-opacity="0" result="BackgroundImageFix"/>
<feColorMatrix in="SourceAlpha" type="matrix" values="0 0 0 0 0 0 0 0 0 0 0 0 0 0 0 0 0 0 127 0" result="hardAlpha"/>
<feOffset/>
<feGaussianBlur stdDeviation="2"/>
<feComposite in2="hardAlpha" operator="out"/>
<feColorMatrix type="matrix" values="0 0 0 0 0 0 0 0 0 0 0 0 0 0 0 0 0 0 0.25 0"/>
<feBlend mode="normal" in2="BackgroundImageFix" result="effect1_dropShadow_3152_7206"/>
<feBlend mode="normal" in="SourceGraphic" in2="effect1_dropShadow_3152_7206" result="shape"/>
</filter>
<filter id="filter7_d_3152_7206" x="28" y="138" width="32" height="32" filterUnits="userSpaceOnUse" color-interpolation-filters="sRGB">
<feFlood flood-opacity="0" result="BackgroundImageFix"/>
<feColorMatrix in="SourceAlpha" type="matrix" values="0 0 0 0 0 0 0 0 0 0 0 0 0 0 0 0 0 0 127 0" result="hardAlpha"/>
<feMorphology radius="2" operator="dilate" in="SourceAlpha" result="effect1_dropShadow_3152_7206"/>
<feOffset/>
<feGaussianBlur stdDeviation="2"/>
<feComposite in2="hardAlpha" operator="out"/>
<feColorMatrix type="matrix" values="0 0 0 0 0.196078 0 0 0 0 0.32549 0 0 0 0 0.929412 0 0 0 0.15 0"/>
<feBlend mode="normal" in2="BackgroundImageFix" result="effect1_dropShadow_3152_7206"/>
<feBlend mode="normal" in="SourceGraphic" in2="effect1_dropShadow_3152_7206" result="shape"/>
</filter>
<filter id="filter8_d_3152_7206" x="239" y="140" width="28" height="28" filterUnits="userSpaceOnUse" color-interpolation-filters="sRGB">
<feFlood flood-opacity="0" result="BackgroundImageFix"/>
<feColorMatrix in="SourceAlpha" type="matrix" values="0 0 0 0 0 0 0 0 0 0 0 0 0 0 0 0 0 0 127 0" result="hardAlpha"/>
<feOffset/>
<feGaussianBlur stdDeviation="2"/>
<feComposite in2="hardAlpha" operator="out"/>
<feColorMatrix type="matrix" values="0 0 0 0 0 0 0 0 0 0 0 0 0 0 0 0 0 0 0.25 0"/>
<feBlend mode="normal" in2="BackgroundImageFix" result="effect1_dropShadow_3152_7206"/>
<feBlend mode="normal" in="SourceGraphic" in2="effect1_dropShadow_3152_7206" result="shape"/>
</filter>
<filter id="filter9_d_3152_7206" x="237" y="138" width="32" height="32" filterUnits="userSpaceOnUse" color-interpolation-filters="sRGB">
<feFlood flood-opacity="0" result="BackgroundImageFix"/>
<feColorMatrix in="SourceAlpha" type="matrix" values="0 0 0 0 0 0 0 0 0 0 0 0 0 0 0 0 0 0 127 0" result="hardAlpha"/>
<feMorphology radius="2" operator="dilate" in="SourceAlpha" result="effect1_dropShadow_3152_7206"/>
<feOffset/>
<feGaussianBlur stdDeviation="2"/>
<feComposite in2="hardAlpha" operator="out"/>
<feColorMatrix type="matrix" values="0 0 0 0 0.196078 0 0 0 0 0.32549 0 0 0 0 0.929412 0 0 0 0.15 0"/>
<feBlend mode="normal" in2="BackgroundImageFix" result="effect1_dropShadow_3152_7206"/>
<feBlend mode="normal" in="SourceGraphic" in2="effect1_dropShadow_3152_7206" result="shape"/>
</filter>
<filter id="filter10_f_3152_7206" x="-192" y="-188" width="778" height="594" filterUnits="userSpaceOnUse" color-interpolation-filters="sRGB">
<feFlood flood-opacity="0" result="BackgroundImageFix"/>
<feBlend mode="normal" in="SourceGraphic" in2="BackgroundImageFix" result="shape"/>
<feGaussianBlur stdDeviation="50" result="effect1_foregroundBlur_3152_7206"/>
</filter>
<clipPath id="clip0_3152_7206">
<rect width="408" height="220" rx="12" fill="white"/>
</clipPath>
</defs>
</svg>
