<svg width="408" height="220" viewBox="0 0 408 220" fill="none" xmlns="http://www.w3.org/2000/svg">
<g clip-path="url(#clip0_3152_7492)">
<rect width="408" height="220" rx="8" fill="#F4F6FE"/>
<path d="M172.313 111H141.437C132.601 111 125.437 118.163 125.437 127V213C125.437 221.837 118.274 229 109.437 229H78.5618" stroke="#ACBAFF" stroke-width="1.5" stroke-linecap="round" stroke-dasharray="4 4"/>
<path d="M174 108.5C175.381 108.5 176.5 109.619 176.5 111C176.5 112.381 175.381 113.5 174 113.5C172.619 113.5 171.5 112.381 171.5 111C171.5 109.619 172.619 108.5 174 108.5Z" fill="white" stroke="#ACBAFF" stroke-width="3"/>
<g filter="url(#filter0_dddi_3152_7492)">
<g clip-path="url(#clip1_3152_7492)">
<path d="M174 95.4C174 90.3595 174 87.8393 174.981 85.9141C175.844 84.2206 177.221 82.8438 178.914 81.9809C180.839 81 183.36 81 188.4 81H219.6C224.64 81 227.161 81 229.086 81.9809C230.779 82.8438 232.156 84.2206 233.019 85.9141C234 87.8393 234 90.3595 234 95.4V126.6C234 131.64 234 134.161 233.019 136.086C232.156 137.779 230.779 139.156 229.086 140.019C227.161 141 224.64 141 219.6 141H188.4C183.36 141 180.839 141 178.914 140.019C177.221 139.156 175.844 137.779 174.981 136.086C174 134.161 174 131.64 174 126.6V95.4Z" fill="white"/>
<path d="M174 95.4C174 90.3595 174 87.8393 174.981 85.9141C175.844 84.2206 177.221 82.8438 178.914 81.9809C180.839 81 183.36 81 188.4 81H219.6C224.64 81 227.161 81 229.086 81.9809C230.779 82.8438 232.156 84.2206 233.019 85.9141C234 87.8393 234 90.3595 234 95.4V126.6C234 131.64 234 134.161 233.019 136.086C232.156 137.779 230.779 139.156 229.086 140.019C227.161 141 224.64 141 219.6 141H188.4C183.36 141 180.839 141 178.914 140.019C177.221 139.156 175.844 137.779 174.981 136.086C174 134.161 174 131.64 174 126.6V95.4Z" fill="url(#paint0_linear_3152_7492)" fill-opacity="0.2"/>
<g opacity="0.14" clip-path="url(#clip2_3152_7492)">
<path fill-rule="evenodd" clip-rule="evenodd" d="M203.927 81H204.073V84.6773C207.549 84.6867 210.867 85.37 213.903 86.6035V81H214.049V86.6632C216.626 87.7286 218.997 89.1915 221.086 90.9756H223.879V81H224.024V90.9756H234V91.1212H224.024V93.9136C225.808 96.0024 227.271 98.3738 228.337 100.951H234V101.097H228.396C229.63 104.132 230.313 107.45 230.323 110.927H234V111.072H230.323C230.313 114.549 229.63 117.867 228.397 120.902H234V121.048H228.337C227.272 123.626 225.809 125.997 224.024 128.086V130.878H234V131.024H224.024V141H223.879V131.024H221.087C218.998 132.808 216.626 134.271 214.049 135.337V141H213.903V135.397C210.867 136.63 207.549 137.313 204.073 137.323V141H203.927V137.323C200.451 137.313 197.133 136.63 194.097 135.397V141H193.951V135.337C191.374 134.271 189.002 132.808 186.913 131.024H184.121V141H183.976V131.024H174V130.878H183.976V128.086C182.191 125.997 180.728 123.626 179.663 121.048H174V120.902H179.603C178.37 117.867 177.687 114.549 177.677 111.072H174V110.927H177.677C177.687 107.45 178.37 104.132 179.604 101.097H174V100.951H179.663C180.729 98.3738 182.192 96.0024 183.976 93.9137V91.1212H174V90.9756H183.976V81H184.121V90.9756H186.914C189.003 89.1915 191.374 87.7286 193.951 86.6632V81H194.097V86.6035C197.133 85.3701 200.451 84.6867 203.927 84.6773V81ZM203.927 84.8229C200.449 84.8324 197.131 85.5201 194.097 86.7608V90.9756H203.927V84.8229ZM193.951 86.8209C191.463 87.8562 189.169 89.2643 187.139 90.9756H193.951V86.8209ZM186.745 91.1212H184.121V93.7446C184.933 92.81 185.81 91.9332 186.745 91.1212ZM184.121 93.9675C184.996 92.9476 185.948 91.9959 186.968 91.1212H193.951V100.951H184.121V93.9675ZM183.976 94.1387C182.264 96.1689 180.856 98.463 179.821 100.951H183.976V94.1387ZM179.761 101.097C178.52 104.13 177.832 107.449 177.823 110.927H183.976V101.097H179.761ZM177.823 111.072C177.832 114.55 178.52 117.869 179.761 120.902H183.976V111.072H177.823ZM179.821 121.048C180.856 123.536 182.264 125.831 183.976 127.861V121.048H179.821ZM184.121 128.255V130.878H186.744C185.809 130.066 184.933 129.19 184.121 128.255ZM186.967 130.878C185.947 130.004 184.996 129.052 184.121 128.033V121.048H193.951V130.878H186.967ZM187.138 131.024C189.168 132.735 191.463 134.144 193.951 135.179V131.024H187.138ZM194.097 135.239C197.131 136.48 200.449 137.168 203.927 137.177V131.024H194.097V135.239ZM204.073 137.177C207.551 137.168 210.869 136.48 213.903 135.239V131.024H204.073V137.177ZM214.049 135.179C216.537 134.144 218.832 132.735 220.862 131.024H214.049V135.179ZM221.256 130.878H223.879V128.255C223.067 129.19 222.191 130.066 221.256 130.878ZM223.879 128.033C223.004 129.052 222.053 130.004 221.033 130.878H214.049V121.048H223.879V128.033ZM224.024 127.861C225.736 125.831 227.144 123.536 228.179 121.048H224.024V127.861ZM228.239 120.902C229.48 117.869 230.168 114.55 230.177 111.072H224.024V120.902H228.239ZM230.177 110.927C230.168 107.449 229.48 104.13 228.239 101.097H224.024V110.927H230.177ZM228.179 100.951C227.144 98.463 225.736 96.1689 224.024 94.1387V100.951H228.179ZM223.879 93.7446V91.1212H221.255C222.19 91.9332 223.067 92.81 223.879 93.7446ZM221.032 91.1212C222.052 91.9959 223.004 92.9476 223.879 93.9675V100.951H214.049V91.1212H221.032ZM220.861 90.9756C218.831 89.2643 216.537 87.8562 214.049 86.8209V90.9756H220.861ZM213.903 86.7608C210.869 85.5201 207.551 84.8324 204.073 84.8229V90.9756H213.903V86.7608ZM194.097 91.1212H203.927V100.951H194.097V91.1212ZM213.903 91.1212H204.073V100.951H213.903V91.1212ZM193.951 120.902H184.121V111.072H193.951V120.902ZM194.097 121.048V130.878H203.927V121.048H194.097ZM203.927 120.902H194.097V111.072H203.927V120.902ZM204.073 121.048V130.878H213.903V121.048H204.073ZM213.903 120.902H204.073V111.072H213.903V120.902ZM223.879 120.902H214.049V111.072H223.879V120.902ZM194.097 101.097H203.927V110.927H194.097V101.097ZM184.121 101.097L193.951 101.097V110.927H184.121V101.097ZM213.903 101.097H204.073V110.927H213.903V101.097ZM214.049 110.927V101.097L223.879 101.097V110.927H214.049Z" fill="#0A0D12"/>
</g>
<path d="M174 111H234V126.6C234 131.64 234 134.161 233.019 136.086C232.156 137.779 230.779 139.156 229.086 140.019C227.161 141 224.64 141 219.6 141H188.4C183.36 141 180.839 141 178.914 140.019C177.221 139.156 175.844 137.779 174.981 136.086C174 134.161 174 131.64 174 126.6V111Z" fill="white" fill-opacity="0.2"/>
<path d="M214.862 104.706C214.862 108.102 214.193 111.466 212.894 114.604C211.594 117.741 209.689 120.592 207.287 122.993C204.886 125.395 202.035 127.3 198.897 128.6C195.76 129.899 192.396 130.568 189 130.568V121.743C191.237 121.743 193.453 121.302 195.52 120.446C197.587 119.59 199.465 118.335 201.047 116.753C202.629 115.171 203.884 113.293 204.74 111.227C205.596 109.16 206.037 106.943 206.037 104.706H214.862ZM206.025 104.706H196.888V95.5693H206.025V104.706Z" fill="#3253ED"/>
</g>
<path d="M188.4 81.1123H219.6C222.122 81.1123 224.007 81.1122 225.502 81.2344C226.809 81.3412 227.81 81.5417 228.673 81.9121L229.035 82.0811C230.603 82.8799 231.895 84.125 232.753 85.6553L232.919 85.9648C233.4 86.9089 233.644 88.0042 233.766 89.498C233.888 90.9932 233.888 92.8784 233.888 95.4004V126.6C233.888 129.122 233.888 131.007 233.766 132.502C233.659 133.809 233.458 134.81 233.088 135.673L232.919 136.035C232.12 137.603 230.875 138.895 229.345 139.753L229.035 139.919C228.091 140.4 226.996 140.644 225.502 140.766C224.007 140.888 222.122 140.888 219.6 140.888H188.4C185.878 140.888 183.993 140.888 182.498 140.766C181.191 140.659 180.19 140.458 179.327 140.088L178.965 139.919C177.397 139.12 176.105 137.875 175.247 136.345L175.081 136.035C174.6 135.091 174.356 133.996 174.234 132.502C174.112 131.007 174.112 129.122 174.112 126.6V95.4004C174.112 92.8784 174.112 90.9932 174.234 89.498C174.341 88.1911 174.542 87.1896 174.912 86.3271L175.081 85.9648C175.88 84.3972 177.125 83.1046 178.655 82.2471L178.965 82.0811C179.909 81.6 181.004 81.3564 182.498 81.2344C183.993 81.1122 185.878 81.1123 188.4 81.1123Z" stroke="#0A0D12" stroke-opacity="0.12" stroke-width="0.225"/>
</g>
<path d="M235.687 111H266.563C275.399 111 282.563 103.837 282.563 95V7C282.563 -1.83656 289.726 -9 298.563 -9H329.438" stroke="#ACBAFF" stroke-width="1.5" stroke-linecap="round" stroke-dasharray="4 4"/>
<path d="M234 113.5C232.619 113.5 231.5 112.381 231.5 111C231.5 109.619 232.619 108.5 234 108.5C235.381 108.5 236.5 109.619 236.5 111C236.5 112.381 235.381 113.5 234 113.5Z" fill="white" stroke="#ACBAFF" stroke-width="3"/>
<path d="M172.313 111H141.437C132.601 111 125.437 103.837 125.437 95V45C125.437 36.1634 118.274 29 109.437 29H78.5618" stroke="#FFB389" stroke-width="1.5" stroke-linecap="round" stroke-dasharray="4 4"/>
<path d="M77.7472 28.2803L82.779 25.1526C83.3819 24.7778 84.1591 25.1339 84.2789 25.7806C84.3 25.8943 84.2747 26.0102 84.2355 26.119L83.1968 29L84.2355 31.8811C84.2747 31.9899 84.3 32.1058 84.2789 32.2195C84.1605 32.8571 83.4022 33.2148 82.7993 32.8598L77.7675 29.8966C77.1461 29.5306 77.1352 28.6608 77.7472 28.2803Z" fill="#FFB389"/>
<path d="M174 113.5C175.381 113.5 176.5 112.381 176.5 111C176.5 109.619 175.381 108.5 174 108.5C172.619 108.5 171.5 109.619 171.5 111C171.5 112.381 172.619 113.5 174 113.5Z" fill="white" stroke="#FFB389" stroke-width="3"/>
<path d="M235.687 111H266.563C275.399 111 282.563 118.163 282.563 127V158C282.563 166.837 289.726 174 298.563 174H329.438" stroke="#FFB389" stroke-width="1.5" stroke-linecap="round" stroke-dasharray="4 4"/>
<path d="M330.253 174.72L325.221 177.847C324.618 178.222 323.841 177.866 323.721 177.219C323.7 177.106 323.725 176.99 323.765 176.881L324.803 174L323.765 171.119C323.725 171.01 323.7 170.894 323.721 170.781C323.84 170.143 324.598 169.785 325.201 170.14L330.233 173.103C330.854 173.469 330.865 174.339 330.253 174.72Z" fill="#FFB389"/>
<path d="M234 108.5C232.619 108.5 231.5 109.619 231.5 111C231.5 112.381 232.619 113.5 234 113.5C235.381 113.5 236.5 112.381 236.5 111C236.5 109.619 235.381 108.5 234 108.5Z" fill="white" stroke="#FFB389" stroke-width="3"/>
<path d="M204 229L204 143.535" stroke="#ACBAFF" stroke-width="1.5" stroke-linecap="round" stroke-dasharray="4 4"/>
<path d="M201.5 141C201.5 139.619 202.619 138.5 204 138.5C205.381 138.5 206.5 139.619 206.5 141C206.5 142.381 205.381 143.5 204 143.5C202.619 143.5 201.5 142.381 201.5 141Z" fill="white" stroke="#ACBAFF" stroke-width="3"/>
<rect x="16" y="-1" width="60" height="60" rx="8" fill="url(#paint1_linear_3152_7492)"/>
<rect x="16" y="211" width="60" height="60" rx="8" fill="url(#paint2_linear_3152_7492)"/>
<rect x="331" y="-39" width="60" height="60" rx="8" fill="url(#paint3_linear_3152_7492)"/>
<rect x="331" y="144" width="60" height="60" rx="8" fill="url(#paint4_linear_3152_7492)"/>
<g filter="url(#filter2_f_3152_7492)">
<path d="M207 -79C319.666 -79 411 -54.3757 411 -24C441.376 -24 466 25.2487 466 86C466 146.751 441.376 196 411 196C409.817 196 408.644 195.924 407.479 195.777C409.789 199.09 411 202.506 411 206C411 236.376 319.666 261 207 261C94.3339 261 3 236.376 3 206C3 202.506 4.20974 199.09 6.51953 195.777C5.35577 195.924 4.1823 196 3 196C-27.3757 196 -52 146.751 -52 86C-52 25.2487 -27.3757 -24 3 -24C3 -54.3757 94.3339 -79 207 -79ZM41.9453 8.3291C51.8659 28.2264 58 55.6805 58 86C58 123.723 48.5037 157.01 34.0332 176.826C70.1036 161.314 134.084 151 207 151C279.915 151 343.895 161.315 379.966 176.826C365.496 157.01 356 123.723 356 86C356 55.6807 362.133 28.2264 372.054 8.3291C334.966 22.0687 274.852 31 207 31C139.148 31 79.0329 22.0689 41.9453 8.3291Z" fill="white"/>
</g>
</g>
<defs>
<filter id="filter0_dddi_3152_7492" x="170.625" y="78.75" width="66.75" height="66.75" filterUnits="userSpaceOnUse" color-interpolation-filters="sRGB">
<feFlood flood-opacity="0" result="BackgroundImageFix"/>
<feColorMatrix in="SourceAlpha" type="matrix" values="0 0 0 0 0 0 0 0 0 0 0 0 0 0 0 0 0 0 127 0" result="hardAlpha"/>
<feOffset dy="1.125"/>
<feGaussianBlur stdDeviation="1.125"/>
<feColorMatrix type="matrix" values="0 0 0 0 0.0392157 0 0 0 0 0.0509804 0 0 0 0 0.0705882 0 0 0 0.06 0"/>
<feBlend mode="normal" in2="BackgroundImageFix" result="effect1_dropShadow_3152_7492"/>
<feColorMatrix in="SourceAlpha" type="matrix" values="0 0 0 0 0 0 0 0 0 0 0 0 0 0 0 0 0 0 127 0" result="hardAlpha"/>
<feOffset dy="1.125"/>
<feGaussianBlur stdDeviation="1.6875"/>
<feColorMatrix type="matrix" values="0 0 0 0 0.0392157 0 0 0 0 0.0509804 0 0 0 0 0.0705882 0 0 0 0.1 0"/>
<feBlend mode="normal" in2="effect1_dropShadow_3152_7492" result="effect2_dropShadow_3152_7492"/>
<feColorMatrix in="SourceAlpha" type="matrix" values="0 0 0 0 0 0 0 0 0 0 0 0 0 0 0 0 0 0 127 0" result="hardAlpha"/>
<feMorphology radius="0.5625" operator="erode" in="SourceAlpha" result="effect3_dropShadow_3152_7492"/>
<feOffset dy="1.125"/>
<feGaussianBlur stdDeviation="0.5625"/>
<feComposite in2="hardAlpha" operator="out"/>
<feColorMatrix type="matrix" values="0 0 0 0 0.0392157 0 0 0 0 0.0509804 0 0 0 0 0.0705882 0 0 0 0.13 0"/>
<feBlend mode="normal" in2="effect2_dropShadow_3152_7492" result="effect3_dropShadow_3152_7492"/>
<feBlend mode="normal" in="SourceGraphic" in2="effect3_dropShadow_3152_7492" result="shape"/>
<feColorMatrix in="SourceAlpha" type="matrix" values="0 0 0 0 0 0 0 0 0 0 0 0 0 0 0 0 0 0 127 0" result="hardAlpha"/>
<feOffset dy="-0.5625"/>
<feGaussianBlur stdDeviation="0.28125"/>
<feComposite in2="hardAlpha" operator="arithmetic" k2="-1" k3="1"/>
<feColorMatrix type="matrix" values="0 0 0 0 0.0392157 0 0 0 0 0.0509804 0 0 0 0 0.0705882 0 0 0 0.1 0"/>
<feBlend mode="normal" in2="shape" result="effect4_innerShadow_3152_7492"/>
</filter>
<filter id="filter2_f_3152_7492" x="-152" y="-179" width="718" height="540" filterUnits="userSpaceOnUse" color-interpolation-filters="sRGB">
<feFlood flood-opacity="0" result="BackgroundImageFix"/>
<feBlend mode="normal" in="SourceGraphic" in2="BackgroundImageFix" result="shape"/>
<feGaussianBlur stdDeviation="50" result="effect1_foregroundBlur_3152_7492"/>
</filter>
<linearGradient id="paint0_linear_3152_7492" x1="204" y1="81" x2="204" y2="141" gradientUnits="userSpaceOnUse">
<stop stop-color="white"/>
<stop offset="1" stop-color="#0A0D12"/>
</linearGradient>
<linearGradient id="paint1_linear_3152_7492" x1="46" y1="-1" x2="46" y2="59" gradientUnits="userSpaceOnUse">
<stop stop-color="#DDE3FF" stop-opacity="0"/>
<stop offset="1" stop-color="#DDE3FF"/>
</linearGradient>
<linearGradient id="paint2_linear_3152_7492" x1="46" y1="211" x2="46" y2="271" gradientUnits="userSpaceOnUse">
<stop stop-color="#DDE3FF" stop-opacity="0.5"/>
<stop offset="1" stop-color="#DDE3FF" stop-opacity="0"/>
</linearGradient>
<linearGradient id="paint3_linear_3152_7492" x1="361" y1="-39" x2="361" y2="21" gradientUnits="userSpaceOnUse">
<stop stop-color="#DDE3FF" stop-opacity="0"/>
<stop offset="1" stop-color="#DDE3FF"/>
</linearGradient>
<linearGradient id="paint4_linear_3152_7492" x1="361" y1="144" x2="361" y2="204" gradientUnits="userSpaceOnUse">
<stop stop-color="#FFB389" stop-opacity="0"/>
<stop offset="1" stop-color="#FFB389"/>
</linearGradient>
<clipPath id="clip0_3152_7492">
<rect width="408" height="220" rx="12" fill="white"/>
</clipPath>
<clipPath id="clip1_3152_7492">
<path d="M174 95.4C174 90.3595 174 87.8393 174.981 85.9141C175.844 84.2206 177.221 82.8438 178.914 81.9809C180.839 81 183.36 81 188.4 81H219.6C224.64 81 227.161 81 229.086 81.9809C230.779 82.8438 232.156 84.2206 233.019 85.9141C234 87.8393 234 90.3595 234 95.4V126.6C234 131.64 234 134.161 233.019 136.086C232.156 137.779 230.779 139.156 229.086 140.019C227.161 141 224.64 141 219.6 141H188.4C183.36 141 180.839 141 178.914 140.019C177.221 139.156 175.844 137.779 174.981 136.086C174 134.161 174 131.64 174 126.6V95.4Z" fill="white"/>
</clipPath>
<clipPath id="clip2_3152_7492">
<rect width="60" height="60" fill="white" transform="translate(174 81)"/>
</clipPath>
</defs>
</svg>
